{"glyphs":{"0":{"ha":876,"x_min":33,"x_max":843,"o":"m 435 -17 q 143 99 253 -17 q 33 419 33 214 q 147 742 33 622 q 444 863 261 863 q 735 746 626 863 q 843 428 843 629 q 729 104 843 225 q 435 -17 615 -17 m 439 11 q 531 107 503 11 q 560 417 560 203 q 532 738 560 640 q 438 835 504 835 q 344 738 374 835 q 315 431 315 640 q 343 110 315 208 q 439 11 371 11 z "},"1":{"ha":596,"x_min":46,"x_max":571,"o":"m 46 0 l 46 24 l 183 65 l 183 721 l 46 688 l 46 719 l 329 857 l 438 857 l 438 65 l 571 24 l 571 0 l 46 0 z "},"2":{"ha":717,"x_min":31,"x_max":676,"o":"m 676 186 l 658 0 l 31 0 l 31 122 l 200 256 q 356 441 318 349 q 394 625 394 533 q 249 835 394 835 l 68 557 l 44 557 l 47 815 q 342 861 171 861 q 587 794 507 861 q 667 613 667 726 q 571 399 667 479 q 299 247 475 318 l 157 190 l 157 186 l 676 186 m 79 803 l 175 826 l 79 803 z "},"3":{"ha":739,"x_min":29,"x_max":704,"o":"m 704 118 q 606 -92 704 -15 q 324 -169 508 -169 q 33 -139 153 -169 l 29 146 l 53 146 l 238 -140 q 378 -61 329 -135 q 428 124 428 13 q 236 353 428 349 l 186 353 l 186 381 l 242 381 q 410 606 410 388 q 257 835 410 824 l 75 564 l 51 564 l 57 831 q 328 861 182 861 q 668 615 668 861 q 590 453 668 519 q 347 375 511 388 l 347 369 q 612 305 519 368 q 704 118 704 242 m 119 -131 l 135 -133 l 119 -131 z "},"4":{"ha":818,"x_min":21,"x_max":779,"o":"m 424 -156 l 424 132 l 21 132 l 21 157 l 474 844 l 678 844 l 678 160 l 779 160 l 779 132 l 678 132 l 678 -156 l 424 -156 m 58 160 l 424 160 l 424 710 l 418 710 l 58 164 l 58 160 z "},"5":{"ha":733,"x_min":46,"x_max":686,"o":"m 296 -171 q 49 -128 143 -171 l 46 135 l 69 135 l 238 -143 q 365 -70 318 -140 q 413 117 413 0 q 360 298 413 238 q 214 358 308 358 q 79 315 133 358 l 113 844 l 643 844 l 625 640 l 129 640 l 111 361 q 230 440 157 414 q 378 467 303 467 q 599 390 513 467 q 686 156 686 314 q 588 -83 686 6 q 296 -171 490 -171 z "},"6":{"ha":835,"x_min":47,"x_max":807,"o":"m 807 331 q 708 76 807 171 q 432 -18 608 -18 q 147 106 247 -18 q 47 465 47 229 q 166 876 47 733 q 494 1018 285 1018 q 733 946 656 1018 l 733 918 q 574 942 657 942 q 386 844 443 942 q 321 536 329 746 q 551 642 415 642 q 739 556 671 642 q 807 331 807 471 m 318 425 q 346 110 318 211 q 432 8 374 8 q 515 76 490 8 q 540 289 540 144 q 513 476 540 419 q 425 532 485 532 q 319 510 361 532 l 318 425 z "},"7":{"ha":729,"x_min":42,"x_max":697,"o":"m 110 -156 l 633 636 l 633 643 l 157 643 l 65 489 l 42 489 l 56 844 l 697 844 l 697 733 l 386 -156 l 110 -156 z "},"8":{"ha":808,"x_min":31,"x_max":778,"o":"m 778 263 q 679 56 778 132 q 397 -19 581 -19 q 121 48 211 -19 q 31 232 31 115 q 101 397 31 335 q 271 476 171 458 q 127 601 179 535 q 75 756 75 668 q 164 947 75 876 q 417 1018 253 1018 q 673 956 594 1018 q 751 801 751 893 q 522 583 751 632 q 733 422 688 483 q 778 263 778 361 m 493 600 q 563 800 563 682 q 414 992 563 992 q 308 949 344 992 q 271 833 271 906 q 308 727 271 769 q 493 600 346 685 m 226 242 q 272 72 226 138 q 406 7 317 7 q 528 56 483 7 q 574 188 574 104 q 530 303 574 261 q 424 383 486 346 l 299 458 q 226 242 226 386 z "},"9":{"ha":835,"x_min":28,"x_max":788,"o":"m 788 378 q 669 -33 788 110 q 340 -175 550 -175 q 101 -103 179 -175 l 101 -75 q 261 -99 178 -99 q 449 -1 392 -99 q 514 307 506 97 q 283 201 419 201 q 96 287 164 201 q 28 513 28 372 q 127 767 28 672 q 403 861 226 861 q 688 738 588 861 q 788 378 788 614 m 294 554 q 322 367 294 424 q 410 311 350 311 q 515 333 474 311 l 517 418 q 489 733 517 632 q 403 835 461 835 q 319 767 344 835 q 294 554 294 699 z "},"Ð":{"ha":1029,"x_min":25,"x_max":1001,"o":"m 39 496 l 39 531 l 118 531 l 118 960 l 25 978 l 25 1001 l 483 1001 q 867 875 733 1001 q 1001 517 1001 749 q 865 139 1001 278 q 488 0 729 0 l 25 0 l 25 24 l 118 43 l 118 496 l 39 496 m 679 497 q 660 786 679 682 q 599 933 640 890 q 469 976 557 976 l 411 976 l 411 531 l 560 531 l 560 496 l 411 496 l 411 25 l 492 25 q 640 133 601 29 q 679 497 679 238 z "},"ð":{"ha":825,"x_min":21,"x_max":801,"o":"m 411 -21 q 128 88 235 -21 q 21 375 21 196 q 120 657 21 549 q 364 765 219 765 q 500 726 454 765 q 403 926 471 839 l 219 819 l 200 844 l 382 951 q 214 1079 317 1025 l 222 1096 q 468 1001 335 1075 l 635 1099 l 654 1074 l 499 983 q 731 728 660 878 q 801 415 801 578 q 697 94 801 210 q 411 -21 592 -21 m 411 736 q 322 655 349 736 q 294 374 294 574 q 322 89 294 174 q 413 4 349 4 q 502 92 476 4 q 528 375 528 181 q 502 652 528 568 q 411 736 476 736 z "},"Ł":{"ha":846,"x_min":25,"x_max":821,"o":"m 25 0 l 25 24 l 118 44 l 118 360 l 36 321 l 36 361 l 118 400 l 118 957 l 25 978 l 25 1001 l 511 1001 l 511 978 l 411 958 l 411 538 l 626 639 l 626 600 l 411 499 l 411 26 l 569 26 l 797 383 l 821 383 l 803 0 l 25 0 z "},"ł":{"ha":450,"x_min":18,"x_max":440,"o":"m 22 431 l 22 471 l 103 519 l 103 997 l 18 1029 l 18 1053 l 326 1097 l 357 1093 l 357 671 l 440 721 l 440 679 l 357 629 l 357 46 l 436 24 l 436 0 l 24 0 l 24 24 l 103 46 l 103 478 l 22 431 z "},"Š":{"ha":793,"x_min":44,"x_max":760,"o":"m 363 -17 q 58 33 174 -17 l 44 308 l 68 308 l 286 21 q 358 8 326 8 q 542 171 542 8 q 495 291 542 246 q 343 375 449 336 l 289 397 q 112 517 172 446 q 51 708 51 589 q 147 938 51 857 q 419 1019 242 1019 q 689 979 564 1019 l 704 721 l 681 721 l 479 985 q 419 996 451 996 q 294 953 336 996 q 253 840 253 910 q 292 733 253 775 q 426 658 331 692 l 569 600 q 718 485 676 551 q 760 317 760 419 q 654 70 760 157 q 363 -17 549 -17 m 181 1360 l 396 1260 l 611 1360 l 628 1343 l 415 1076 l 376 1076 l 164 1343 l 181 1360 z "},"š":{"ha":644,"x_min":35,"x_max":615,"o":"m 615 233 q 535 49 615 117 q 303 -18 454 -18 q 43 21 147 -18 l 35 246 l 58 246 l 257 14 l 299 7 q 422 124 422 7 q 392 199 422 172 q 258 272 361 225 q 95 378 154 318 q 36 533 36 438 q 114 715 36 650 q 331 781 192 781 q 554 756 469 781 l 561 546 l 538 546 l 386 749 q 338 757 361 757 q 229 651 229 757 q 259 573 229 599 q 394 500 289 547 q 557 396 499 453 q 615 233 615 339 m 114 1125 l 329 1025 l 544 1125 l 561 1108 l 349 842 l 310 842 l 97 1108 l 114 1125 z "},"Ý":{"ha":928,"x_min":7,"x_max":922,"o":"m 224 0 l 224 24 l 326 44 l 326 411 l 71 944 l 7 978 l 7 1001 l 447 1001 l 447 978 l 371 946 l 600 460 l 607 460 l 786 911 l 658 978 l 658 1001 l 922 1001 l 922 978 l 814 910 l 619 419 l 619 44 l 718 24 l 718 0 l 224 0 m 396 1060 l 383 1079 l 635 1371 l 765 1179 l 396 1060 z "},"ý":{"ha":810,"x_min":6,"x_max":804,"o":"m 203 -315 l 121 -165 l 121 -144 l 415 -144 l 72 706 l 6 738 l 6 761 l 433 761 l 433 738 l 347 701 l 532 194 l 692 678 l 583 738 l 583 761 l 804 761 l 804 738 l 721 682 l 468 -71 q 203 -315 397 -274 m 303 832 l 290 851 l 542 1143 l 672 951 l 303 832 z "},"Þ":{"ha":900,"x_min":25,"x_max":885,"o":"m 25 0 l 25 24 l 119 43 l 119 958 l 25 978 l 25 1001 l 510 1001 l 508 978 l 413 958 l 413 786 l 513 786 q 801 711 717 783 q 885 521 885 639 q 786 310 885 383 q 531 236 688 236 q 413 247 475 236 l 413 43 l 508 24 l 510 0 l 25 0 m 413 757 l 413 276 l 469 271 q 600 510 600 271 q 569 700 600 643 q 463 757 539 757 l 413 757 z "},"þ":{"ha":835,"x_min":-14,"x_max":806,"o":"m 806 403 q 711 92 806 203 q 451 -18 617 -18 q 324 -1 374 -18 l 324 -254 l 414 -274 l 414 -297 l -10 -297 l -10 -274 l 69 -254 l 69 996 l -14 1029 l -14 1053 l 288 1097 l 321 1094 l 321 685 l 329 685 q 413 749 358 719 q 544 779 468 779 q 738 683 671 779 q 806 403 806 588 m 540 375 q 504 611 540 549 q 404 674 468 674 q 324 658 365 674 l 324 44 q 400 18 361 18 q 503 97 465 18 q 540 375 540 176 z "},"Ž":{"ha":871,"x_min":24,"x_max":846,"o":"m 24 0 l 24 24 l 535 975 l 274 975 l 79 653 l 56 653 l 72 1001 l 842 1001 l 842 978 l 331 26 l 621 26 l 822 371 l 846 371 l 826 0 l 24 0 m 222 1342 l 438 1242 l 653 1342 l 669 1325 l 457 1058 l 418 1058 l 206 1325 l 222 1342 z "},"ž":{"ha":701,"x_min":19,"x_max":674,"o":"m 19 0 l 19 26 l 396 735 l 238 735 l 88 485 l 64 485 l 72 761 l 674 761 l 674 735 l 299 26 l 485 26 l 647 290 l 671 290 l 660 0 l 19 0 m 151 1125 l 367 1025 l 582 1125 l 599 1108 l 386 842 l 347 842 l 135 1108 l 151 1125 z "},"½":{"ha":1325,"x_min":26,"x_max":1281,"o":"m 33 371 l 33 394 l 139 421 l 139 906 l 26 896 l 26 919 l 263 1007 l 347 1007 l 347 421 l 454 394 l 454 371 l 33 371 m 285 -29 l 924 1001 l 965 1001 l 328 -29 l 285 -29 m 790 0 l 790 82 l 950 229 q 1056 475 1056 338 q 960 615 1056 615 l 828 418 l 804 418 l 810 606 q 1026 640 900 640 q 1208 592 1143 640 q 1274 457 1274 544 q 1058 221 1274 324 l 908 156 l 908 150 l 1281 150 l 1271 0 l 790 0 z "},"¼":{"ha":1219,"x_min":26,"x_max":1199,"o":"m 33 371 l 33 394 l 139 421 l 139 906 l 26 896 l 26 919 l 263 1007 l 347 1007 l 347 421 l 454 394 l 454 371 l 33 371 m 285 -29 l 924 1001 l 965 1001 l 328 -29 l 285 -29 m 826 0 l 826 24 l 910 50 l 910 188 l 651 188 l 651 206 l 931 632 l 1108 632 l 1108 214 l 1199 214 l 1199 188 l 1108 188 l 1108 50 l 1192 24 l 1192 0 l 826 0 m 689 214 l 910 214 l 910 547 l 906 547 l 689 217 l 689 214 z "},"¹":{"ha":472,"x_min":26,"x_max":454,"o":"m 33 479 l 33 503 l 139 529 l 139 1014 l 26 1004 l 26 1028 l 263 1115 l 347 1115 l 347 529 l 454 503 l 454 479 l 33 479 z "},"¾":{"ha":1232,"x_min":28,"x_max":1211,"o":"m 235 357 q 31 390 89 357 l 28 569 l 51 569 l 172 385 q 289 542 289 393 q 165 682 289 681 l 121 682 l 121 710 l 172 710 q 279 840 279 715 q 186 982 279 982 l 178 982 l 60 811 l 36 811 l 43 981 q 243 1007 129 1007 q 421 971 351 1007 q 490 856 490 935 q 272 703 490 724 l 272 699 q 446 657 378 692 q 514 540 514 622 q 438 403 514 449 q 235 357 361 357 m 297 -29 l 936 1001 l 978 1001 l 340 -29 l 297 -29 m 839 0 l 839 24 l 922 50 l 922 188 l 664 188 l 664 206 l 943 632 l 1121 632 l 1121 214 l 1211 214 l 1211 188 l 1121 188 l 1121 50 l 1204 24 l 1204 0 l 839 0 m 701 214 l 922 214 l 922 547 l 918 547 l 701 217 l 701 214 z "},"³":{"ha":554,"x_min":28,"x_max":514,"o":"m 235 465 q 31 499 89 465 l 28 678 l 51 678 l 172 493 q 289 650 289 501 q 165 790 289 789 l 121 790 l 121 818 l 172 818 q 279 949 279 824 q 186 1090 279 1090 l 178 1090 l 60 919 l 36 919 l 43 1089 q 243 1115 129 1115 q 421 1079 351 1115 q 490 964 490 1043 q 272 811 490 832 l 272 807 q 446 765 378 800 q 514 649 514 731 q 438 511 514 557 q 235 465 361 465 z "},"²":{"ha":563,"x_min":28,"x_max":518,"o":"m 28 479 l 28 561 l 188 708 q 293 954 293 817 q 197 1094 293 1094 l 65 897 l 42 897 l 47 1085 q 264 1119 138 1119 q 446 1072 381 1119 q 511 936 511 1024 q 296 700 511 803 l 146 635 l 146 629 l 518 629 l 508 479 l 28 479 z "},"¦":{"ha":199,"x_min":82,"x_max":117,"o":"m 117 540 l 82 540 l 82 1093 l 117 1093 l 117 540 m 82 -187 l 82 386 l 117 386 l 117 -187 l 82 -187 z "},"−":{"ha":747,"x_min":65,"x_max":682,"o":"m 65 411 l 65 453 l 682 453 l 682 411 l 65 411 z "},"×":{"ha":813,"x_min":122,"x_max":689,"o":"m 154 149 l 125 178 l 376 432 l 122 685 l 153 715 l 406 461 l 660 714 l 689 685 l 436 432 l 689 178 l 660 149 l 406 401 l 154 149 z "}," ":{"ha":236,"x_min":0,"x_max":0,"o":""},"!":{"ha":400,"x_min":47,"x_max":351,"o":"m 183 332 l 47 1001 l 351 1001 l 211 332 l 183 332 m 197 -17 q 167 -17 197 -17 q 98 25 136 -17 q 60 122 60 67 q 98 219 60 178 q 197 260 136 260 q 297 219 258 260 q 336 122 336 178 q 297 25 336 67 q 197 -17 258 -17 z "},"\"":{"ha":597,"x_min":49,"x_max":549,"o":"m 151 658 l 49 1001 l 278 1001 l 172 658 l 151 658 m 422 658 l 319 1001 l 549 1001 l 443 658 l 422 658 z "},"#":{"ha":819,"x_min":33,"x_max":789,"o":"m 154 0 l 199 297 l 33 297 l 33 332 l 204 332 l 258 688 l 82 688 l 82 722 l 264 722 l 306 1001 l 340 1001 l 299 722 l 590 722 l 632 1001 l 667 1001 l 625 722 l 789 722 l 789 688 l 619 688 l 567 332 l 739 332 l 739 297 l 561 297 l 517 0 l 482 0 l 526 297 l 233 297 l 189 0 l 154 0 m 239 332 l 532 332 l 585 688 l 293 688 l 239 332 z "},"$":{"ha":775,"x_min":43,"x_max":743,"o":"m 272 -185 l 296 -4 q 57 40 158 1 l 43 326 l 67 326 l 288 29 l 300 26 l 347 382 l 263 418 q 51 711 51 514 q 143 931 51 853 q 429 1010 235 1010 l 443 1117 l 475 1117 l 461 1008 q 672 972 576 1004 l 692 706 l 668 706 l 482 975 l 457 981 l 413 647 q 614 556 560 592 q 743 314 743 472 q 640 78 743 161 q 354 -6 536 -6 l 326 -6 l 303 -185 l 272 -185 m 244 825 q 276 724 244 761 q 383 658 308 688 l 425 985 q 288 940 331 985 q 244 825 244 896 m 533 190 q 494 299 533 264 q 376 369 456 335 l 331 21 l 353 19 q 486 66 439 19 q 533 190 533 113 z "},"%":{"ha":1215,"x_min":33,"x_max":1182,"o":"m 296 450 q 237 450 296 450 q 106 524 178 450 q 33 729 33 599 q 106 937 33 857 q 297 1017 179 1017 q 488 941 413 1017 q 563 738 563 865 q 488 529 563 608 q 296 450 414 450 m 240 -17 l 922 1001 l 968 1001 l 285 -17 l 240 -17 m 297 472 q 356 529 338 472 q 374 731 374 586 q 356 933 374 872 q 297 994 339 994 q 238 936 254 994 q 221 739 221 878 q 238 534 221 596 q 297 472 254 472 m 915 -17 q 724 60 796 -17 q 653 263 653 136 q 727 471 653 392 q 917 550 801 550 q 1108 474 1035 550 q 1182 271 1182 397 q 1108 61 1182 139 q 915 -17 1033 -17 m 917 6 q 975 63 957 6 q 993 264 993 119 q 976 467 993 406 q 917 528 958 528 q 857 469 874 528 q 840 272 840 411 q 857 67 840 129 q 917 6 874 6 z "},"&":{"ha":992,"x_min":26,"x_max":981,"o":"m 315 -17 q 108 58 190 -17 q 26 260 26 132 q 90 426 26 358 q 260 517 154 494 l 246 536 q 147 771 147 665 q 228 949 147 881 q 454 1018 308 1018 q 660 966 590 1018 q 729 818 729 914 q 671 678 729 733 q 492 583 613 622 l 750 249 q 839 475 822 360 l 721 533 l 721 557 l 978 557 l 978 533 l 876 475 q 767 228 842 325 l 911 42 l 981 24 l 981 0 l 654 0 l 594 78 q 460 5 521 26 q 315 -17 400 -17 m 474 606 q 546 828 546 694 q 449 994 546 994 q 378 960 407 994 q 350 856 350 925 q 375 753 350 804 q 474 606 400 701 m 246 343 q 306 163 246 228 q 468 97 367 97 q 572 108 522 97 l 282 489 q 246 343 246 428 z "},"'":{"ha":325,"x_min":49,"x_max":278,"o":"m 151 658 l 49 1001 l 278 1001 l 172 658 l 151 658 z "},"(":{"ha":532,"x_min":60,"x_max":493,"o":"m 476 -200 q 151 98 243 -56 q 60 447 60 251 q 158 796 60 636 q 476 1093 257 956 l 493 1074 q 355 811 406 969 q 304 449 304 653 q 493 -181 304 43 l 476 -200 z "},")":{"ha":532,"x_min":39,"x_max":472,"o":"m 56 1093 q 381 795 289 949 q 472 446 472 642 q 374 97 472 257 q 56 -200 275 -62 l 39 -181 q 177 82 126 -76 q 228 444 228 240 q 39 1074 228 850 l 56 1093 z "},"*":{"ha":574,"x_min":29,"x_max":544,"o":"m 300 789 l 297 788 l 378 565 l 196 565 l 276 788 l 274 789 l 113 618 l 29 768 l 261 811 l 261 814 l 29 856 l 113 1006 l 274 832 l 276 833 l 196 1057 l 378 1057 l 297 833 l 300 832 l 460 1006 l 544 856 l 311 814 l 311 811 l 544 768 l 460 618 l 300 789 z "},"+":{"ha":747,"x_min":65,"x_max":682,"o":"m 65 411 l 65 453 l 353 453 l 353 753 l 394 753 l 394 453 l 682 453 l 682 411 l 394 411 l 394 110 l 353 110 l 353 411 l 65 411 z "},",":{"ha":363,"x_min":-11,"x_max":313,"o":"m -11 -136 q 71 117 71 -92 l 65 247 l 307 247 q 230 -25 313 74 q -1 -156 147 -124 l -11 -136 z "},"-":{"ha":475,"x_min":36,"x_max":439,"o":"m 36 394 l 36 436 l 439 436 l 439 394 l 36 394 z "},".":{"ha":374,"x_min":44,"x_max":329,"o":"m 186 -19 q 84 23 124 -19 q 44 124 44 65 q 84 222 44 181 q 186 263 124 263 q 290 222 250 263 q 329 124 329 181 q 290 23 329 65 q 186 -19 250 -19 z "},"/":{"ha":400,"x_min":-22,"x_max":400,"o":"m -22 -189 l 365 1093 l 400 1093 l 13 -189 l -22 -189 z "},":":{"ha":374,"x_min":44,"x_max":329,"o":"m 186 400 q 84 442 124 400 q 44 543 44 485 q 84 642 44 601 q 186 682 124 682 q 290 642 250 682 q 329 543 329 601 q 290 442 329 485 q 186 400 250 400 m 186 -19 q 84 23 124 -19 q 44 124 44 65 q 84 222 44 181 q 186 263 124 263 q 290 222 250 263 q 329 124 329 181 q 290 23 329 65 q 186 -19 250 -19 z "},";":{"ha":371,"x_min":-12,"x_max":329,"o":"m 186 400 q 84 442 124 400 q 44 543 44 485 q 84 642 44 601 q 186 682 124 682 q 290 642 250 682 q 329 543 329 601 q 290 442 329 485 q 186 400 250 400 m -12 -136 q 69 117 69 -92 l 64 247 l 306 247 q 228 -25 311 74 q -3 -156 146 -124 l -12 -136 z "},"<":{"ha":714,"x_min":75,"x_max":629,"o":"m 629 139 l 75 413 l 75 449 l 629 724 l 629 681 l 131 432 l 629 182 l 629 139 z "},"=":{"ha":757,"x_min":72,"x_max":685,"o":"m 72 544 l 72 586 l 685 586 l 685 544 l 72 544 m 72 276 l 72 318 l 685 318 l 685 276 l 72 276 z "},">":{"ha":714,"x_min":85,"x_max":639,"o":"m 85 724 l 639 450 l 639 414 l 85 139 l 85 182 l 583 431 l 85 681 l 85 724 z "},"?":{"ha":657,"x_min":32,"x_max":631,"o":"m 242 992 l 56 700 l 32 700 l 35 979 q 288 1017 150 1017 q 543 953 456 1017 q 631 767 631 890 q 577 627 631 685 q 420 521 524 569 q 288 443 317 472 q 260 379 260 414 l 267 332 l 239 332 q 207 432 207 375 q 267 569 207 499 q 343 689 328 639 q 358 814 358 739 q 242 992 358 992 m 174 974 l 182 978 l 174 974 m 268 -17 q 169 25 208 -17 q 131 122 131 67 q 169 219 131 178 q 268 260 208 260 q 368 219 329 260 q 407 122 407 178 q 368 25 407 67 q 268 -17 329 -17 z "},"@":{"ha":1244,"x_min":31,"x_max":1217,"o":"m 624 -221 q 192 -72 353 -221 q 31 322 31 78 q 114 657 31 503 q 346 897 197 811 q 675 982 494 982 q 1069 849 921 982 q 1217 485 1217 715 q 1119 173 1217 289 q 867 57 1021 57 q 665 181 689 57 l 656 181 q 583 98 629 125 q 488 71 536 71 q 347 133 399 71 q 296 306 296 194 q 378 591 296 478 q 589 704 460 704 q 743 633 704 704 l 825 692 l 968 692 l 888 258 q 888 157 875 193 q 940 121 900 121 q 1027 147 982 121 q 1107 222 1072 172 q 1176 483 1176 324 q 1043 824 1176 701 q 676 947 910 947 q 370 867 507 947 q 157 642 233 786 q 81 326 81 497 q 226 -45 81 92 q 629 -182 371 -182 q 949 -124 817 -182 l 949 -157 q 624 -221 821 -221 m 583 194 q 653 218 619 194 l 721 604 q 661 626 699 626 q 567 531 607 626 q 526 301 526 435 q 583 194 526 194 z "},"A":{"ha":1008,"x_min":13,"x_max":996,"o":"m 283 24 l 283 0 l 13 0 l 13 24 l 119 92 l 422 1001 l 592 1001 l 911 81 l 996 24 l 996 0 l 521 0 l 521 24 l 613 61 l 522 329 l 226 329 l 149 90 l 283 24 m 369 761 l 238 361 l 511 361 l 376 761 l 369 761 z "},"B":{"ha":982,"x_min":25,"x_max":944,"o":"m 944 274 q 546 0 944 7 l 25 0 l 25 24 l 121 43 l 121 960 l 28 978 l 28 1001 l 501 1001 q 901 756 901 1001 q 639 528 901 567 l 639 521 q 944 274 944 494 m 414 535 l 472 535 q 575 578 538 535 q 613 754 613 622 q 583 925 613 875 q 478 976 553 975 l 414 976 l 414 535 m 414 25 l 482 25 q 593 75 553 25 q 633 265 633 125 q 488 508 633 504 l 414 508 l 414 25 z "},"C":{"ha":896,"x_min":28,"x_max":851,"o":"m 564 7 q 614 19 594 7 l 828 343 l 851 343 l 840 36 q 544 -17 738 -17 q 161 114 294 -17 q 28 496 28 244 q 165 880 28 742 q 551 1018 303 1018 q 832 983 739 1018 l 842 679 l 818 679 l 614 983 q 560 994 586 994 q 396 883 453 994 q 339 515 339 771 q 393 125 339 243 q 564 7 447 7 z "},"D":{"ha":1029,"x_min":25,"x_max":1001,"o":"m 1001 517 q 865 139 1001 278 q 488 0 729 0 l 25 0 l 25 24 l 118 43 l 118 960 l 25 978 l 25 1001 l 483 1001 q 867 875 733 1001 q 1001 517 1001 749 m 481 25 q 638 128 597 25 q 679 497 679 231 q 660 786 679 682 q 599 933 640 890 q 469 976 557 976 l 411 976 l 411 25 l 481 25 z "},"E":{"ha":897,"x_min":25,"x_max":857,"o":"m 25 0 l 25 24 l 118 43 l 118 958 l 26 978 l 26 1001 l 831 1001 l 839 679 l 815 679 l 638 975 l 411 975 l 411 526 l 506 526 l 631 706 l 654 706 l 654 314 l 631 314 l 506 499 l 411 499 l 411 26 l 635 26 l 833 339 l 857 339 l 849 0 l 25 0 z "},"F":{"ha":869,"x_min":25,"x_max":842,"o":"m 25 0 l 25 24 l 118 43 l 118 957 l 26 978 l 26 1001 l 835 1001 l 842 676 l 818 676 l 638 975 l 411 975 l 411 504 l 522 504 l 649 689 l 672 689 l 672 290 l 649 290 l 522 476 l 411 476 l 411 42 l 519 24 l 519 0 l 25 0 z "},"G":{"ha":982,"x_min":28,"x_max":964,"o":"m 557 -18 q 160 113 292 -18 q 28 494 28 244 q 169 881 28 744 q 568 1018 311 1018 q 867 976 767 1018 l 878 679 l 854 679 l 649 979 q 574 994 621 994 q 407 885 468 994 q 346 514 346 776 q 391 120 346 235 q 551 6 436 6 q 631 26 601 6 l 631 444 l 539 461 l 539 485 l 964 485 l 964 461 l 892 444 l 892 39 q 557 -18 750 -18 z "},"H":{"ha":1092,"x_min":25,"x_max":1067,"o":"m 25 0 l 25 24 l 119 43 l 119 958 l 25 978 l 25 1001 l 493 1001 l 493 978 l 413 960 l 413 533 l 679 533 l 679 960 l 599 978 l 599 1001 l 1065 1001 l 1065 978 l 972 958 l 972 43 l 1067 24 l 1067 0 l 599 0 l 599 24 l 679 40 l 679 499 l 413 499 l 413 40 l 493 24 l 493 0 l 25 0 z "},"I":{"ha":533,"x_min":25,"x_max":508,"o":"m 25 0 l 25 24 l 119 43 l 119 958 l 25 978 l 25 1001 l 508 1001 l 508 978 l 413 958 l 413 43 l 508 24 l 508 0 l 25 0 z "},"J":{"ha":714,"x_min":3,"x_max":699,"o":"m 264 -14 q 11 18 90 -14 l 3 306 l 26 306 l 189 10 q 315 194 313 10 l 315 958 l 219 978 l 219 1001 l 699 1001 l 699 978 l 608 958 l 608 282 q 264 -14 601 -14 z "},"K":{"ha":1032,"x_min":25,"x_max":1024,"o":"m 413 960 l 413 506 l 800 915 l 671 978 l 671 1001 l 972 1001 l 972 978 l 842 918 l 610 672 l 983 40 l 1024 24 l 1024 0 l 685 0 l 413 478 l 413 42 l 506 24 l 506 0 l 25 0 l 25 24 l 119 44 l 119 957 l 25 978 l 25 1001 l 501 1001 l 501 978 l 413 960 z "},"L":{"ha":846,"x_min":25,"x_max":821,"o":"m 25 0 l 25 24 l 118 44 l 118 957 l 25 978 l 25 1001 l 511 1001 l 511 978 l 411 958 l 411 26 l 569 26 l 797 383 l 821 383 l 803 0 l 25 0 z "},"M":{"ha":1296,"x_min":25,"x_max":1272,"o":"m 25 0 l 25 24 l 147 93 l 147 943 l 25 978 l 25 1001 l 439 1001 l 672 285 l 678 285 l 892 1001 l 1272 1001 l 1272 978 l 1179 957 l 1179 44 l 1272 24 l 1272 0 l 813 0 l 813 24 l 893 43 l 893 886 l 886 886 l 626 0 l 483 0 l 182 886 l 175 886 l 175 92 l 304 24 l 304 0 l 25 0 z "},"N":{"ha":999,"x_min":25,"x_max":983,"o":"m 25 0 l 25 24 l 149 94 l 149 933 l 25 978 l 25 1001 l 442 1001 l 839 332 l 846 332 l 846 907 l 710 978 l 710 1001 l 983 1001 l 983 978 l 874 908 l 874 0 l 714 0 l 183 889 l 176 889 l 176 94 l 311 22 l 311 0 l 25 0 z "},"O":{"ha":1025,"x_min":28,"x_max":997,"o":"m 997 507 q 935 229 997 347 q 760 47 874 111 q 510 -17 647 -17 q 158 120 289 -17 q 28 496 28 257 q 90 773 28 654 q 265 955 151 892 q 517 1018 378 1018 q 867 882 738 1018 q 997 507 997 746 m 513 993 q 382 883 418 993 q 346 504 346 772 q 381 115 346 222 q 513 8 415 8 q 640 113 604 8 q 676 494 676 217 q 641 888 676 782 q 513 993 606 993 z "},"P":{"ha":919,"x_min":25,"x_max":901,"o":"m 901 694 q 805 458 901 542 q 525 375 708 375 q 413 388 472 375 l 413 43 l 524 24 l 524 0 l 25 0 l 25 24 l 119 44 l 119 957 l 25 978 l 25 1001 l 507 1001 q 808 922 714 1000 q 901 694 901 844 m 475 410 q 576 472 543 410 q 610 692 610 535 q 575 914 610 853 q 471 975 540 975 l 413 975 l 413 415 l 475 410 z "},"Q":{"ha":1024,"x_min":28,"x_max":1000,"o":"m 997 515 q 581 -8 997 81 l 581 -18 l 1000 7 l 946 -217 l 369 -4 l 278 39 q 28 496 28 171 q 90 773 28 654 q 265 955 151 892 q 517 1018 378 1018 q 865 884 733 1018 q 997 515 997 750 m 513 993 q 382 883 418 993 q 346 504 346 772 q 381 115 346 222 q 513 7 415 7 q 640 112 604 7 q 676 494 676 217 q 641 888 676 782 q 513 993 606 993 z "},"R":{"ha":1008,"x_min":26,"x_max":1008,"o":"m 908 725 q 858 578 908 640 q 729 490 808 517 l 729 483 l 961 51 l 1008 24 l 1008 0 l 682 0 l 460 450 l 415 450 l 415 42 l 500 24 l 500 0 l 26 0 l 26 24 l 122 44 l 122 954 l 28 978 l 28 1001 l 557 1001 q 908 725 908 993 m 460 481 q 580 536 542 481 q 618 726 618 592 q 580 921 618 867 q 463 975 542 975 l 415 975 l 415 481 l 460 481 z "},"S":{"ha":793,"x_min":44,"x_max":760,"o":"m 363 -17 q 58 33 174 -17 l 44 308 l 68 308 l 286 21 q 358 8 326 8 q 542 171 542 8 q 495 291 542 246 q 343 375 449 336 l 289 397 q 112 517 172 446 q 51 708 51 589 q 147 938 51 857 q 419 1019 242 1019 q 689 979 564 1019 l 704 721 l 681 721 l 479 985 q 419 996 451 996 q 294 953 336 996 q 253 840 253 910 q 292 733 253 775 q 426 658 331 692 l 569 600 q 718 485 676 551 q 760 317 760 419 q 654 70 760 157 q 363 -17 549 -17 z "},"T":{"ha":915,"x_min":14,"x_max":899,"o":"m 208 0 l 208 24 l 311 44 l 311 975 l 232 975 l 38 654 l 14 654 l 26 1001 l 888 1001 l 899 654 l 875 654 l 686 975 l 604 975 l 604 44 l 707 24 l 707 0 l 208 0 z "},"U":{"ha":974,"x_min":14,"x_max":960,"o":"m 510 -19 q 100 335 100 -19 l 100 958 l 14 978 l 14 1001 l 482 1001 l 482 978 l 393 960 l 393 335 q 449 140 393 194 q 618 85 506 85 q 786 142 733 85 q 839 339 839 199 l 839 918 l 721 978 l 721 1001 l 960 1001 l 960 978 l 867 917 l 867 343 q 774 72 867 163 q 510 -19 682 -19 z "},"V":{"ha":975,"x_min":8,"x_max":967,"o":"m 426 0 l 75 940 l 8 978 l 8 1001 l 479 1001 l 479 978 l 382 943 l 621 250 l 628 250 l 831 911 l 703 978 l 703 1001 l 967 1001 l 967 978 l 860 908 l 582 0 l 426 0 z "},"W":{"ha":1383,"x_min":11,"x_max":1372,"o":"m 336 0 l 83 929 l 11 978 l 11 1001 l 451 1001 l 451 978 l 367 936 l 526 301 l 535 301 l 707 1001 l 863 1001 l 1078 286 l 1088 286 l 1233 911 l 1100 978 l 1100 1001 l 1372 1001 l 1372 978 l 1263 908 l 1049 0 l 893 0 l 676 718 l 667 718 l 492 0 l 336 0 z "},"X":{"ha":999,"x_min":21,"x_max":979,"o":"m 310 24 l 310 0 l 21 0 l 21 24 l 151 90 l 382 419 l 99 940 l 28 978 l 28 1001 l 514 1001 l 514 978 l 442 946 l 606 619 l 803 913 l 693 978 l 693 1001 l 967 1001 l 967 978 l 838 914 l 621 592 l 910 58 l 979 24 l 979 0 l 494 0 l 494 25 l 572 56 l 396 392 l 188 90 l 310 24 z "},"Y":{"ha":928,"x_min":7,"x_max":922,"o":"m 224 0 l 224 24 l 326 44 l 326 411 l 71 944 l 7 978 l 7 1001 l 447 1001 l 447 978 l 371 946 l 600 460 l 607 460 l 786 911 l 658 978 l 658 1001 l 922 1001 l 922 978 l 814 910 l 619 419 l 619 44 l 718 24 l 718 0 l 224 0 z "},"Z":{"ha":871,"x_min":24,"x_max":846,"o":"m 24 0 l 24 24 l 535 975 l 274 975 l 79 653 l 56 653 l 72 1001 l 842 1001 l 842 978 l 331 26 l 621 26 l 822 371 l 846 371 l 826 0 l 24 0 z "},"[":{"ha":464,"x_min":72,"x_max":433,"o":"m 72 -171 l 72 1075 l 433 1075 l 433 1051 l 285 1029 l 285 -126 l 433 -147 l 433 -171 l 72 -171 z "},"\\":{"ha":403,"x_min":1,"x_max":424,"o":"m 424 -189 l 389 -189 l 1 1093 l 36 1093 l 424 -189 z "},"]":{"ha":467,"x_min":31,"x_max":393,"o":"m 31 -171 l 31 -147 l 182 -126 l 182 1029 l 31 1051 l 31 1075 l 393 1075 l 393 -171 l 31 -171 z "},"^":{"ha":631,"x_min":28,"x_max":603,"o":"m 28 628 l 300 1001 l 328 1001 l 603 628 l 575 628 l 315 771 l 56 628 l 28 628 z "},"_":{"ha":488,"x_min":-3,"x_max":490,"o":"m -3 -86 l -3 -44 l 490 -44 l 490 -86 l -3 -86 z "},"`":{"ha":694,"x_min":124,"x_max":507,"o":"m 494 833 l 124 951 l 254 1143 l 507 853 l 494 833 z "},"a":{"ha":774,"x_min":22,"x_max":758,"o":"m 429 447 l 429 549 q 402 708 429 664 q 311 753 375 753 l 283 750 l 96 496 l 72 496 l 78 732 q 360 779 231 779 q 599 729 513 779 q 685 550 685 679 l 685 56 l 758 36 l 758 17 q 607 -18 703 -18 q 435 71 471 -18 l 428 71 q 228 -21 360 -21 q 79 34 136 -21 q 22 188 22 89 q 235 410 22 361 l 429 447 m 365 79 q 429 106 408 79 l 429 411 l 378 407 q 293 360 318 401 q 268 235 268 319 q 365 79 268 79 z "},"b":{"ha":836,"x_min":-14,"x_max":808,"o":"m 546 779 q 741 681 674 779 q 808 403 808 583 q 701 88 808 194 q 394 -19 593 -19 q 71 47 183 -19 l 71 997 l -14 1029 l -14 1053 l 289 1097 l 319 1093 l 319 683 l 328 683 q 413 748 357 717 q 546 779 469 779 m 404 7 q 505 88 468 7 q 542 378 542 169 q 506 610 542 547 q 406 674 469 674 q 325 657 365 674 l 325 36 q 404 7 354 7 z "},"c":{"ha":724,"x_min":28,"x_max":678,"o":"m 399 -18 q 124 90 221 -18 q 28 383 28 197 q 137 672 28 565 q 431 779 246 779 q 671 754 590 779 l 675 497 l 651 497 l 465 751 l 450 753 q 325 669 369 753 q 281 432 281 586 q 339 188 281 271 q 526 106 397 106 q 678 135 614 106 l 678 111 q 399 -18 583 -18 z "},"d":{"ha":858,"x_min":28,"x_max":849,"o":"m 381 776 q 511 753 467 776 l 511 1000 l 428 1029 l 428 1053 l 735 1097 l 764 1093 l 764 68 l 849 42 l 849 18 l 539 -17 l 515 -14 l 515 72 l 508 72 q 314 -19 424 -19 q 109 76 190 -19 q 28 365 28 172 q 125 672 28 568 q 381 776 222 776 m 440 88 q 511 104 485 88 l 511 719 q 429 738 475 738 q 294 396 294 738 q 331 159 294 231 q 440 88 368 88 z "},"e":{"ha":771,"x_min":25,"x_max":736,"o":"m 736 407 l 281 407 q 344 185 288 267 q 544 104 400 104 q 714 135 643 104 l 714 113 q 604 22 682 64 q 414 -21 526 -21 q 124 88 222 -21 q 25 383 25 197 q 127 672 25 565 q 403 778 229 778 q 657 688 578 778 q 736 407 736 597 m 397 751 q 281 435 281 751 l 496 444 q 472 687 496 622 q 397 751 447 751 z "},"f":{"ha":518,"x_min":18,"x_max":592,"o":"m 357 46 l 456 24 l 456 0 l 22 0 l 22 24 l 103 46 l 103 708 l 18 708 l 18 733 l 103 761 l 103 840 q 181 1030 103 961 q 404 1099 258 1099 q 588 1085 497 1099 l 592 858 l 568 858 l 433 1072 q 375 1035 393 1072 q 357 899 357 999 l 357 761 l 497 761 l 497 708 l 357 708 l 357 46 z "},"g":{"ha":797,"x_min":-1,"x_max":788,"o":"m 367 -311 q 92 -279 185 -311 q -1 -172 -1 -247 q 181 -61 -1 -93 l 181 -54 q 50 85 50 -19 q 95 192 50 146 q 215 261 140 239 l 215 268 q 93 363 140 299 q 46 510 46 428 q 137 709 46 639 q 374 779 228 779 q 524 753 440 779 l 768 783 l 768 658 l 592 714 l 592 706 q 701 503 701 629 q 610 308 701 375 q 374 242 518 242 q 246 257 322 242 q 222 204 222 233 q 283 154 222 154 l 536 154 q 725 113 663 154 q 788 -32 788 71 q 682 -232 788 -153 q 367 -311 576 -311 m 464 506 q 440 701 464 649 q 374 753 417 753 q 308 701 331 753 q 285 504 285 649 q 308 319 285 369 q 374 268 331 268 q 464 506 464 268 m 371 -285 q 545 -244 488 -285 q 603 -136 603 -203 q 524 -64 603 -67 l 213 -64 q 192 -150 192 -103 q 371 -285 192 -285 z "},"h":{"ha":900,"x_min":18,"x_max":888,"o":"m 22 24 l 101 46 l 101 996 l 18 1029 l 18 1053 l 319 1097 l 351 1093 l 351 675 l 360 675 q 478 752 408 725 q 618 779 547 779 q 763 731 717 779 q 808 578 808 682 l 808 46 l 888 24 l 888 0 l 485 0 l 485 24 l 556 42 l 556 564 q 457 672 556 672 q 356 647 406 672 l 356 42 l 425 24 l 425 0 l 22 0 l 22 24 z "},"i":{"ha":454,"x_min":18,"x_max":435,"o":"m 224 1086 q 318 1049 278 1086 q 358 956 358 1011 q 318 863 358 900 q 224 826 278 826 q 129 863 168 826 q 90 956 90 900 q 129 1049 90 1011 q 224 1086 168 1086 m 18 731 l 322 775 l 357 772 l 357 46 l 435 24 l 435 0 l 24 0 l 24 24 l 103 46 l 103 674 l 18 707 l 18 731 z "},"j":{"ha":429,"x_min":-112,"x_max":358,"o":"m 224 1086 q 318 1049 278 1086 q 358 956 358 1011 q 318 863 358 900 q 224 826 278 826 q 129 863 168 826 q 90 956 90 900 q 129 1049 90 1011 q 224 1086 168 1086 m 103 674 l 18 707 l 18 731 l 322 775 l 357 772 l 357 8 q 280 -220 357 -137 q 44 -303 203 -303 q -108 -283 -47 -303 l -112 -86 l -89 -86 l 24 -279 q 103 -140 101 -276 l 103 674 z "},"k":{"ha":888,"x_min":18,"x_max":894,"o":"m 356 1093 l 356 392 l 664 675 l 546 738 l 546 761 l 836 761 l 836 738 l 706 678 l 540 521 l 828 49 l 894 24 l 894 0 l 563 0 l 356 364 l 356 47 l 431 25 l 431 0 l 22 0 l 22 24 l 101 46 l 101 997 l 18 1029 l 18 1053 l 319 1097 l 356 1093 z "},"l":{"ha":450,"x_min":18,"x_max":436,"o":"m 18 1053 l 326 1097 l 357 1093 l 357 46 l 436 24 l 436 0 l 24 0 l 24 24 l 103 46 l 103 997 l 18 1029 l 18 1053 z "},"m":{"ha":1301,"x_min":18,"x_max":1288,"o":"m 22 24 l 101 44 l 101 674 l 18 707 l 18 731 l 319 775 l 350 772 l 350 672 l 358 672 q 594 779 463 779 q 765 671 725 779 l 771 671 q 1014 779 879 779 q 1207 579 1206 779 l 1207 44 l 1288 24 l 1288 0 l 896 0 l 896 24 l 958 44 l 958 572 q 864 669 958 669 q 778 646 822 669 l 778 44 l 840 24 l 840 0 l 471 0 l 471 24 l 535 44 l 535 572 q 442 669 535 669 q 354 644 400 669 l 354 44 l 415 24 l 415 0 l 22 0 l 22 24 z "},"n":{"ha":901,"x_min":18,"x_max":888,"o":"m 22 24 l 101 46 l 101 674 l 18 707 l 18 731 l 321 775 l 351 772 l 351 675 l 360 675 q 478 752 408 725 q 618 779 547 779 q 763 731 717 779 q 808 578 808 682 l 808 46 l 888 24 l 888 0 l 485 0 l 485 24 l 556 42 l 556 564 q 457 672 556 672 q 356 647 406 672 l 356 42 l 425 24 l 425 0 l 22 0 l 22 24 z "},"o":{"ha":822,"x_min":21,"x_max":801,"o":"m 411 -21 q 324 -21 411 -21 q 128 89 236 -21 q 21 383 21 199 q 128 674 21 568 q 410 779 236 779 q 694 672 586 779 q 801 382 801 565 q 694 88 801 196 q 411 -21 586 -21 m 411 754 q 332 700 357 754 q 294 382 294 619 q 320 93 294 182 q 413 4 346 4 q 503 94 478 4 q 528 383 528 185 q 496 690 528 611 q 411 754 471 754 z "},"p":{"ha":863,"x_min":14,"x_max":833,"o":"m 833 403 q 739 92 833 203 q 479 -18 644 -18 q 351 -1 401 -18 l 351 -254 l 442 -274 l 442 -297 l 18 -297 l 18 -274 l 97 -254 l 97 674 l 14 707 l 14 731 l 321 775 l 350 772 l 350 685 l 358 685 q 572 779 438 779 q 766 683 699 779 q 833 403 833 588 m 568 375 q 532 611 568 549 q 432 674 496 674 q 351 658 393 674 l 351 44 q 428 18 389 18 q 531 97 493 18 q 568 375 568 176 z "},"q":{"ha":840,"x_min":28,"x_max":846,"o":"m 304 -18 q 101 83 175 -18 q 28 364 28 183 q 132 675 28 569 q 438 781 236 781 q 764 718 646 781 l 764 -254 l 846 -274 l 846 -297 l 422 -297 l 422 -274 l 517 -254 l 517 72 l 508 72 q 304 -18 425 -18 m 429 754 q 294 397 294 754 q 331 153 294 219 q 431 88 367 88 q 511 104 478 88 l 511 733 q 429 754 482 754 z "},"r":{"ha":596,"x_min":18,"x_max":583,"o":"m 18 731 l 325 775 l 350 772 l 350 556 l 357 556 q 546 783 411 783 q 583 778 572 783 l 583 549 q 521 554 564 554 q 356 529 415 554 l 356 44 l 458 24 l 458 0 l 22 0 l 22 24 l 101 44 l 101 674 l 18 707 l 18 731 z "},"s":{"ha":644,"x_min":35,"x_max":615,"o":"m 615 233 q 535 49 615 117 q 303 -18 454 -18 q 43 21 147 -18 l 35 246 l 58 246 l 257 14 l 299 7 q 422 124 422 7 q 392 199 422 172 q 258 272 361 225 q 95 378 154 318 q 36 533 36 438 q 114 715 36 650 q 331 781 192 781 q 554 756 469 781 l 561 546 l 538 546 l 386 749 q 338 757 361 757 q 229 651 229 757 q 259 573 229 599 q 394 500 289 547 q 557 396 499 453 q 615 233 615 339 z "},"t":{"ha":575,"x_min":10,"x_max":547,"o":"m 118 708 l 10 708 l 10 733 l 118 761 l 118 911 l 371 951 l 371 761 l 539 761 l 539 708 l 371 708 l 371 203 q 393 119 371 144 q 478 93 415 93 q 547 100 517 93 l 547 76 q 336 -15 460 -15 q 118 197 125 -15 l 118 708 z "},"u":{"ha":893,"x_min":8,"x_max":871,"o":"m 92 674 l 8 707 l 8 731 l 313 775 l 346 772 l 346 183 q 443 89 350 89 q 538 111 486 89 l 538 674 l 454 707 l 454 731 l 758 775 l 789 772 l 789 88 l 871 54 l 871 31 l 571 -17 l 540 -14 l 540 83 l 532 83 q 304 -19 429 -19 q 92 211 92 -19 l 92 674 z "},"v":{"ha":810,"x_min":6,"x_max":803,"o":"m 803 738 l 715 681 l 490 0 l 338 0 l 69 703 l 6 738 l 6 761 l 435 761 l 435 738 l 347 704 l 524 208 l 531 208 l 689 681 l 582 738 l 582 761 l 803 761 l 803 738 z "},"w":{"ha":1157,"x_min":6,"x_max":1150,"o":"m 740 761 l 910 238 l 919 238 l 1035 681 l 928 738 l 928 761 l 1150 761 l 1150 738 l 1061 679 l 885 0 l 731 0 l 574 515 l 568 515 l 435 0 l 282 0 l 78 699 l 6 738 l 6 761 l 413 761 l 413 738 l 346 711 l 463 249 l 472 249 l 601 761 l 740 761 z "},"x":{"ha":799,"x_min":15,"x_max":785,"o":"m 269 24 l 269 0 l 15 0 l 15 24 l 128 76 l 293 301 l 86 696 l 18 738 l 18 761 l 442 761 l 442 738 l 383 711 l 494 483 l 633 683 l 549 738 l 549 761 l 775 761 l 775 738 l 665 683 l 508 457 l 719 61 l 785 24 l 785 0 l 365 0 l 365 24 l 424 51 l 307 275 l 164 78 l 269 24 z "},"y":{"ha":810,"x_min":6,"x_max":804,"o":"m 203 -315 l 121 -165 l 121 -144 l 415 -144 l 72 706 l 6 738 l 6 761 l 433 761 l 433 738 l 347 701 l 532 194 l 692 678 l 583 738 l 583 761 l 804 761 l 804 738 l 721 682 l 468 -71 q 203 -315 397 -274 z "},"z":{"ha":701,"x_min":19,"x_max":674,"o":"m 19 0 l 19 26 l 396 735 l 238 735 l 88 485 l 64 485 l 72 761 l 674 761 l 674 735 l 299 26 l 485 26 l 647 290 l 671 290 l 660 0 l 19 0 z "},"{":{"ha":517,"x_min":47,"x_max":486,"o":"m 486 -171 q 215 -113 290 -165 q 140 35 140 -61 q 169 190 140 81 q 199 326 199 299 q 169 399 199 371 q 47 442 139 426 l 47 465 q 169 508 139 481 q 199 581 199 535 q 169 717 199 608 q 140 872 140 826 q 215 1019 140 968 q 486 1076 290 1071 l 486 1053 q 393 1015 417 1042 q 369 943 369 988 l 389 624 q 326 515 389 553 q 124 457 264 478 l 124 450 q 326 390 264 429 q 389 281 389 351 l 369 -37 q 393 -110 369 -82 q 486 -149 417 -139 l 486 -171 z "},"|":{"ha":199,"x_min":82,"x_max":117,"o":"m 82 -187 l 82 1093 l 117 1093 l 117 -187 l 82 -187 z "},"}":{"ha":517,"x_min":31,"x_max":469,"o":"m 31 1076 q 301 1019 226 1071 q 376 871 376 967 q 347 716 376 825 q 318 579 318 607 q 348 507 318 535 q 469 464 378 479 l 469 440 q 348 398 378 425 q 318 325 318 371 q 347 188 318 297 q 376 33 376 79 q 301 -114 376 -62 q 31 -171 226 -165 l 31 -147 q 124 -109 100 -136 q 147 -37 147 -82 l 128 282 q 190 390 128 353 q 393 449 253 428 l 393 456 q 190 515 253 476 q 128 625 128 554 l 147 943 q 124 1016 147 988 q 31 1054 100 1044 l 31 1076 z "},"~":{"ha":665,"x_min":25,"x_max":639,"o":"m 46 338 l 25 346 q 106 526 58 463 q 232 589 154 589 q 381 558 281 589 q 513 526 482 526 q 617 582 583 526 l 639 574 q 431 329 575 329 q 278 363 382 329 q 143 396 175 396 q 46 338 88 396 z "},"Ä":{"ha":1008,"x_min":13,"x_max":996,"o":"m 283 24 l 283 0 l 13 0 l 13 24 l 119 92 l 422 1001 l 592 1001 l 911 81 l 996 24 l 996 0 l 521 0 l 521 24 l 613 61 l 522 329 l 226 329 l 149 90 l 283 24 m 369 761 l 238 361 l 511 361 l 376 761 l 369 761 m 654 1061 q 630 1061 654 1061 q 572 1094 606 1061 q 539 1175 539 1128 q 572 1255 539 1222 q 654 1288 606 1288 q 737 1255 703 1288 q 771 1175 771 1222 q 737 1094 771 1128 q 654 1061 703 1061 m 347 1061 q 263 1094 297 1061 q 229 1175 229 1128 q 263 1255 229 1222 q 347 1288 297 1288 q 428 1255 396 1288 q 461 1175 461 1222 q 428 1094 461 1128 q 347 1061 396 1061 z "},"Å":{"ha":1008,"x_min":13,"x_max":996,"o":"m 283 24 l 283 0 l 13 0 l 13 24 l 119 92 l 422 1001 l 592 1001 l 911 81 l 996 24 l 996 0 l 521 0 l 521 24 l 613 61 l 522 329 l 226 329 l 149 90 l 283 24 m 369 761 l 238 361 l 511 361 l 376 761 l 369 761 m 508 1044 q 476 1044 508 1044 q 401 1082 443 1044 q 360 1182 360 1119 q 401 1281 360 1242 q 508 1319 443 1319 q 615 1281 574 1319 q 657 1182 657 1242 q 615 1082 657 1119 q 508 1044 574 1044 m 508 1068 q 551 1182 551 1068 q 508 1296 551 1296 q 465 1182 465 1296 q 475 1093 465 1118 q 508 1068 485 1068 z "},"Ç":{"ha":896,"x_min":28,"x_max":851,"o":"m 564 7 q 614 19 594 7 l 828 343 l 851 343 l 840 36 q 544 -17 738 -17 q 161 114 294 -17 q 28 496 28 244 q 165 880 28 742 q 551 1018 303 1018 q 832 983 739 1018 l 842 679 l 818 679 l 614 983 q 560 994 586 994 q 396 883 453 994 q 339 515 339 771 q 393 125 339 243 q 564 7 447 7 m 372 -290 l 372 -267 q 449 -283 406 -283 q 539 -203 539 -283 q 467 -133 539 -133 l 456 -135 l 471 0 l 504 0 l 493 -96 q 565 -85 529 -85 q 656 -115 624 -85 q 688 -196 688 -144 q 643 -295 688 -258 q 517 -332 599 -332 q 372 -290 426 -332 z "},"É":{"ha":897,"x_min":25,"x_max":857,"o":"m 25 0 l 25 24 l 118 43 l 118 958 l 26 978 l 26 1001 l 831 1001 l 839 679 l 815 679 l 638 975 l 411 975 l 411 526 l 506 526 l 631 706 l 654 706 l 654 314 l 631 314 l 506 499 l 411 499 l 411 26 l 635 26 l 833 339 l 857 339 l 849 0 l 25 0 m 350 1060 l 338 1079 l 589 1371 l 719 1179 l 350 1060 z "},"Ñ":{"ha":999,"x_min":25,"x_max":983,"o":"m 25 0 l 25 24 l 149 94 l 149 933 l 25 978 l 25 1001 l 442 1001 l 839 332 l 846 332 l 846 907 l 710 978 l 710 1001 l 983 1001 l 983 978 l 874 908 l 874 0 l 714 0 l 183 889 l 176 889 l 176 94 l 311 22 l 311 0 l 25 0 m 333 1065 l 311 1071 q 469 1286 358 1286 q 586 1260 514 1286 q 692 1233 665 1233 q 788 1294 744 1233 l 810 1289 q 653 1069 758 1069 q 537 1096 611 1069 q 422 1122 463 1122 q 333 1065 374 1122 z "},"Ö":{"ha":1025,"x_min":28,"x_max":997,"o":"m 997 507 q 935 229 997 347 q 760 47 874 111 q 510 -17 647 -17 q 158 120 289 -17 q 28 496 28 257 q 90 773 28 654 q 265 955 151 892 q 517 1018 378 1018 q 867 882 738 1018 q 997 507 997 746 m 513 993 q 382 883 418 993 q 346 504 346 772 q 381 115 346 222 q 513 8 415 8 q 640 113 604 8 q 676 494 676 217 q 641 888 676 782 q 513 993 606 993 m 663 1078 q 638 1078 663 1078 q 581 1111 614 1078 q 547 1192 547 1144 q 581 1272 547 1239 q 663 1304 614 1304 q 745 1272 711 1304 q 779 1192 779 1239 q 745 1111 779 1144 q 663 1078 711 1078 m 356 1078 q 272 1111 306 1078 q 238 1192 238 1144 q 272 1272 238 1239 q 356 1304 306 1304 q 437 1272 404 1304 q 469 1192 469 1239 q 437 1111 469 1144 q 356 1078 404 1078 z "},"Ü":{"ha":974,"x_min":14,"x_max":960,"o":"m 510 -19 q 100 335 100 -19 l 100 958 l 14 978 l 14 1001 l 482 1001 l 482 978 l 393 960 l 393 335 q 449 140 393 194 q 618 85 506 85 q 786 142 733 85 q 839 339 839 199 l 839 918 l 721 978 l 721 1001 l 960 1001 l 960 978 l 867 917 l 867 343 q 774 72 867 163 q 510 -19 682 -19 m 724 1061 q 699 1061 724 1061 q 642 1094 675 1061 q 608 1175 608 1128 q 642 1255 608 1222 q 724 1288 675 1288 q 806 1255 772 1288 q 840 1175 840 1222 q 806 1094 840 1128 q 724 1061 772 1061 m 417 1061 q 333 1094 367 1061 q 299 1175 299 1128 q 333 1255 299 1222 q 417 1288 367 1288 q 498 1255 465 1288 q 531 1175 531 1222 q 498 1094 531 1128 q 417 1061 465 1061 z "},"á":{"ha":774,"x_min":22,"x_max":758,"o":"m 429 447 l 429 549 q 402 708 429 664 q 311 753 375 753 l 283 750 l 96 496 l 72 496 l 78 732 q 360 779 231 779 q 599 729 513 779 q 685 550 685 679 l 685 56 l 758 36 l 758 17 q 607 -18 703 -18 q 435 71 471 -18 l 428 71 q 228 -21 360 -21 q 79 34 136 -21 q 22 188 22 89 q 235 410 22 361 l 429 447 m 365 79 q 429 106 408 79 l 429 411 l 378 407 q 293 360 318 401 q 268 235 268 319 q 365 79 268 79 m 232 832 l 219 851 l 471 1143 l 601 951 l 232 832 z "},"à":{"ha":774,"x_min":22,"x_max":758,"o":"m 429 447 l 429 549 q 402 708 429 664 q 311 753 375 753 l 283 750 l 96 496 l 72 496 l 78 732 q 360 779 231 779 q 599 729 513 779 q 685 550 685 679 l 685 56 l 758 36 l 758 17 q 607 -18 703 -18 q 435 71 471 -18 l 428 71 q 228 -21 360 -21 q 79 34 136 -21 q 22 188 22 89 q 235 410 22 361 l 429 447 m 365 79 q 429 106 408 79 l 429 411 l 378 407 q 293 360 318 401 q 268 235 268 319 q 365 79 268 79 m 542 833 l 171 951 l 301 1143 l 554 853 l 542 833 z "},"â":{"ha":774,"x_min":22,"x_max":758,"o":"m 429 447 l 429 549 q 402 708 429 664 q 311 753 375 753 l 283 750 l 96 496 l 72 496 l 78 732 q 360 779 231 779 q 599 729 513 779 q 685 550 685 679 l 685 56 l 758 36 l 758 17 q 607 -18 703 -18 q 435 71 471 -18 l 428 71 q 228 -21 360 -21 q 79 34 136 -21 q 22 188 22 89 q 235 410 22 361 l 429 447 m 365 79 q 429 106 408 79 l 429 411 l 378 407 q 293 360 318 401 q 268 235 268 319 q 365 79 268 79 m 160 821 l 143 838 l 356 1104 l 394 1104 l 607 838 l 590 821 l 375 921 l 160 821 z "},"ä":{"ha":774,"x_min":22,"x_max":758,"o":"m 429 447 l 429 549 q 402 708 429 664 q 311 753 375 753 l 283 750 l 96 496 l 72 496 l 78 732 q 360 779 231 779 q 599 729 513 779 q 685 550 685 679 l 685 56 l 758 36 l 758 17 q 607 -18 703 -18 q 435 71 471 -18 l 428 71 q 228 -21 360 -21 q 79 34 136 -21 q 22 188 22 89 q 235 410 22 361 l 429 447 m 365 79 q 429 106 408 79 l 429 411 l 378 407 q 293 360 318 401 q 268 235 268 319 q 365 79 268 79 m 529 843 q 505 843 529 843 q 447 876 481 843 q 414 957 414 910 q 447 1037 414 1004 q 529 1069 481 1069 q 612 1037 578 1069 q 646 957 646 1004 q 612 876 646 910 q 529 843 578 843 m 222 843 q 138 876 172 843 q 104 957 104 910 q 138 1037 104 1004 q 222 1069 172 1069 q 303 1037 271 1069 q 336 957 336 1004 q 303 876 336 910 q 222 843 271 843 z "},"ã":{"ha":774,"x_min":22,"x_max":758,"o":"m 429 447 l 429 549 q 402 708 429 664 q 311 753 375 753 l 283 750 l 96 496 l 72 496 l 78 732 q 360 779 231 779 q 599 729 513 779 q 685 550 685 679 l 685 56 l 758 36 l 758 17 q 607 -18 703 -18 q 435 71 471 -18 l 428 71 q 228 -21 360 -21 q 79 34 136 -21 q 22 188 22 89 q 235 410 22 361 l 429 447 m 365 79 q 429 106 408 79 l 429 411 l 378 407 q 293 360 318 401 q 268 235 268 319 q 365 79 268 79 m 147 846 l 125 851 q 283 1067 172 1067 q 400 1040 328 1067 q 506 1014 479 1014 q 601 1075 558 1014 l 624 1069 q 467 850 572 850 q 351 876 425 850 q 236 903 276 903 q 147 846 188 903 z "},"å":{"ha":774,"x_min":22,"x_max":758,"o":"m 429 447 l 429 549 q 402 708 429 664 q 311 753 375 753 l 283 750 l 96 496 l 72 496 l 78 732 q 360 779 231 779 q 599 729 513 779 q 685 550 685 679 l 685 56 l 758 36 l 758 17 q 607 -18 703 -18 q 435 71 471 -18 l 428 71 q 228 -21 360 -21 q 79 34 136 -21 q 22 188 22 89 q 235 410 22 361 l 429 447 m 365 79 q 429 106 408 79 l 429 411 l 378 407 q 293 360 318 401 q 268 235 268 319 q 365 79 268 79 m 378 824 q 345 824 378 824 q 271 861 313 824 q 229 961 229 899 q 271 1060 229 1021 q 378 1099 313 1099 q 485 1060 443 1099 q 526 961 526 1021 q 485 861 526 899 q 378 824 443 824 m 378 847 q 421 961 421 847 q 378 1075 421 1075 q 335 961 335 1075 q 344 872 335 897 q 378 847 354 847 z "},"ç":{"ha":724,"x_min":28,"x_max":678,"o":"m 399 -18 q 124 90 221 -18 q 28 383 28 197 q 137 672 28 565 q 431 779 246 779 q 671 754 590 779 l 675 497 l 651 497 l 465 751 l 450 753 q 325 669 369 753 q 281 432 281 586 q 339 188 281 271 q 526 106 397 106 q 678 135 614 106 l 678 111 q 399 -18 583 -18 m 257 -290 l 257 -267 q 333 -283 290 -283 q 424 -203 424 -283 q 351 -133 424 -133 l 340 -135 l 356 0 l 389 0 l 378 -96 q 450 -85 414 -85 q 540 -115 508 -85 q 572 -196 572 -144 q 528 -295 572 -258 q 401 -332 483 -332 q 257 -290 311 -332 z "},"é":{"ha":771,"x_min":25,"x_max":736,"o":"m 736 407 l 281 407 q 344 185 288 267 q 544 104 400 104 q 714 135 643 104 l 714 113 q 604 22 682 64 q 414 -21 526 -21 q 124 88 222 -21 q 25 383 25 197 q 127 672 25 565 q 403 778 229 778 q 657 688 578 778 q 736 407 736 597 m 397 751 q 281 435 281 751 l 496 444 q 472 687 496 622 q 397 751 447 751 m 271 832 l 258 851 l 510 1143 l 640 951 l 271 832 z "},"è":{"ha":771,"x_min":25,"x_max":736,"o":"m 736 407 l 281 407 q 344 185 288 267 q 544 104 400 104 q 714 135 643 104 l 714 113 q 604 22 682 64 q 414 -21 526 -21 q 124 88 222 -21 q 25 383 25 197 q 127 672 25 565 q 403 778 229 778 q 657 688 578 778 q 736 407 736 597 m 397 751 q 281 435 281 751 l 496 444 q 472 687 496 622 q 397 751 447 751 m 549 833 l 178 951 l 308 1143 l 561 853 l 549 833 z "},"ê":{"ha":771,"x_min":25,"x_max":736,"o":"m 736 407 l 281 407 q 344 185 288 267 q 544 104 400 104 q 714 135 643 104 l 714 113 q 604 22 682 64 q 414 -21 526 -21 q 124 88 222 -21 q 25 383 25 197 q 127 672 25 565 q 403 778 229 778 q 657 688 578 778 q 736 407 736 597 m 397 751 q 281 435 281 751 l 496 444 q 472 687 496 622 q 397 751 447 751 m 176 821 l 160 838 l 372 1104 l 411 1104 l 624 838 l 607 821 l 392 921 l 176 821 z "},"ë":{"ha":771,"x_min":25,"x_max":736,"o":"m 736 407 l 281 407 q 344 185 288 267 q 544 104 400 104 q 714 135 643 104 l 714 113 q 604 22 682 64 q 414 -21 526 -21 q 124 88 222 -21 q 25 383 25 197 q 127 672 25 565 q 403 778 229 778 q 657 688 578 778 q 736 407 736 597 m 397 751 q 281 435 281 751 l 496 444 q 472 687 496 622 q 397 751 447 751 m 546 843 q 522 843 546 843 q 464 876 497 843 q 431 957 431 910 q 464 1037 431 1004 q 546 1069 497 1069 q 628 1037 594 1069 q 663 957 663 1004 q 628 876 663 910 q 546 843 594 843 m 239 843 q 155 876 189 843 q 121 957 121 910 q 155 1037 121 1004 q 239 1069 189 1069 q 320 1037 288 1069 q 353 957 353 1004 q 320 876 353 910 q 239 843 288 843 z "},"í":{"ha":454,"x_min":18,"x_max":469,"o":"m 18 731 l 322 775 l 357 772 l 357 46 l 435 24 l 435 0 l 24 0 l 24 24 l 103 46 l 103 674 l 18 707 l 18 731 m 100 832 l 88 851 l 339 1143 l 469 951 l 100 832 z "},"ì":{"ha":454,"x_min":-4,"x_max":435,"o":"m 18 731 l 322 775 l 357 772 l 357 46 l 435 24 l 435 0 l 24 0 l 24 24 l 103 46 l 103 674 l 18 707 l 18 731 m 367 833 l -4 951 l 126 1143 l 379 853 l 367 833 z "},"î":{"ha":454,"x_min":-4,"x_max":460,"o":"m 18 731 l 322 775 l 357 772 l 357 46 l 435 24 l 435 0 l 24 0 l 24 24 l 103 46 l 103 674 l 18 707 l 18 731 m 13 821 l -4 838 l 208 1104 l 247 1104 l 460 838 l 443 821 l 228 921 l 13 821 z "},"ï":{"ha":454,"x_min":-43,"x_max":499,"o":"m 18 731 l 322 775 l 357 772 l 357 46 l 435 24 l 435 0 l 24 0 l 24 24 l 103 46 l 103 674 l 18 707 l 18 731 m 382 843 q 358 843 382 843 q 300 876 333 843 q 267 957 267 910 q 300 1037 267 1004 q 382 1069 333 1069 q 465 1037 431 1069 q 499 957 499 1004 q 465 876 499 910 q 382 843 431 843 m 75 843 q -9 876 25 843 q -43 957 -43 910 q -9 1037 -43 1004 q 75 1069 25 1069 q 156 1037 124 1069 q 189 957 189 1004 q 156 876 189 910 q 75 843 124 843 z "},"ñ":{"ha":901,"x_min":18,"x_max":888,"o":"m 22 24 l 101 46 l 101 674 l 18 707 l 18 731 l 321 775 l 351 772 l 351 675 l 360 675 q 478 752 408 725 q 618 779 547 779 q 763 731 717 779 q 808 578 808 682 l 808 46 l 888 24 l 888 0 l 485 0 l 485 24 l 556 42 l 556 564 q 457 672 556 672 q 356 647 406 672 l 356 42 l 425 24 l 425 0 l 22 0 l 22 24 m 225 846 l 203 851 q 361 1067 250 1067 q 478 1040 406 1067 q 583 1014 557 1014 q 679 1075 636 1014 l 701 1069 q 544 850 650 850 q 428 876 503 850 q 314 903 354 903 q 225 846 265 903 z "},"ó":{"ha":822,"x_min":21,"x_max":801,"o":"m 411 -21 q 324 -21 411 -21 q 128 89 236 -21 q 21 383 21 199 q 128 674 21 568 q 410 779 236 779 q 694 672 586 779 q 801 382 801 565 q 694 88 801 196 q 411 -21 586 -21 m 411 754 q 332 700 357 754 q 294 382 294 619 q 320 93 294 182 q 413 4 346 4 q 503 94 478 4 q 528 383 528 185 q 496 690 528 611 q 411 754 471 754 m 281 832 l 268 851 l 519 1143 l 650 951 l 281 832 z "},"ò":{"ha":822,"x_min":21,"x_max":801,"o":"m 411 -21 q 324 -21 411 -21 q 128 89 236 -21 q 21 383 21 199 q 128 674 21 568 q 410 779 236 779 q 694 672 586 779 q 801 382 801 565 q 694 88 801 196 q 411 -21 586 -21 m 411 754 q 332 700 357 754 q 294 382 294 619 q 320 93 294 182 q 413 4 346 4 q 503 94 478 4 q 528 383 528 185 q 496 690 528 611 q 411 754 471 754 m 561 833 l 190 951 l 321 1143 l 574 853 l 561 833 z "},"ô":{"ha":822,"x_min":21,"x_max":801,"o":"m 411 -21 q 324 -21 411 -21 q 128 89 236 -21 q 21 383 21 199 q 128 674 21 568 q 410 779 236 779 q 694 672 586 779 q 801 382 801 565 q 694 88 801 196 q 411 -21 586 -21 m 411 754 q 332 700 357 754 q 294 382 294 619 q 320 93 294 182 q 413 4 346 4 q 503 94 478 4 q 528 383 528 185 q 496 690 528 611 q 411 754 471 754 m 196 821 l 179 838 l 392 1104 l 431 1104 l 643 838 l 626 821 l 411 921 l 196 821 z "},"ö":{"ha":822,"x_min":21,"x_max":801,"o":"m 411 -21 q 324 -21 411 -21 q 128 89 236 -21 q 21 383 21 199 q 128 674 21 568 q 410 779 236 779 q 694 672 586 779 q 801 382 801 565 q 694 88 801 196 q 411 -21 586 -21 m 411 754 q 332 700 357 754 q 294 382 294 619 q 320 93 294 182 q 413 4 346 4 q 503 94 478 4 q 528 383 528 185 q 496 690 528 611 q 411 754 471 754 m 565 843 q 541 843 565 843 q 483 876 517 843 q 450 957 450 910 q 483 1037 450 1004 q 565 1069 517 1069 q 648 1037 614 1069 q 682 957 682 1004 q 648 876 682 910 q 565 843 614 843 m 258 843 q 174 876 208 843 q 140 957 140 910 q 174 1037 140 1004 q 258 1069 208 1069 q 340 1037 307 1069 q 372 957 372 1004 q 340 876 372 910 q 258 843 307 843 z "},"õ":{"ha":822,"x_min":21,"x_max":801,"o":"m 411 -21 q 324 -21 411 -21 q 128 89 236 -21 q 21 383 21 199 q 128 674 21 568 q 410 779 236 779 q 694 672 586 779 q 801 382 801 565 q 694 88 801 196 q 411 -21 586 -21 m 411 754 q 332 700 357 754 q 294 382 294 619 q 320 93 294 182 q 413 4 346 4 q 503 94 478 4 q 528 383 528 185 q 496 690 528 611 q 411 754 471 754 m 204 846 l 182 851 q 340 1067 229 1067 q 457 1040 385 1067 q 563 1014 536 1014 q 658 1075 615 1014 l 681 1069 q 524 850 629 850 q 408 876 482 850 q 293 903 333 903 q 204 846 244 903 z "},"ú":{"ha":893,"x_min":8,"x_max":871,"o":"m 92 674 l 8 707 l 8 731 l 313 775 l 346 772 l 346 183 q 443 89 350 89 q 538 111 486 89 l 538 674 l 454 707 l 454 731 l 758 775 l 789 772 l 789 88 l 871 54 l 871 31 l 571 -17 l 540 -14 l 540 83 l 532 83 q 304 -19 429 -19 q 92 211 92 -19 l 92 674 m 318 832 l 306 851 l 557 1143 l 688 951 l 318 832 z "},"ù":{"ha":893,"x_min":8,"x_max":871,"o":"m 92 674 l 8 707 l 8 731 l 313 775 l 346 772 l 346 183 q 443 89 350 89 q 538 111 486 89 l 538 674 l 454 707 l 454 731 l 758 775 l 789 772 l 789 88 l 871 54 l 871 31 l 571 -17 l 540 -14 l 540 83 l 532 83 q 304 -19 429 -19 q 92 211 92 -19 l 92 674 m 568 833 l 197 951 l 328 1143 l 581 853 l 568 833 z "},"û":{"ha":893,"x_min":8,"x_max":871,"o":"m 92 674 l 8 707 l 8 731 l 313 775 l 346 772 l 346 183 q 443 89 350 89 q 538 111 486 89 l 538 674 l 454 707 l 454 731 l 758 775 l 789 772 l 789 88 l 871 54 l 871 31 l 571 -17 l 540 -14 l 540 83 l 532 83 q 304 -19 429 -19 q 92 211 92 -19 l 92 674 m 225 821 l 208 838 l 421 1104 l 460 1104 l 672 838 l 656 821 l 440 921 l 225 821 z "},"ü":{"ha":893,"x_min":8,"x_max":871,"o":"m 92 674 l 8 707 l 8 731 l 313 775 l 346 772 l 346 183 q 443 89 350 89 q 538 111 486 89 l 538 674 l 454 707 l 454 731 l 758 775 l 789 772 l 789 88 l 871 54 l 871 31 l 571 -17 l 540 -14 l 540 83 l 532 83 q 304 -19 429 -19 q 92 211 92 -19 l 92 674 m 594 843 q 570 843 594 843 q 513 876 546 843 q 479 957 479 910 q 513 1037 479 1004 q 594 1069 546 1069 q 677 1037 643 1069 q 711 957 711 1004 q 677 876 711 910 q 594 843 643 843 m 288 843 q 203 876 238 843 q 169 957 169 910 q 203 1037 169 1004 q 288 1069 238 1069 q 369 1037 336 1069 q 401 957 401 1004 q 369 876 401 910 q 288 843 336 843 z "},"†":{"ha":657,"x_min":40,"x_max":617,"o":"m 40 563 l 40 799 l 300 703 l 303 706 l 189 1001 l 471 1001 l 354 706 l 357 703 l 617 799 l 617 563 l 357 658 l 354 656 l 463 408 l 463 344 l 343 -165 l 315 -165 l 194 344 l 194 408 l 303 656 l 300 658 l 40 563 z "},"°":{"ha":513,"x_min":42,"x_max":471,"o":"m 257 599 q 211 599 257 599 q 103 660 165 599 q 42 810 42 722 q 103 958 42 899 q 257 1018 165 1018 q 410 958 349 1018 q 471 810 471 899 q 410 660 471 722 q 257 599 349 599 m 257 636 q 294 636 257 636 q 378 688 332 636 q 424 810 424 739 q 378 931 424 882 q 257 981 332 981 q 135 931 182 981 q 89 810 89 882 q 135 688 89 739 q 257 636 182 636 z "},"¢":{"ha":724,"x_min":28,"x_max":688,"o":"m 335 -199 l 358 -17 q 115 100 201 -6 q 28 383 28 206 q 138 672 28 565 q 438 779 247 779 l 463 779 l 476 890 l 508 890 l 493 778 q 682 753 622 775 l 686 500 l 663 500 l 506 746 l 490 750 l 410 133 q 506 119 451 119 q 688 167 617 119 l 688 139 q 576 28 649 75 q 390 -18 503 -18 l 367 -199 l 335 -199 m 269 403 q 379 147 269 207 l 458 754 q 317 672 364 754 q 269 403 269 589 z "},"£":{"ha":786,"x_min":28,"x_max":749,"o":"m 50 496 l 50 538 l 144 538 l 144 669 q 243 935 144 851 q 511 1018 342 1018 q 735 990 649 1018 l 740 714 l 717 714 l 553 992 l 532 993 q 444 939 472 993 q 413 743 415 885 l 407 538 l 614 538 l 614 496 l 407 496 q 165 176 394 268 l 165 172 l 749 172 l 725 0 l 28 0 l 28 103 q 144 336 140 175 l 144 496 l 50 496 m 599 974 l 603 971 l 599 974 z "},"§":{"ha":771,"x_min":35,"x_max":736,"o":"m 685 83 q 353 -156 685 -156 q 111 -117 221 -156 l 104 81 l 128 81 l 324 -131 l 349 -132 q 481 -24 481 -132 q 450 49 481 25 q 357 100 419 74 l 207 164 q 35 379 35 242 q 78 511 35 451 q 224 592 122 571 q 128 685 150 635 q 106 790 106 735 q 182 951 106 885 q 415 1017 258 1017 q 646 982 560 1017 l 646 799 l 622 799 l 447 992 l 424 993 q 311 883 311 993 q 403 767 311 804 l 563 706 q 736 490 736 633 q 560 272 736 331 q 685 83 685 196 m 533 286 q 556 367 556 319 q 482 479 556 449 l 247 578 q 222 496 222 542 q 300 385 222 422 l 506 300 l 533 286 z "},"•":{"ha":510,"x_min":54,"x_max":456,"o":"m 256 250 q 113 309 171 250 q 54 449 54 368 q 113 590 54 532 q 256 647 171 647 q 397 590 339 647 q 456 449 456 532 q 397 309 456 368 q 256 250 339 250 z "},"¶":{"ha":793,"x_min":31,"x_max":765,"o":"m 390 -158 l 390 468 l 306 464 q 105 536 179 464 q 31 736 31 608 q 346 1001 31 1001 l 765 1001 l 765 978 l 658 967 l 658 -158 l 624 -158 l 624 974 l 425 974 l 425 -158 l 390 -158 z "},"ß":{"ha":921,"x_min":18,"x_max":913,"o":"m 626 -18 q 426 17 515 -18 l 419 232 l 443 232 l 613 10 l 628 10 q 711 44 685 10 q 738 129 738 79 q 634 273 738 214 q 507 351 531 332 q 425 518 425 417 q 441 594 425 560 q 533 710 457 629 q 610 896 610 792 q 478 1072 610 1072 q 357 904 358 1072 l 357 0 l 22 0 l 22 24 l 103 46 l 103 708 l 18 708 l 18 733 l 103 761 l 103 819 q 482 1099 113 1099 q 720 1039 647 1099 q 793 896 793 979 q 753 806 793 844 q 624 726 714 767 q 533 643 533 685 q 555 602 533 622 q 702 510 576 582 q 870 380 828 439 q 913 229 913 321 q 842 51 913 121 q 626 -18 771 -18 z "},"®":{"ha":690,"x_min":28,"x_max":663,"o":"m 343 393 q 276 393 343 393 q 118 481 208 393 q 28 704 28 569 q 117 926 28 835 q 343 1017 206 1017 q 571 928 479 1017 q 663 704 663 839 q 570 481 663 568 q 343 393 478 393 m 343 424 q 545 501 464 424 q 626 704 626 579 q 545 908 626 829 q 343 986 464 986 q 141 908 218 986 q 64 704 64 829 q 141 501 64 579 q 343 424 218 424 m 194 557 l 194 576 l 225 583 l 225 842 l 194 847 l 194 867 l 365 867 q 479 785 479 865 q 428 708 479 728 l 428 706 l 492 581 l 508 576 l 508 557 l 404 557 l 343 688 l 318 688 l 318 583 l 343 576 l 343 557 l 194 557 m 318 707 l 344 707 q 388 779 388 707 q 344 847 388 847 l 318 847 l 318 707 z "},"©":{"ha":1096,"x_min":31,"x_max":1065,"o":"m 549 -17 q 288 51 408 -17 q 99 240 167 118 q 31 501 31 361 q 99 763 31 643 q 288 951 168 883 q 549 1018 408 1018 q 810 950 690 1018 q 997 763 929 882 q 1065 501 1065 643 q 998 241 1065 361 q 810 52 931 121 q 549 -17 690 -17 m 549 18 q 615 18 549 18 q 792 81 682 18 q 963 256 901 144 q 1024 501 1024 368 q 963 745 1024 633 q 792 920 903 857 q 549 983 682 983 q 304 920 415 983 q 133 745 193 857 q 72 501 72 633 q 134 256 72 368 q 306 81 196 143 q 549 18 415 18 m 551 221 q 348 294 424 221 q 272 507 272 368 q 352 718 272 643 q 565 793 432 793 q 740 768 681 793 l 746 614 l 725 614 l 617 765 l 579 769 q 468 515 468 769 q 497 305 468 365 q 581 244 525 244 l 615 247 l 731 408 l 751 408 l 743 254 q 551 221 674 221 z "},"™":{"ha":1088,"x_min":24,"x_max":1061,"o":"m 463 568 l 463 586 l 524 621 l 524 965 l 463 983 l 463 1001 l 668 1001 l 769 713 l 772 713 l 863 1001 l 1061 1001 l 1061 983 l 1015 972 l 1015 597 l 1061 586 l 1061 568 l 832 568 l 832 586 l 872 596 l 872 944 l 867 944 l 751 568 l 679 568 l 550 944 l 544 944 l 544 621 l 610 586 l 610 568 l 463 568 m 107 568 l 107 586 l 158 597 l 158 982 l 122 982 l 36 828 l 24 828 l 31 1001 l 433 1001 l 439 828 l 426 828 l 343 982 l 306 982 l 306 597 l 357 586 l 357 568 l 107 568 z "},"´":{"ha":694,"x_min":197,"x_max":579,"o":"m 210 832 l 197 851 l 449 1143 l 579 951 l 210 832 z "},"¨":{"ha":694,"x_min":76,"x_max":618,"o":"m 501 843 q 477 843 501 843 q 419 876 453 843 q 386 957 386 910 q 419 1037 386 1004 q 501 1069 453 1069 q 584 1037 550 1069 q 618 957 618 1004 q 584 876 618 910 q 501 843 550 843 m 194 843 q 110 876 144 843 q 76 957 76 910 q 110 1037 76 1004 q 194 1069 144 1069 q 276 1037 243 1069 q 308 957 308 1004 q 276 876 308 910 q 194 843 243 843 z "},"≠":{"ha":757,"x_min":72,"x_max":685,"o":"m 200 40 l 294 276 l 72 276 l 72 318 l 311 318 l 400 544 l 72 544 l 72 586 l 417 586 l 508 815 l 546 815 l 454 586 l 685 586 l 685 544 l 438 544 l 349 318 l 685 318 l 685 276 l 332 276 l 238 40 l 200 40 z "},"Æ":{"ha":1401,"x_min":0,"x_max":1361,"o":"m 524 0 l 524 24 l 617 42 l 617 375 l 310 375 l 165 97 l 299 24 l 299 0 l 0 0 l 0 24 l 138 107 l 581 956 l 482 978 l 482 1001 l 1335 1001 l 1343 679 l 1319 679 l 1142 975 l 915 975 l 915 526 l 1010 526 l 1135 706 l 1158 706 l 1158 314 l 1135 314 l 1010 499 l 915 499 l 915 26 l 1139 26 l 1338 339 l 1361 339 l 1353 0 l 524 0 m 608 949 l 326 407 l 617 407 l 617 949 l 608 949 z "},"Ø":{"ha":1025,"x_min":28,"x_max":997,"o":"m 85 -58 l 192 89 q 28 496 28 229 q 90 773 28 654 q 265 955 151 892 q 517 1018 378 1018 q 808 933 688 1018 l 879 1031 l 921 1031 l 835 913 q 997 507 997 774 q 935 229 997 347 q 760 47 874 111 q 510 -17 647 -17 q 218 68 339 -17 l 126 -58 l 85 -58 m 513 993 q 382 883 418 993 q 346 504 346 772 l 351 297 l 667 749 q 615 942 653 892 q 513 993 576 993 m 676 494 l 671 697 l 356 247 q 408 59 369 110 q 513 8 446 8 q 640 113 604 8 q 676 494 676 217 z "},"±":{"ha":815,"x_min":83,"x_max":732,"o":"m 83 501 l 83 543 l 386 543 l 386 842 l 428 842 l 428 543 l 732 543 l 732 501 l 428 501 l 428 200 l 386 200 l 386 501 l 83 501 m 83 0 l 83 42 l 732 42 l 732 0 l 83 0 z "},"≤":{"ha":778,"x_min":83,"x_max":686,"o":"m 686 194 l 83 468 l 83 504 l 686 779 l 686 736 l 142 488 l 686 238 l 686 194 m 83 0 l 83 42 l 686 42 l 686 0 l 83 0 z "},"≥":{"ha":778,"x_min":92,"x_max":694,"o":"m 93 194 l 93 238 l 636 488 l 93 736 l 93 779 l 694 504 l 694 468 l 93 194 m 693 0 l 92 0 l 92 42 l 693 42 l 693 0 z "},"¥":{"ha":886,"x_min":7,"x_max":879,"o":"m 206 0 l 206 24 l 307 58 l 307 340 l 99 340 l 99 375 l 307 375 l 307 503 l 99 503 l 99 538 l 299 538 l 76 940 l 7 978 l 7 1001 l 433 1001 l 433 978 l 358 951 l 572 543 l 750 911 l 624 978 l 624 1001 l 879 1001 l 879 978 l 783 911 l 600 538 l 797 538 l 797 503 l 596 503 l 596 375 l 797 375 l 797 340 l 596 340 l 596 58 l 694 24 l 694 0 l 206 0 z "},"μ":{"ha":900,"x_min":15,"x_max":878,"o":"m 99 674 l 15 707 l 15 731 l 321 775 l 353 772 l 353 124 q 450 89 388 89 q 544 111 493 89 l 544 761 l 796 761 l 796 88 l 878 54 l 878 31 l 578 -17 l 547 -14 l 547 83 l 539 83 q 382 1 468 1 q 336 8 360 1 l 353 -306 l 99 -306 l 99 674 z "},"π":{"ha":954,"x_min":13,"x_max":907,"o":"m 799 590 l 799 136 q 853 49 799 50 l 885 49 l 885 25 q 738 -17 826 -17 q 601 20 656 -17 q 546 161 546 57 l 546 590 l 342 590 l 315 213 q 143 -18 292 -18 q 13 89 13 -18 q 41 152 13 125 q 124 179 69 179 l 221 35 q 288 229 275 83 l 314 590 l 189 590 q 65 518 89 586 l 42 518 q 132 710 67 660 q 272 761 197 761 l 907 761 l 907 590 l 799 590 z "},"ª":{"ha":556,"x_min":19,"x_max":542,"o":"m 310 788 l 310 843 q 290 955 310 922 q 208 988 269 988 l 199 986 l 74 815 l 57 815 l 61 981 q 254 1014 182 1014 q 492 864 486 1014 l 492 514 l 542 500 l 542 482 q 436 456 504 456 q 315 522 342 456 l 311 522 q 168 454 256 454 q 59 494 99 454 q 19 601 19 533 q 182 763 19 729 l 310 788 m 263 533 q 310 546 292 533 l 310 753 l 263 749 q 192 632 192 742 q 263 533 192 533 z "},"º":{"ha":599,"x_min":22,"x_max":576,"o":"m 297 451 q 99 529 176 451 q 22 738 22 607 q 97 942 22 867 q 297 1018 172 1018 q 499 942 422 1018 q 576 736 576 865 q 500 529 576 607 q 297 451 424 451 m 299 993 q 236 932 254 993 q 218 738 218 871 q 239 531 218 585 q 299 476 260 476 q 360 531 339 476 q 382 739 382 585 q 364 933 382 872 q 299 993 346 993 z "},"æ":{"ha":1175,"x_min":22,"x_max":1140,"o":"m 819 -21 q 623 16 697 -21 q 514 96 549 53 q 372 -1 435 21 q 228 -22 308 -22 q 77 33 132 -22 q 22 188 22 89 q 235 410 22 361 l 429 447 l 429 549 q 402 708 429 664 q 311 753 375 753 l 283 750 l 96 496 l 72 496 l 78 732 q 360 779 231 779 q 599 717 533 779 q 807 778 686 778 q 1061 688 982 778 q 1140 407 1140 597 l 685 407 q 748 185 692 267 q 949 104 804 104 q 1118 135 1047 104 l 1118 113 q 1008 22 1086 64 q 819 -21 929 -21 m 685 435 l 900 444 q 876 687 900 622 q 801 751 851 751 q 685 435 685 751 m 268 228 q 386 79 268 79 q 499 118 447 79 q 429 411 429 229 l 378 407 q 293 360 318 401 q 268 228 268 318 z "},"ø":{"ha":822,"x_min":21,"x_max":801,"o":"m 44 -54 l 146 72 q 21 383 21 183 q 128 674 21 568 q 410 779 236 779 q 649 710 550 779 l 722 803 l 765 803 l 675 689 q 801 382 801 581 q 694 88 801 196 q 411 -21 586 -21 q 172 51 271 -21 l 88 -54 l 44 -54 m 411 754 q 332 700 357 754 q 294 382 294 619 l 297 250 l 521 565 q 483 715 511 676 q 411 754 456 754 m 528 383 l 525 511 l 301 199 q 341 45 313 86 q 413 4 369 4 q 503 94 478 4 q 528 383 528 185 z "},"¿":{"ha":657,"x_min":26,"x_max":625,"o":"m 389 831 q 488 789 449 831 q 526 692 526 747 q 488 595 526 636 q 389 554 449 554 q 289 595 328 554 q 250 692 250 636 q 289 789 250 747 q 389 831 328 831 m 415 -178 l 601 114 l 625 114 l 622 -165 q 369 -203 507 -203 q 114 -140 201 -203 q 26 47 26 -76 q 80 187 26 129 q 237 293 133 244 q 369 371 340 342 q 397 435 397 400 l 390 482 l 418 482 q 450 382 450 439 q 390 245 450 315 q 314 125 329 175 q 299 0 299 75 q 415 -178 299 -178 m 483 -160 l 475 -164 l 483 -160 z "},"¡":{"ha":400,"x_min":47,"x_max":351,"o":"m 197 832 q 228 832 197 832 q 297 790 258 832 q 336 693 336 749 q 297 597 336 638 q 197 556 258 556 q 98 597 136 556 q 60 693 60 638 q 98 790 60 749 q 197 832 136 832 m 183 483 l 211 483 l 351 -186 l 47 -186 l 183 483 z "},"ƒ":{"ha":632,"x_min":-175,"x_max":756,"o":"m -15 -239 q -128 -210 -81 -239 q -175 -122 -175 -182 q -148 -56 -175 -82 q -69 -29 -121 -29 l -10 -211 q 69 -51 39 -208 l 182 596 l 86 596 l 92 628 l 188 628 q 319 915 219 811 q 582 1018 418 1018 q 706 991 656 1018 q 756 908 756 964 q 728 840 756 867 q 646 814 700 814 l 589 990 q 506 897 535 989 q 444 628 478 806 l 589 628 l 583 596 l 439 596 l 363 164 q -15 -239 283 -239 z "},"≈":{"ha":814,"x_min":64,"x_max":749,"o":"m 100 503 l 64 515 q 247 663 128 663 q 419 606 315 663 q 571 550 524 550 q 651 580 621 550 q 713 665 682 610 l 749 651 q 569 508 686 508 q 390 569 503 508 q 247 621 290 621 q 100 503 167 621 m 100 222 l 64 235 q 247 382 128 382 q 419 326 315 382 q 571 269 524 269 q 651 299 621 269 q 713 385 682 329 l 749 371 q 569 228 686 228 q 390 289 503 228 q 247 340 290 340 q 100 222 167 340 z "},"«":{"ha":740,"x_min":42,"x_max":686,"o":"m 357 107 l 42 386 l 42 413 l 357 692 l 385 692 l 272 400 l 385 107 l 357 107 m 660 107 l 344 386 l 344 413 l 660 692 l 686 692 l 575 400 l 686 107 l 660 107 z "},"»":{"ha":740,"x_min":54,"x_max":699,"o":"m 383 107 l 356 107 l 468 400 l 356 692 l 383 692 l 699 413 l 699 386 l 383 107 m 81 107 l 54 107 l 165 400 l 54 692 l 81 692 l 396 413 l 396 386 l 81 107 z "},"…":{"ha":1119,"x_min":44,"x_max":1075,"o":"m 186 -19 q 84 23 124 -19 q 44 124 44 65 q 84 222 44 181 q 186 263 124 263 q 290 222 250 263 q 329 124 329 181 q 290 23 329 65 q 186 -19 250 -19 m 560 -19 q 458 23 497 -19 q 418 124 418 65 q 458 222 418 181 q 560 263 497 263 q 663 222 624 263 q 703 124 703 181 q 663 23 703 65 q 560 -19 624 -19 m 932 -19 q 830 23 869 -19 q 790 124 790 65 q 830 222 790 181 q 932 263 869 263 q 1035 222 996 263 q 1075 124 1075 181 q 1035 23 1075 65 q 932 -19 996 -19 z "},"À":{"ha":1008,"x_min":13,"x_max":996,"o":"m 283 24 l 283 0 l 13 0 l 13 24 l 119 92 l 422 1001 l 592 1001 l 911 81 l 996 24 l 996 0 l 521 0 l 521 24 l 613 61 l 522 329 l 226 329 l 149 90 l 283 24 m 369 761 l 238 361 l 511 361 l 376 761 l 369 761 m 653 1061 l 282 1179 l 413 1371 l 665 1081 l 653 1061 z "},"Ã":{"ha":1008,"x_min":13,"x_max":996,"o":"m 283 24 l 283 0 l 13 0 l 13 24 l 119 92 l 422 1001 l 592 1001 l 911 81 l 996 24 l 996 0 l 521 0 l 521 24 l 613 61 l 522 329 l 226 329 l 149 90 l 283 24 m 369 761 l 238 361 l 511 361 l 376 761 l 369 761 m 288 1065 l 265 1071 q 424 1286 313 1286 q 540 1260 468 1286 q 646 1233 619 1233 q 742 1294 699 1233 l 764 1289 q 607 1069 713 1069 q 491 1096 565 1069 q 376 1122 417 1122 q 288 1065 328 1122 z "},"Õ":{"ha":1025,"x_min":28,"x_max":997,"o":"m 997 507 q 935 229 997 347 q 760 47 874 111 q 510 -17 647 -17 q 158 120 289 -17 q 28 496 28 257 q 90 773 28 654 q 265 955 151 892 q 517 1018 378 1018 q 867 882 738 1018 q 997 507 997 746 m 513 993 q 382 883 418 993 q 346 504 346 772 q 381 115 346 222 q 513 8 415 8 q 640 113 604 8 q 676 494 676 217 q 641 888 676 782 q 513 993 606 993 m 314 1082 l 292 1088 q 450 1303 339 1303 q 567 1276 494 1303 q 672 1250 646 1250 q 768 1311 725 1250 l 790 1306 q 633 1086 739 1086 q 517 1113 592 1086 q 403 1139 443 1139 q 314 1082 354 1139 z "},"Œ":{"ha":1389,"x_min":28,"x_max":1349,"o":"m 1340 0 l 539 0 q 162 127 296 0 q 28 490 28 254 q 165 865 28 728 q 547 1001 303 1001 l 1322 1001 l 1331 679 l 1307 679 l 1129 975 l 903 975 l 903 526 l 997 526 l 1122 706 l 1146 706 l 1146 314 l 1122 314 l 997 499 l 903 499 l 903 26 l 1126 26 l 1325 339 l 1349 339 l 1340 0 m 610 19 l 610 982 l 561 982 q 397 872 444 982 q 350 510 350 763 q 392 134 350 244 q 549 19 435 24 l 610 19 z "},"œ":{"ha":1274,"x_min":21,"x_max":1240,"o":"m 907 778 q 1161 688 1082 778 q 1240 407 1240 597 l 785 407 q 848 185 792 267 q 1049 104 904 104 q 1218 135 1147 104 l 1218 113 q 1108 22 1186 64 q 918 -21 1031 -21 q 658 69 760 -21 q 411 -21 561 -21 q 128 89 236 -21 q 21 383 21 199 q 128 674 21 568 q 410 779 236 779 q 660 689 558 779 q 907 778 760 778 m 411 754 q 332 700 357 754 q 294 382 294 619 q 320 93 294 182 q 413 4 346 4 q 503 94 478 4 q 528 383 528 185 q 496 690 528 611 q 411 754 471 754 m 785 435 l 1000 444 q 976 687 1000 622 q 901 751 951 751 q 785 435 785 751 z "},"–":{"ha":560,"x_min":22,"x_max":538,"o":"m 22 394 l 22 436 l 538 436 l 538 394 l 22 394 z "},"—":{"ha":967,"x_min":22,"x_max":944,"o":"m 22 394 l 22 436 l 944 436 l 944 394 l 22 394 z "},"“":{"ha":597,"x_min":28,"x_max":574,"o":"m 574 983 q 525 863 536 953 q 531 658 514 772 l 313 658 q 366 883 300 794 q 564 1003 432 972 l 574 983 m 301 983 q 253 863 264 953 q 258 658 242 772 l 40 658 q 94 883 28 794 q 292 1003 160 972 l 301 983 z "},"”":{"ha":597,"x_min":22,"x_max":568,"o":"m 22 676 q 71 797 60 707 q 65 1001 82 888 l 283 1001 q 230 776 296 865 q 32 657 164 688 l 22 676 m 294 676 q 343 797 332 707 q 338 1001 354 888 l 556 1001 q 502 776 568 865 q 304 657 436 688 l 294 676 z "},"‘":{"ha":336,"x_min":29,"x_max":303,"o":"m 303 983 q 254 863 265 953 q 260 658 243 772 l 42 658 q 95 883 29 794 q 293 1003 161 972 l 303 983 z "},"’":{"ha":336,"x_min":31,"x_max":304,"o":"m 31 676 q 79 797 68 707 q 74 1001 90 888 l 292 1001 q 238 776 304 865 q 40 657 172 688 l 31 676 z "},"÷":{"ha":815,"x_min":75,"x_max":740,"o":"m 408 758 q 419 758 408 758 q 446 744 431 758 q 461 707 461 729 q 446 671 461 686 q 408 656 431 656 q 371 671 386 656 q 356 707 356 686 q 371 744 356 729 q 408 758 386 758 m 75 411 l 75 453 l 740 453 l 740 411 l 75 411 m 408 208 q 419 208 408 208 q 446 193 431 208 q 461 157 461 178 q 446 120 461 135 q 408 106 431 106 q 371 120 386 106 q 356 157 356 135 q 371 193 356 178 q 408 208 386 208 z "},"ÿ":{"ha":810,"x_min":6,"x_max":804,"o":"m 203 -315 l 121 -165 l 121 -144 l 415 -144 l 72 706 l 6 738 l 6 761 l 433 761 l 433 738 l 347 701 l 532 194 l 692 678 l 583 738 l 583 761 l 804 761 l 804 738 l 721 682 l 468 -71 q 203 -315 397 -274 m 593 843 q 569 843 593 843 q 511 876 544 843 q 478 957 478 910 q 511 1037 478 1004 q 593 1069 544 1069 q 676 1037 642 1069 q 710 957 710 1004 q 676 876 710 910 q 593 843 642 843 m 286 843 q 202 876 236 843 q 168 957 168 910 q 202 1037 168 1004 q 286 1069 236 1069 q 367 1037 335 1069 q 400 957 400 1004 q 367 876 400 910 q 286 843 335 843 z "},"Ÿ":{"ha":928,"x_min":7,"x_max":922,"o":"m 224 0 l 224 24 l 326 44 l 326 411 l 71 944 l 7 978 l 7 1001 l 447 1001 l 447 978 l 371 946 l 600 460 l 607 460 l 786 911 l 658 978 l 658 1001 l 922 1001 l 922 978 l 814 910 l 619 419 l 619 44 l 718 24 l 718 0 l 224 0 m 664 1061 q 640 1061 664 1061 q 582 1094 615 1061 q 549 1175 549 1128 q 582 1255 549 1222 q 664 1288 615 1288 q 747 1255 713 1288 q 781 1175 781 1222 q 747 1094 781 1128 q 664 1061 713 1061 m 357 1061 q 273 1094 307 1061 q 239 1175 239 1128 q 273 1255 239 1222 q 357 1288 307 1288 q 438 1255 406 1288 q 471 1175 471 1222 q 438 1094 471 1128 q 357 1061 406 1061 z "},"⁄":{"ha":131,"x_min":-278,"x_max":403,"o":"m -278 -29 l 361 1001 l 403 1001 l -235 -29 l -278 -29 z "},"‹":{"ha":438,"x_min":42,"x_max":383,"o":"m 357 107 l 42 386 l 42 413 l 357 692 l 383 692 l 272 400 l 383 107 l 357 107 z "},"›":{"ha":438,"x_min":54,"x_max":396,"o":"m 81 107 l 54 107 l 165 400 l 54 692 l 81 692 l 396 413 l 396 386 l 81 107 z "},"ﬁ":{"ha":919,"x_min":18,"x_max":900,"o":"m 357 46 l 449 24 l 449 0 l 22 0 l 22 24 l 103 46 l 103 708 l 18 708 l 18 733 l 103 761 l 103 844 q 482 1099 111 1099 q 707 1079 613 1099 l 707 858 l 683 858 l 554 1060 q 486 1071 526 1071 q 387 1033 417 1071 q 357 874 357 994 l 357 761 l 822 761 l 822 44 l 900 24 l 900 0 l 497 0 l 497 24 l 568 44 l 568 708 l 357 708 l 357 46 z "},"ﬂ":{"ha":911,"x_min":18,"x_max":897,"o":"m 357 46 l 443 25 l 443 0 l 22 0 l 22 24 l 103 46 l 103 708 l 18 708 l 18 733 l 103 761 l 103 832 q 194 1034 103 969 q 446 1099 286 1099 q 639 1075 535 1099 l 788 1097 l 818 1093 l 818 47 l 897 25 l 897 0 l 490 0 l 490 25 l 564 47 l 564 1040 q 467 1069 526 1069 q 383 1034 408 1069 q 357 911 357 999 l 357 761 l 492 761 l 492 708 l 357 708 l 357 46 z "},"‡":{"ha":657,"x_min":50,"x_max":606,"o":"m 50 592 l 50 778 l 300 707 l 303 710 l 221 1001 l 438 1001 l 354 710 l 357 707 l 606 778 l 606 592 l 357 663 l 354 660 l 438 475 l 438 406 l 354 219 l 357 217 l 606 288 l 606 101 l 357 172 l 354 169 l 436 -121 l 219 -121 l 303 169 l 300 172 l 50 101 l 50 288 l 300 217 l 303 219 l 219 406 l 219 475 l 303 660 l 300 663 l 50 592 z "},"·":{"ha":374,"x_min":44,"x_max":329,"o":"m 186 321 q 84 363 124 321 q 44 464 44 406 q 84 562 44 521 q 186 603 124 603 q 290 562 250 603 q 329 464 329 521 q 290 363 329 406 q 186 321 250 321 z "},"‚":{"ha":336,"x_min":31,"x_max":304,"o":"m 31 -78 q 79 43 68 -47 q 74 247 90 133 l 292 247 q 238 22 304 111 q 40 -97 172 -67 l 31 -78 z "},"„":{"ha":597,"x_min":22,"x_max":568,"o":"m 22 -78 q 71 43 60 -47 q 65 247 82 133 l 283 247 q 230 22 296 111 q 32 -97 164 -67 l 22 -78 m 294 -78 q 343 43 332 -47 q 338 247 354 133 l 556 247 q 502 22 568 111 q 304 -97 436 -67 l 294 -78 z "},"‰":{"ha":1788,"x_min":33,"x_max":1754,"o":"m 296 450 q 237 450 296 450 q 106 524 178 450 q 33 729 33 599 q 106 937 33 857 q 297 1017 179 1017 q 488 941 413 1017 q 563 738 563 865 q 488 529 563 608 q 296 450 414 450 m 240 -17 l 922 1001 l 968 1001 l 285 -17 l 240 -17 m 297 472 q 356 529 338 472 q 374 731 374 586 q 356 933 374 872 q 297 994 339 994 q 238 936 254 994 q 221 739 221 878 q 238 534 221 596 q 297 472 254 472 m 915 -17 q 724 60 796 -17 q 653 263 653 136 q 727 471 653 392 q 917 550 801 550 q 1108 474 1035 550 q 1182 271 1182 397 q 1108 61 1182 139 q 915 -17 1033 -17 m 1488 -17 q 1297 60 1368 -17 q 1225 263 1225 136 q 1299 471 1225 392 q 1489 550 1374 550 q 1681 474 1607 550 q 1754 271 1754 397 q 1680 61 1754 139 q 1488 -17 1606 -17 m 917 6 q 975 63 957 6 q 993 264 993 119 q 976 467 993 406 q 917 528 958 528 q 857 469 874 528 q 840 272 840 411 q 857 67 840 129 q 917 6 874 6 m 1489 6 q 1547 63 1529 6 q 1565 264 1565 119 q 1548 467 1565 406 q 1489 528 1531 528 q 1429 469 1446 528 q 1413 272 1413 411 q 1429 67 1413 129 q 1489 6 1446 6 z "},"Â":{"ha":1008,"x_min":13,"x_max":996,"o":"m 283 24 l 283 0 l 13 0 l 13 24 l 119 92 l 422 1001 l 592 1001 l 911 81 l 996 24 l 996 0 l 521 0 l 521 24 l 613 61 l 522 329 l 226 329 l 149 90 l 283 24 m 369 761 l 238 361 l 511 361 l 376 761 l 369 761 m 276 1050 l 260 1067 l 472 1333 l 511 1333 l 724 1067 l 707 1050 l 492 1150 l 276 1050 z "},"Ê":{"ha":897,"x_min":25,"x_max":857,"o":"m 25 0 l 25 24 l 118 43 l 118 958 l 26 978 l 26 1001 l 831 1001 l 839 679 l 815 679 l 638 975 l 411 975 l 411 526 l 506 526 l 631 706 l 654 706 l 654 314 l 631 314 l 506 499 l 411 499 l 411 26 l 635 26 l 833 339 l 857 339 l 849 0 l 25 0 m 261 1050 l 244 1067 l 457 1333 l 496 1333 l 708 1067 l 692 1050 l 476 1150 l 261 1050 z "},"Á":{"ha":1008,"x_min":13,"x_max":996,"o":"m 283 24 l 283 0 l 13 0 l 13 24 l 119 92 l 422 1001 l 592 1001 l 911 81 l 996 24 l 996 0 l 521 0 l 521 24 l 613 61 l 522 329 l 226 329 l 149 90 l 283 24 m 369 761 l 238 361 l 511 361 l 376 761 l 369 761 m 371 1060 l 358 1079 l 610 1371 l 740 1179 l 371 1060 z "},"Ë":{"ha":897,"x_min":25,"x_max":857,"o":"m 25 0 l 25 24 l 118 43 l 118 958 l 26 978 l 26 1001 l 831 1001 l 839 679 l 815 679 l 638 975 l 411 975 l 411 526 l 506 526 l 631 706 l 654 706 l 654 314 l 631 314 l 506 499 l 411 499 l 411 26 l 635 26 l 833 339 l 857 339 l 849 0 l 25 0 m 619 1061 q 595 1061 619 1061 q 538 1094 571 1061 q 504 1175 504 1128 q 538 1255 504 1222 q 619 1288 571 1288 q 702 1255 668 1288 q 736 1175 736 1222 q 702 1094 736 1128 q 619 1061 668 1061 m 313 1061 q 228 1094 263 1061 q 194 1175 194 1128 q 228 1255 194 1222 q 313 1288 263 1288 q 394 1255 361 1288 q 426 1175 426 1222 q 394 1094 426 1128 q 313 1061 361 1061 z "},"È":{"ha":897,"x_min":25,"x_max":857,"o":"m 25 0 l 25 24 l 118 43 l 118 958 l 26 978 l 26 1001 l 831 1001 l 839 679 l 815 679 l 638 975 l 411 975 l 411 526 l 506 526 l 631 706 l 654 706 l 654 314 l 631 314 l 506 499 l 411 499 l 411 26 l 635 26 l 833 339 l 857 339 l 849 0 l 25 0 m 622 1061 l 251 1179 l 382 1371 l 635 1081 l 622 1061 z "},"Í":{"ha":533,"x_min":25,"x_max":508,"o":"m 25 0 l 25 24 l 119 43 l 119 958 l 25 978 l 25 1001 l 508 1001 l 508 978 l 413 958 l 413 43 l 508 24 l 508 0 l 25 0 m 126 1060 l 114 1079 l 365 1371 l 496 1179 l 126 1060 z "},"Î":{"ha":533,"x_min":21,"x_max":508,"o":"m 25 0 l 25 24 l 119 43 l 119 958 l 25 978 l 25 1001 l 508 1001 l 508 978 l 413 958 l 413 43 l 508 24 l 508 0 l 25 0 m 38 1050 l 21 1067 l 233 1333 l 272 1333 l 485 1067 l 468 1050 l 253 1150 l 38 1050 z "},"Ï":{"ha":533,"x_min":-8,"x_max":533,"o":"m 25 0 l 25 24 l 119 43 l 119 958 l 25 978 l 25 1001 l 508 1001 l 508 978 l 413 958 l 413 43 l 508 24 l 508 0 l 25 0 m 417 1061 q 392 1061 417 1061 q 335 1094 368 1061 q 301 1175 301 1128 q 335 1255 301 1222 q 417 1288 368 1288 q 499 1255 465 1288 q 533 1175 533 1222 q 499 1094 533 1128 q 417 1061 465 1061 m 110 1061 q 26 1094 60 1061 q -8 1175 -8 1128 q 26 1255 -8 1222 q 110 1288 60 1288 q 191 1255 158 1288 q 224 1175 224 1222 q 191 1094 224 1128 q 110 1061 158 1061 z "},"Ì":{"ha":533,"x_min":25,"x_max":508,"o":"m 25 0 l 25 24 l 119 43 l 119 958 l 25 978 l 25 1001 l 508 1001 l 508 978 l 413 958 l 413 43 l 508 24 l 508 0 l 25 0 m 421 1061 l 50 1179 l 181 1371 l 433 1081 l 421 1061 z "},"Ó":{"ha":1025,"x_min":28,"x_max":997,"o":"m 997 507 q 935 229 997 347 q 760 47 874 111 q 510 -17 647 -17 q 158 120 289 -17 q 28 496 28 257 q 90 773 28 654 q 265 955 151 892 q 517 1018 378 1018 q 867 882 738 1018 q 997 507 997 746 m 513 993 q 382 883 418 993 q 346 504 346 772 q 381 115 346 222 q 513 8 415 8 q 640 113 604 8 q 676 494 676 217 q 641 888 676 782 q 513 993 606 993 m 381 1076 l 368 1096 l 619 1388 l 750 1196 l 381 1076 z "},"Ô":{"ha":1025,"x_min":28,"x_max":997,"o":"m 997 507 q 935 229 997 347 q 760 47 874 111 q 510 -17 647 -17 q 158 120 289 -17 q 28 496 28 257 q 90 773 28 654 q 265 955 151 892 q 517 1018 378 1018 q 867 882 738 1018 q 997 507 997 746 m 513 993 q 382 883 418 993 q 346 504 346 772 q 381 115 346 222 q 513 8 415 8 q 640 113 604 8 q 676 494 676 217 q 641 888 676 782 q 513 993 606 993 m 283 1067 l 267 1083 l 479 1350 l 518 1350 l 731 1083 l 714 1067 l 499 1167 l 283 1067 z "},"Ò":{"ha":1025,"x_min":28,"x_max":997,"o":"m 997 507 q 935 229 997 347 q 760 47 874 111 q 510 -17 647 -17 q 158 120 289 -17 q 28 496 28 257 q 90 773 28 654 q 265 955 151 892 q 517 1018 378 1018 q 867 882 738 1018 q 997 507 997 746 m 513 993 q 382 883 418 993 q 346 504 346 772 q 381 115 346 222 q 513 8 415 8 q 640 113 604 8 q 676 494 676 217 q 641 888 676 782 q 513 993 606 993 m 665 1078 l 294 1196 l 425 1388 l 678 1097 l 665 1078 z "},"Ú":{"ha":974,"x_min":14,"x_max":960,"o":"m 510 -19 q 100 335 100 -19 l 100 958 l 14 978 l 14 1001 l 482 1001 l 482 978 l 393 960 l 393 335 q 449 140 393 194 q 618 85 506 85 q 786 142 733 85 q 839 339 839 199 l 839 918 l 721 978 l 721 1001 l 960 1001 l 960 978 l 867 917 l 867 343 q 774 72 867 163 q 510 -19 682 -19 m 408 1060 l 396 1079 l 647 1371 l 778 1179 l 408 1060 z "},"Û":{"ha":974,"x_min":14,"x_max":960,"o":"m 510 -19 q 100 335 100 -19 l 100 958 l 14 978 l 14 1001 l 482 1001 l 482 978 l 393 960 l 393 335 q 449 140 393 194 q 618 85 506 85 q 786 142 733 85 q 839 339 839 199 l 839 918 l 721 978 l 721 1001 l 960 1001 l 960 978 l 867 917 l 867 343 q 774 72 867 163 q 510 -19 682 -19 m 346 1050 l 329 1067 l 542 1333 l 581 1333 l 793 1067 l 776 1050 l 561 1150 l 346 1050 z "},"Ù":{"ha":974,"x_min":14,"x_max":960,"o":"m 510 -19 q 100 335 100 -19 l 100 958 l 14 978 l 14 1001 l 482 1001 l 482 978 l 393 960 l 393 335 q 449 140 393 194 q 618 85 506 85 q 786 142 733 85 q 839 339 839 199 l 839 918 l 721 978 l 721 1001 l 960 1001 l 960 978 l 867 917 l 867 343 q 774 72 867 163 q 510 -19 682 -19 m 725 1061 l 354 1179 l 485 1371 l 738 1081 l 725 1061 z "},"ı":{"ha":454,"x_min":18,"x_max":435,"o":"m 18 731 l 322 775 l 357 772 l 357 46 l 435 24 l 435 0 l 24 0 l 24 24 l 103 46 l 103 674 l 18 707 l 18 731 z "},"ˆ":{"ha":694,"x_min":115,"x_max":579,"o":"m 132 821 l 115 838 l 328 1104 l 367 1104 l 579 838 l 563 821 l 347 921 l 132 821 z "},"˜":{"ha":694,"x_min":99,"x_max":597,"o":"m 121 846 l 99 851 q 257 1067 146 1067 q 374 1040 301 1067 q 479 1014 453 1014 q 575 1075 532 1014 l 597 1069 q 440 850 546 850 q 324 876 399 850 q 210 903 250 903 q 121 846 161 903 z "},"¯":{"ha":694,"x_min":139,"x_max":551,"o":"m 139 894 l 139 978 l 551 978 l 551 894 l 139 894 z "},"˘":{"ha":694,"x_min":142,"x_max":568,"o":"m 357 831 q 142 1060 142 831 l 165 1060 q 357 978 178 978 q 544 1060 526 978 l 568 1060 q 357 831 568 831 z "},"˙":{"ha":694,"x_min":213,"x_max":481,"o":"m 347 1086 q 441 1049 401 1086 q 481 956 481 1011 q 441 863 481 900 q 347 826 401 826 q 251 863 290 826 q 213 956 213 900 q 251 1049 213 1011 q 347 1086 290 1086 z "},"˚":{"ha":694,"x_min":199,"x_max":496,"o":"m 347 824 q 315 824 347 824 q 240 861 282 824 q 199 961 199 899 q 240 1060 199 1021 q 347 1099 282 1099 q 454 1060 413 1099 q 496 961 496 1021 q 454 861 496 899 q 347 824 413 824 m 347 847 q 390 961 390 847 q 347 1075 390 1075 q 304 961 304 1075 q 314 872 304 897 q 347 847 324 847 z "},"¸":{"ha":694,"x_min":244,"x_max":560,"o":"m 244 -290 l 244 -267 q 321 -283 278 -283 q 411 -203 411 -283 q 339 -133 411 -133 l 328 -135 l 343 0 l 376 0 l 365 -96 q 438 -85 401 -85 q 528 -115 496 -85 q 560 -196 560 -144 q 515 -295 560 -258 q 389 -332 471 -332 q 244 -290 299 -332 z "},"˝":{"ha":694,"x_min":179,"x_max":688,"o":"m 197 836 l 179 849 l 297 1121 l 440 1000 l 197 836 m 438 838 l 419 850 l 550 1117 l 688 993 l 438 838 z "},"˛":{"ha":694,"x_min":188,"x_max":489,"o":"m 326 -304 q 188 -203 188 -304 q 247 -105 188 -149 q 435 0 306 -61 l 458 0 q 364 -158 364 -99 q 436 -229 364 -229 q 489 -219 463 -229 l 489 -240 q 326 -304 418 -304 z "},"ˇ":{"ha":694,"x_min":115,"x_max":579,"o":"m 132 1125 l 347 1025 l 563 1125 l 579 1108 l 367 842 l 328 842 l 115 1108 l 132 1125 z "},"Ā":{"ha":1008,"x_min":13,"x_max":996,"o":"m 283 24 l 283 0 l 13 0 l 13 24 l 119 92 l 422 1001 l 592 1001 l 911 81 l 996 24 l 996 0 l 521 0 l 521 24 l 613 61 l 522 329 l 226 329 l 149 90 l 283 24 m 369 761 l 238 361 l 511 361 l 376 761 l 369 761 m 283 1093 l 283 1176 l 696 1176 l 696 1093 l 283 1093 z "},"Ă":{"ha":1008,"x_min":13,"x_max":996,"o":"m 283 24 l 283 0 l 13 0 l 13 24 l 119 92 l 422 1001 l 592 1001 l 911 81 l 996 24 l 996 0 l 521 0 l 521 24 l 613 61 l 522 329 l 226 329 l 149 90 l 283 24 m 369 761 l 238 361 l 511 361 l 376 761 l 369 761 m 497 1058 q 282 1288 282 1058 l 306 1288 q 497 1206 318 1206 q 685 1288 667 1206 l 708 1288 q 497 1058 708 1058 z "},"Ą":{"ha":1008,"x_min":13,"x_max":996,"o":"m 518 -304 q 379 -203 379 -304 q 429 -106 379 -150 q 629 11 479 -62 l 522 329 l 226 329 l 149 90 l 283 24 l 283 0 l 13 0 l 13 24 l 119 92 l 422 1001 l 592 1001 l 911 81 l 996 24 l 996 0 l 650 0 q 556 -158 556 -99 q 628 -229 556 -229 q 681 -219 654 -229 l 681 -242 q 518 -304 621 -304 m 369 761 l 238 361 l 511 361 l 376 761 l 369 761 z "},"Ǻ":{"ha":1008,"x_min":13,"x_max":996,"o":"m 283 24 l 283 0 l 13 0 l 13 24 l 119 92 l 422 1001 l 592 1001 l 911 81 l 996 24 l 996 0 l 521 0 l 521 24 l 613 61 l 522 329 l 226 329 l 149 90 l 283 24 m 369 761 l 238 361 l 511 361 l 376 761 l 369 761 m 508 1044 q 476 1044 508 1044 q 401 1082 443 1044 q 360 1182 360 1119 q 401 1281 360 1242 q 508 1319 443 1319 q 615 1281 574 1319 q 657 1182 657 1242 q 615 1082 657 1119 q 508 1044 574 1044 m 508 1068 q 551 1182 551 1068 q 508 1296 551 1296 q 465 1182 465 1296 q 475 1093 465 1118 q 508 1068 485 1068 m 389 1325 l 376 1344 l 628 1636 l 758 1444 l 389 1325 z "},"Ć":{"ha":896,"x_min":28,"x_max":851,"o":"m 564 7 q 614 19 594 7 l 828 343 l 851 343 l 840 36 q 544 -17 738 -17 q 161 114 294 -17 q 28 496 28 244 q 165 880 28 742 q 551 1018 303 1018 q 832 983 739 1018 l 842 679 l 818 679 l 614 983 q 560 994 586 994 q 396 883 453 994 q 339 515 339 771 q 393 125 339 243 q 564 7 447 7 m 388 1076 l 375 1096 l 626 1388 l 757 1196 l 388 1076 z "},"Ĉ":{"ha":896,"x_min":28,"x_max":851,"o":"m 564 7 q 614 19 594 7 l 828 343 l 851 343 l 840 36 q 544 -17 738 -17 q 161 114 294 -17 q 28 496 28 244 q 165 880 28 742 q 551 1018 303 1018 q 832 983 739 1018 l 842 679 l 818 679 l 614 983 q 560 994 586 994 q 396 883 453 994 q 339 515 339 771 q 393 125 339 243 q 564 7 447 7 m 288 1067 l 271 1083 l 483 1350 l 522 1350 l 735 1083 l 718 1067 l 503 1167 l 288 1067 z "},"Ċ":{"ha":896,"x_min":28,"x_max":851,"o":"m 564 7 q 614 19 594 7 l 828 343 l 851 343 l 840 36 q 544 -17 738 -17 q 161 114 294 -17 q 28 496 28 244 q 165 880 28 742 q 551 1018 303 1018 q 832 983 739 1018 l 842 679 l 818 679 l 614 983 q 560 994 586 994 q 396 883 453 994 q 339 515 339 771 q 393 125 339 243 q 564 7 447 7 m 560 1332 q 653 1294 614 1332 q 693 1201 693 1257 q 653 1109 693 1146 q 560 1072 614 1072 q 464 1109 503 1072 q 425 1201 425 1146 q 464 1294 425 1257 q 560 1332 503 1332 z "},"Č":{"ha":896,"x_min":28,"x_max":851,"o":"m 564 7 q 614 19 594 7 l 828 343 l 851 343 l 840 36 q 544 -17 738 -17 q 161 114 294 -17 q 28 496 28 244 q 165 880 28 742 q 551 1018 303 1018 q 832 983 739 1018 l 842 679 l 818 679 l 614 983 q 560 994 586 994 q 396 883 453 994 q 339 515 339 771 q 393 125 339 243 q 564 7 447 7 m 324 1358 l 539 1258 l 754 1358 l 771 1342 l 558 1075 l 519 1075 l 307 1342 l 324 1358 z "},"Ď":{"ha":1029,"x_min":25,"x_max":1001,"o":"m 1001 517 q 865 139 1001 278 q 488 0 729 0 l 25 0 l 25 24 l 118 43 l 118 960 l 25 978 l 25 1001 l 483 1001 q 867 875 733 1001 q 1001 517 1001 749 m 481 25 q 638 128 597 25 q 679 497 679 231 q 660 786 679 682 q 599 933 640 890 q 469 976 557 976 l 411 976 l 411 25 l 481 25 m 289 1342 l 504 1242 l 719 1342 l 736 1325 l 524 1058 l 485 1058 l 272 1325 l 289 1342 z "},"Ē":{"ha":897,"x_min":25,"x_max":857,"o":"m 25 0 l 25 24 l 118 43 l 118 958 l 26 978 l 26 1001 l 831 1001 l 839 679 l 815 679 l 638 975 l 411 975 l 411 526 l 506 526 l 631 706 l 654 706 l 654 314 l 631 314 l 506 499 l 411 499 l 411 26 l 635 26 l 833 339 l 857 339 l 849 0 l 25 0 m 247 1093 l 247 1176 l 660 1176 l 660 1093 l 247 1093 z "},"Ĕ":{"ha":897,"x_min":25,"x_max":857,"o":"m 25 0 l 25 24 l 118 43 l 118 958 l 26 978 l 26 1001 l 831 1001 l 839 679 l 815 679 l 638 975 l 411 975 l 411 526 l 506 526 l 631 706 l 654 706 l 654 314 l 631 314 l 506 499 l 411 499 l 411 26 l 635 26 l 833 339 l 857 339 l 849 0 l 25 0 m 461 1058 q 246 1288 246 1058 l 269 1288 q 461 1206 282 1206 q 649 1288 631 1206 l 672 1288 q 461 1058 672 1058 z "},"Ė":{"ha":897,"x_min":25,"x_max":857,"o":"m 25 0 l 25 24 l 118 43 l 118 958 l 26 978 l 26 1001 l 831 1001 l 839 679 l 815 679 l 638 975 l 411 975 l 411 526 l 506 526 l 631 706 l 654 706 l 654 314 l 631 314 l 506 499 l 411 499 l 411 26 l 635 26 l 833 339 l 857 339 l 849 0 l 25 0 m 492 1315 q 585 1278 546 1315 q 625 1185 625 1240 q 585 1092 625 1129 q 492 1056 546 1056 q 396 1092 435 1056 q 357 1185 357 1129 q 396 1278 357 1240 q 492 1315 435 1315 z "},"Ę":{"ha":886,"x_min":25,"x_max":857,"o":"m 25 0 l 25 24 l 118 43 l 118 958 l 26 978 l 26 1001 l 831 1001 l 839 679 l 815 679 l 638 975 l 411 975 l 411 526 l 506 526 l 631 706 l 654 706 l 654 314 l 631 314 l 506 499 l 411 499 l 411 26 l 635 26 l 833 339 l 857 339 l 849 0 l 738 0 q 643 -158 643 -99 q 715 -229 643 -229 q 768 -219 742 -229 l 768 -242 q 606 -304 708 -304 q 467 -203 467 -304 q 525 -103 467 -147 q 710 0 583 -60 l 25 0 z "},"Ě":{"ha":897,"x_min":25,"x_max":857,"o":"m 25 0 l 25 24 l 118 43 l 118 958 l 26 978 l 26 1001 l 831 1001 l 839 679 l 815 679 l 638 975 l 411 975 l 411 526 l 506 526 l 631 706 l 654 706 l 654 314 l 631 314 l 506 499 l 411 499 l 411 26 l 635 26 l 833 339 l 857 339 l 849 0 l 25 0 m 275 1342 l 490 1242 l 706 1342 l 722 1325 l 510 1058 l 471 1058 l 258 1325 l 275 1342 z "},"Ĝ":{"ha":982,"x_min":28,"x_max":964,"o":"m 557 -18 q 160 113 292 -18 q 28 494 28 244 q 169 881 28 744 q 568 1018 311 1018 q 867 976 767 1018 l 878 679 l 854 679 l 649 979 q 574 994 621 994 q 407 885 468 994 q 346 514 346 776 q 391 120 346 235 q 551 6 436 6 q 631 26 601 6 l 631 444 l 539 461 l 539 485 l 964 485 l 964 461 l 892 444 l 892 39 q 557 -18 750 -18 m 332 1067 l 315 1083 l 528 1350 l 567 1350 l 779 1083 l 763 1067 l 547 1167 l 332 1067 z "},"Ğ":{"ha":982,"x_min":28,"x_max":964,"o":"m 557 -18 q 160 113 292 -18 q 28 494 28 244 q 169 881 28 744 q 568 1018 311 1018 q 867 976 767 1018 l 878 679 l 854 679 l 649 979 q 574 994 621 994 q 407 885 468 994 q 346 514 346 776 q 391 120 346 235 q 551 6 436 6 q 631 26 601 6 l 631 444 l 539 461 l 539 485 l 964 485 l 964 461 l 892 444 l 892 39 q 557 -18 750 -18 m 554 1075 q 339 1304 339 1075 l 363 1304 q 554 1222 375 1222 q 742 1304 724 1222 l 765 1304 q 554 1075 765 1075 z "},"Ġ":{"ha":982,"x_min":28,"x_max":964,"o":"m 557 -18 q 160 113 292 -18 q 28 494 28 244 q 169 881 28 744 q 568 1018 311 1018 q 867 976 767 1018 l 878 679 l 854 679 l 649 979 q 574 994 621 994 q 407 885 468 994 q 346 514 346 776 q 391 120 346 235 q 551 6 436 6 q 631 26 601 6 l 631 444 l 539 461 l 539 485 l 964 485 l 964 461 l 892 444 l 892 39 q 557 -18 750 -18 m 574 1332 q 667 1294 628 1332 q 707 1201 707 1257 q 667 1109 707 1146 q 574 1072 628 1072 q 478 1109 517 1072 q 439 1201 439 1146 q 478 1294 439 1257 q 574 1332 517 1332 z "},"Ģ":{"ha":982,"x_min":28,"x_max":964,"o":"m 557 -18 q 160 113 292 -18 q 28 494 28 244 q 169 881 28 744 q 568 1018 311 1018 q 867 976 767 1018 l 878 679 l 854 679 l 649 979 q 574 994 621 994 q 407 885 468 994 q 346 514 346 776 q 391 120 346 235 q 551 6 436 6 q 631 26 601 6 l 631 444 l 539 461 l 539 485 l 964 485 l 964 461 l 892 444 l 892 39 q 557 -18 750 -18 m 408 -364 q 446 -261 439 -337 q 436 -87 453 -183 l 640 -87 q 585 -285 650 -214 q 417 -379 521 -356 l 408 -364 z "},"Ĥ":{"ha":1092,"x_min":25,"x_max":1067,"o":"m 25 0 l 25 24 l 119 43 l 119 958 l 25 978 l 25 1001 l 493 1001 l 493 978 l 413 960 l 413 533 l 679 533 l 679 960 l 599 978 l 599 1001 l 1065 1001 l 1065 978 l 972 958 l 972 43 l 1067 24 l 1067 0 l 599 0 l 599 24 l 679 40 l 679 499 l 413 499 l 413 40 l 493 24 l 493 0 l 25 0 m 317 1050 l 300 1067 l 513 1333 l 551 1333 l 764 1067 l 747 1050 l 532 1150 l 317 1050 z "},"Ĩ":{"ha":533,"x_min":18,"x_max":517,"o":"m 25 0 l 25 24 l 119 43 l 119 958 l 25 978 l 25 1001 l 508 1001 l 508 978 l 413 958 l 413 43 l 508 24 l 508 0 l 25 0 m 40 1065 l 18 1071 q 176 1286 65 1286 q 293 1260 221 1286 q 399 1233 372 1233 q 494 1294 451 1233 l 517 1289 q 360 1069 465 1069 q 244 1096 318 1069 q 129 1122 169 1122 q 40 1065 81 1122 z "},"Ī":{"ha":533,"x_min":25,"x_max":508,"o":"m 25 0 l 25 24 l 119 43 l 119 958 l 25 978 l 25 1001 l 508 1001 l 508 978 l 413 958 l 413 43 l 508 24 l 508 0 l 25 0 m 44 1093 l 44 1176 l 457 1176 l 457 1093 l 44 1093 z "},"Ĭ":{"ha":533,"x_min":25,"x_max":508,"o":"m 25 0 l 25 24 l 119 43 l 119 958 l 25 978 l 25 1001 l 508 1001 l 508 978 l 413 958 l 413 43 l 508 24 l 508 0 l 25 0 m 258 1058 q 43 1288 43 1058 l 67 1288 q 258 1206 79 1206 q 446 1288 428 1206 l 469 1288 q 258 1058 469 1058 z "},"Į":{"ha":533,"x_min":25,"x_max":508,"o":"m 25 0 l 25 24 l 119 43 l 119 958 l 25 978 l 25 1001 l 508 1001 l 508 978 l 413 958 l 413 43 l 508 24 l 508 0 l 415 0 q 321 -158 321 -99 q 393 -229 321 -229 q 446 -219 419 -229 l 446 -242 q 283 -304 386 -304 q 144 -203 144 -304 q 203 -103 144 -147 q 388 0 261 -60 l 25 0 z "},"İ":{"ha":533,"x_min":25,"x_max":508,"o":"m 25 0 l 25 24 l 119 43 l 119 958 l 25 978 l 25 1001 l 508 1001 l 508 978 l 413 958 l 413 43 l 508 24 l 508 0 l 25 0 m 271 1315 q 365 1278 325 1315 q 404 1185 404 1240 q 365 1092 404 1129 q 271 1056 325 1056 q 175 1092 214 1056 q 136 1185 136 1129 q 175 1278 136 1240 q 271 1315 214 1315 z "},"Ĵ":{"ha":714,"x_min":3,"x_max":699,"o":"m 264 -14 q 11 18 90 -14 l 3 306 l 26 306 l 189 10 q 315 194 313 10 l 315 958 l 219 978 l 219 1001 l 699 1001 l 699 978 l 608 958 l 608 282 q 264 -14 601 -14 m 235 1050 l 218 1067 l 431 1333 l 469 1333 l 682 1067 l 665 1050 l 450 1150 l 235 1050 z "},"Ķ":{"ha":1032,"x_min":25,"x_max":1024,"o":"m 413 960 l 413 506 l 800 915 l 671 978 l 671 1001 l 972 1001 l 972 978 l 842 918 l 610 672 l 983 40 l 1024 24 l 1024 0 l 685 0 l 413 478 l 413 42 l 506 24 l 506 0 l 25 0 l 25 24 l 119 44 l 119 957 l 25 978 l 25 1001 l 501 1001 l 501 978 l 413 960 m 383 -346 q 421 -243 414 -319 q 411 -69 428 -165 l 615 -69 q 560 -267 625 -196 q 392 -361 496 -337 l 383 -346 z "},"Ĺ":{"ha":846,"x_min":25,"x_max":821,"o":"m 25 0 l 25 24 l 118 44 l 118 957 l 25 978 l 25 1001 l 511 1001 l 511 978 l 411 958 l 411 26 l 569 26 l 797 383 l 821 383 l 803 0 l 25 0 m 139 1060 l 126 1079 l 378 1371 l 508 1179 l 139 1060 z "},"Ļ":{"ha":846,"x_min":25,"x_max":821,"o":"m 25 0 l 25 24 l 118 44 l 118 957 l 25 978 l 25 1001 l 511 1001 l 511 978 l 411 958 l 411 26 l 569 26 l 797 383 l 821 383 l 803 0 l 25 0 m 315 -346 q 353 -243 346 -319 q 343 -69 360 -165 l 547 -69 q 492 -267 557 -196 q 324 -361 428 -337 l 315 -346 z "},"Ľ":{"ha":846,"x_min":25,"x_max":821,"o":"m 25 0 l 25 24 l 118 44 l 118 957 l 25 978 l 25 1001 l 511 1001 l 511 978 l 411 958 l 411 26 l 569 26 l 797 383 l 821 383 l 803 0 l 25 0 m 568 668 l 578 1001 l 786 1001 l 592 668 l 568 668 z "},"Ń":{"ha":999,"x_min":25,"x_max":983,"o":"m 25 0 l 25 24 l 149 94 l 149 933 l 25 978 l 25 1001 l 442 1001 l 839 332 l 846 332 l 846 907 l 710 978 l 710 1001 l 983 1001 l 983 978 l 874 908 l 874 0 l 714 0 l 183 889 l 176 889 l 176 94 l 311 22 l 311 0 l 25 0 m 400 1060 l 388 1079 l 639 1371 l 769 1179 l 400 1060 z "},"Ņ":{"ha":999,"x_min":25,"x_max":983,"o":"m 25 0 l 25 24 l 149 94 l 149 933 l 25 978 l 25 1001 l 442 1001 l 839 332 l 846 332 l 846 907 l 710 978 l 710 1001 l 983 1001 l 983 978 l 874 908 l 874 0 l 714 0 l 183 889 l 176 889 l 176 94 l 311 22 l 311 0 l 25 0 m 369 -346 q 407 -243 400 -319 q 397 -69 414 -165 l 601 -69 q 547 -267 611 -196 q 378 -361 482 -337 l 369 -346 z "},"Ň":{"ha":999,"x_min":25,"x_max":983,"o":"m 25 0 l 25 24 l 149 94 l 149 933 l 25 978 l 25 1001 l 442 1001 l 839 332 l 846 332 l 846 907 l 710 978 l 710 1001 l 983 1001 l 983 978 l 874 908 l 874 0 l 714 0 l 183 889 l 176 889 l 176 94 l 311 22 l 311 0 l 25 0 m 303 1342 l 518 1242 l 733 1342 l 750 1325 l 538 1058 l 499 1058 l 286 1325 l 303 1342 z "},"Ō":{"ha":1025,"x_min":28,"x_max":997,"o":"m 997 507 q 935 229 997 347 q 760 47 874 111 q 510 -17 647 -17 q 158 120 289 -17 q 28 496 28 257 q 90 773 28 654 q 265 955 151 892 q 517 1018 378 1018 q 867 882 738 1018 q 997 507 997 746 m 513 993 q 382 883 418 993 q 346 504 346 772 q 381 115 346 222 q 513 8 415 8 q 640 113 604 8 q 676 494 676 217 q 641 888 676 782 q 513 993 606 993 m 290 1110 l 290 1193 l 703 1193 l 703 1110 l 290 1110 z "},"Ŏ":{"ha":1025,"x_min":28,"x_max":997,"o":"m 997 507 q 935 229 997 347 q 760 47 874 111 q 510 -17 647 -17 q 158 120 289 -17 q 28 496 28 257 q 90 773 28 654 q 265 955 151 892 q 517 1018 378 1018 q 867 882 738 1018 q 997 507 997 746 m 513 993 q 382 883 418 993 q 346 504 346 772 q 381 115 346 222 q 513 8 415 8 q 640 113 604 8 q 676 494 676 217 q 641 888 676 782 q 513 993 606 993 m 504 1075 q 289 1304 289 1075 l 313 1304 q 504 1222 325 1222 q 692 1304 674 1222 l 715 1304 q 504 1075 715 1075 z "},"Ő":{"ha":1025,"x_min":28,"x_max":997,"o":"m 997 507 q 935 229 997 347 q 760 47 874 111 q 510 -17 647 -17 q 158 120 289 -17 q 28 496 28 257 q 90 773 28 654 q 265 955 151 892 q 517 1018 378 1018 q 867 882 738 1018 q 997 507 997 746 m 513 993 q 382 883 418 993 q 346 504 346 772 q 381 115 346 222 q 513 8 415 8 q 640 113 604 8 q 676 494 676 217 q 641 888 676 782 q 513 993 606 993 m 356 1075 l 338 1088 l 456 1360 l 599 1239 l 356 1075 m 596 1076 l 578 1089 l 708 1356 l 846 1232 l 596 1076 z "},"Ŕ":{"ha":1008,"x_min":26,"x_max":1008,"o":"m 908 725 q 858 578 908 640 q 729 490 808 517 l 729 483 l 961 51 l 1008 24 l 1008 0 l 682 0 l 460 450 l 415 450 l 415 42 l 500 24 l 500 0 l 26 0 l 26 24 l 122 44 l 122 954 l 28 978 l 28 1001 l 557 1001 q 908 725 908 993 m 460 481 q 580 536 542 481 q 618 726 618 592 q 580 921 618 867 q 463 975 542 975 l 415 975 l 415 481 l 460 481 m 365 1060 l 353 1079 l 604 1371 l 735 1179 l 365 1060 z "},"Ŗ":{"ha":1008,"x_min":26,"x_max":1008,"o":"m 908 725 q 858 578 908 640 q 729 490 808 517 l 729 483 l 961 51 l 1008 24 l 1008 0 l 682 0 l 460 450 l 415 450 l 415 42 l 500 24 l 500 0 l 26 0 l 26 24 l 122 44 l 122 954 l 28 978 l 28 1001 l 557 1001 q 908 725 908 993 m 460 481 q 580 536 542 481 q 618 726 618 592 q 580 921 618 867 q 463 975 542 975 l 415 975 l 415 481 l 460 481 m 354 -346 q 392 -243 385 -319 q 382 -69 399 -165 l 586 -69 q 531 -267 596 -196 q 363 -361 467 -337 l 354 -346 z "},"Ř":{"ha":1008,"x_min":26,"x_max":1008,"o":"m 908 725 q 858 578 908 640 q 729 490 808 517 l 729 483 l 961 51 l 1008 24 l 1008 0 l 682 0 l 460 450 l 415 450 l 415 42 l 500 24 l 500 0 l 26 0 l 26 24 l 122 44 l 122 954 l 28 978 l 28 1001 l 557 1001 q 908 725 908 993 m 460 481 q 580 536 542 481 q 618 726 618 592 q 580 921 618 867 q 463 975 542 975 l 415 975 l 415 481 l 460 481 m 253 1342 l 468 1242 l 683 1342 l 700 1325 l 488 1058 l 449 1058 l 236 1325 l 253 1342 z "},"Ś":{"ha":793,"x_min":44,"x_max":760,"o":"m 363 -17 q 58 33 174 -17 l 44 308 l 68 308 l 286 21 q 358 8 326 8 q 542 171 542 8 q 495 291 542 246 q 343 375 449 336 l 289 397 q 112 517 172 446 q 51 708 51 589 q 147 938 51 857 q 419 1019 242 1019 q 689 979 564 1019 l 704 721 l 681 721 l 479 985 q 419 996 451 996 q 294 953 336 996 q 253 840 253 910 q 292 733 253 775 q 426 658 331 692 l 569 600 q 718 485 676 551 q 760 317 760 419 q 654 70 760 157 q 363 -17 549 -17 m 268 1078 l 256 1097 l 507 1389 l 638 1197 l 268 1078 z "},"Ŝ":{"ha":793,"x_min":44,"x_max":760,"o":"m 363 -17 q 58 33 174 -17 l 44 308 l 68 308 l 286 21 q 358 8 326 8 q 542 171 542 8 q 495 291 542 246 q 343 375 449 336 l 289 397 q 112 517 172 446 q 51 708 51 589 q 147 938 51 857 q 419 1019 242 1019 q 689 979 564 1019 l 704 721 l 681 721 l 479 985 q 419 996 451 996 q 294 953 336 996 q 253 840 253 910 q 292 733 253 775 q 426 658 331 692 l 569 600 q 718 485 676 551 q 760 317 760 419 q 654 70 760 157 q 363 -17 549 -17 m 167 1068 l 150 1085 l 363 1351 l 401 1351 l 614 1085 l 597 1068 l 382 1168 l 167 1068 z "},"Ş":{"ha":793,"x_min":44,"x_max":760,"o":"m 363 -17 q 58 33 174 -17 l 44 308 l 68 308 l 286 21 q 358 8 326 8 q 542 171 542 8 q 495 291 542 246 q 343 375 449 336 l 289 397 q 112 517 172 446 q 51 708 51 589 q 147 938 51 857 q 419 1019 242 1019 q 689 979 564 1019 l 704 721 l 681 721 l 479 985 q 419 996 451 996 q 294 953 336 996 q 253 840 253 910 q 292 733 253 775 q 426 658 331 692 l 569 600 q 718 485 676 551 q 760 317 760 419 q 654 70 760 157 q 363 -17 549 -17 m 251 -290 l 251 -267 q 328 -283 285 -283 q 418 -203 418 -283 q 346 -133 418 -133 l 335 -135 l 350 0 l 383 0 l 372 -96 q 444 -85 408 -85 q 535 -115 503 -85 q 567 -196 567 -144 q 522 -295 567 -258 q 396 -332 478 -332 q 251 -290 306 -332 z "},"Ș":{"ha":793,"x_min":44,"x_max":760,"o":"m 363 -17 q 58 33 174 -17 l 44 308 l 68 308 l 286 21 q 358 8 326 8 q 542 171 542 8 q 495 291 542 246 q 343 375 449 336 l 289 397 q 112 517 172 446 q 51 708 51 589 q 147 938 51 857 q 419 1019 242 1019 q 689 979 564 1019 l 704 721 l 681 721 l 479 985 q 419 996 451 996 q 294 953 336 996 q 253 840 253 910 q 292 733 253 775 q 426 658 331 692 l 569 600 q 718 485 676 551 q 760 317 760 419 q 654 70 760 157 q 363 -17 549 -17 m 268 -346 q 306 -243 299 -319 q 296 -69 313 -165 l 500 -69 q 445 -267 510 -196 q 276 -361 381 -337 l 268 -346 z "},"Ţ":{"ha":915,"x_min":14,"x_max":899,"o":"m 208 0 l 208 24 l 311 44 l 311 975 l 232 975 l 38 654 l 14 654 l 26 1001 l 888 1001 l 899 654 l 875 654 l 686 975 l 604 975 l 604 44 l 707 24 l 707 0 l 208 0 m 328 -346 q 365 -243 358 -319 q 356 -69 372 -165 l 560 -69 q 505 -267 569 -196 q 336 -361 440 -337 l 328 -346 z "},"Ť":{"ha":915,"x_min":14,"x_max":899,"o":"m 208 0 l 208 24 l 311 44 l 311 975 l 232 975 l 38 654 l 14 654 l 26 1001 l 888 1001 l 899 654 l 875 654 l 686 975 l 604 975 l 604 44 l 707 24 l 707 0 l 208 0 m 226 1342 l 442 1242 l 657 1342 l 674 1325 l 461 1058 l 422 1058 l 210 1325 l 226 1342 z "},"Ț":{"ha":915,"x_min":14,"x_max":899,"o":"m 208 0 l 208 24 l 311 44 l 311 975 l 232 975 l 38 654 l 14 654 l 26 1001 l 888 1001 l 899 654 l 875 654 l 686 975 l 604 975 l 604 44 l 707 24 l 707 0 l 208 0 m 328 -346 q 365 -243 358 -319 q 356 -69 372 -165 l 560 -69 q 505 -267 569 -196 q 336 -361 440 -337 l 328 -346 z "},"Ũ":{"ha":974,"x_min":14,"x_max":960,"o":"m 510 -19 q 100 335 100 -19 l 100 958 l 14 978 l 14 1001 l 482 1001 l 482 978 l 393 960 l 393 335 q 449 140 393 194 q 618 85 506 85 q 786 142 733 85 q 839 339 839 199 l 839 918 l 721 978 l 721 1001 l 960 1001 l 960 978 l 867 917 l 867 343 q 774 72 867 163 q 510 -19 682 -19 m 361 1065 l 339 1071 q 497 1286 386 1286 q 614 1260 542 1286 q 719 1233 693 1233 q 815 1294 772 1233 l 838 1289 q 681 1069 786 1069 q 565 1096 639 1069 q 450 1122 490 1122 q 361 1065 401 1122 z "},"Ū":{"ha":974,"x_min":14,"x_max":960,"o":"m 510 -19 q 100 335 100 -19 l 100 958 l 14 978 l 14 1001 l 482 1001 l 482 978 l 393 960 l 393 335 q 449 140 393 194 q 618 85 506 85 q 786 142 733 85 q 839 339 839 199 l 839 918 l 721 978 l 721 1001 l 960 1001 l 960 978 l 867 917 l 867 343 q 774 72 867 163 q 510 -19 682 -19 m 338 1093 l 338 1176 l 750 1176 l 750 1093 l 338 1093 z "},"Ŭ":{"ha":974,"x_min":14,"x_max":960,"o":"m 510 -19 q 100 335 100 -19 l 100 958 l 14 978 l 14 1001 l 482 1001 l 482 978 l 393 960 l 393 335 q 449 140 393 194 q 618 85 506 85 q 786 142 733 85 q 839 339 839 199 l 839 918 l 721 978 l 721 1001 l 960 1001 l 960 978 l 867 917 l 867 343 q 774 72 867 163 q 510 -19 682 -19 m 553 1058 q 338 1288 338 1058 l 361 1288 q 553 1206 374 1206 q 740 1288 722 1206 l 764 1288 q 553 1058 764 1058 z "},"Ů":{"ha":974,"x_min":14,"x_max":960,"o":"m 510 -19 q 100 335 100 -19 l 100 958 l 14 978 l 14 1001 l 482 1001 l 482 978 l 393 960 l 393 335 q 449 140 393 194 q 618 85 506 85 q 786 142 733 85 q 839 339 839 199 l 839 918 l 721 978 l 721 1001 l 960 1001 l 960 978 l 867 917 l 867 343 q 774 72 867 163 q 510 -19 682 -19 m 579 1044 q 547 1044 579 1044 q 472 1082 514 1044 q 431 1182 431 1119 q 472 1281 431 1242 q 579 1319 514 1319 q 686 1281 644 1319 q 728 1182 728 1242 q 686 1082 728 1119 q 579 1044 644 1044 m 579 1068 q 622 1182 622 1068 q 579 1296 622 1296 q 536 1182 536 1296 q 546 1093 536 1118 q 579 1068 556 1068 z "},"Ű":{"ha":974,"x_min":14,"x_max":960,"o":"m 510 -19 q 100 335 100 -19 l 100 958 l 14 978 l 14 1001 l 482 1001 l 482 978 l 393 960 l 393 335 q 449 140 393 194 q 618 85 506 85 q 786 142 733 85 q 839 339 839 199 l 839 918 l 721 978 l 721 1001 l 960 1001 l 960 978 l 867 917 l 867 343 q 774 72 867 163 q 510 -19 682 -19 m 385 1058 l 367 1071 l 485 1343 l 628 1222 l 385 1058 m 625 1060 l 607 1072 l 738 1339 l 875 1215 l 625 1060 z "},"Ų":{"ha":974,"x_min":14,"x_max":960,"o":"m 510 -19 q 100 335 100 -19 l 100 958 l 14 978 l 14 1001 l 482 1001 l 482 978 l 393 960 l 393 335 q 449 140 393 194 q 618 85 506 85 q 786 142 733 85 q 839 339 839 199 l 839 918 l 721 978 l 721 1001 l 960 1001 l 960 978 l 867 917 l 867 333 q 714 22 865 124 q 608 -78 643 -25 q 574 -158 574 -131 q 646 -229 574 -229 q 699 -219 672 -229 l 699 -242 q 536 -304 639 -304 q 397 -203 397 -304 q 451 -107 397 -151 q 643 -3 506 -62 q 510 -19 585 -19 z "},"Ŵ":{"ha":1383,"x_min":11,"x_max":1372,"o":"m 336 0 l 83 929 l 11 978 l 11 1001 l 451 1001 l 451 978 l 367 936 l 526 301 l 535 301 l 707 1001 l 863 1001 l 1078 286 l 1088 286 l 1233 911 l 1100 978 l 1100 1001 l 1372 1001 l 1372 978 l 1263 908 l 1049 0 l 893 0 l 676 718 l 667 718 l 492 0 l 336 0 m 558 1050 l 542 1067 l 754 1333 l 793 1333 l 1006 1067 l 989 1050 l 774 1150 l 558 1050 z "},"Ẁ":{"ha":1383,"x_min":11,"x_max":1372,"o":"m 336 0 l 83 929 l 11 978 l 11 1001 l 451 1001 l 451 978 l 367 936 l 526 301 l 535 301 l 707 1001 l 863 1001 l 1078 286 l 1088 286 l 1233 911 l 1100 978 l 1100 1001 l 1372 1001 l 1372 978 l 1263 908 l 1049 0 l 893 0 l 676 718 l 667 718 l 492 0 l 336 0 m 924 1061 l 553 1179 l 683 1371 l 936 1081 l 924 1061 z "},"Ẃ":{"ha":1383,"x_min":11,"x_max":1372,"o":"m 336 0 l 83 929 l 11 978 l 11 1001 l 451 1001 l 451 978 l 367 936 l 526 301 l 535 301 l 707 1001 l 863 1001 l 1078 286 l 1088 286 l 1233 911 l 1100 978 l 1100 1001 l 1372 1001 l 1372 978 l 1263 908 l 1049 0 l 893 0 l 676 718 l 667 718 l 492 0 l 336 0 m 650 1060 l 638 1079 l 889 1371 l 1019 1179 l 650 1060 z "},"Ẅ":{"ha":1383,"x_min":11,"x_max":1372,"o":"m 336 0 l 83 929 l 11 978 l 11 1001 l 451 1001 l 451 978 l 367 936 l 526 301 l 535 301 l 707 1001 l 863 1001 l 1078 286 l 1088 286 l 1233 911 l 1100 978 l 1100 1001 l 1372 1001 l 1372 978 l 1263 908 l 1049 0 l 893 0 l 676 718 l 667 718 l 492 0 l 336 0 m 924 1061 q 899 1061 924 1061 q 842 1094 875 1061 q 808 1175 808 1128 q 842 1255 808 1222 q 924 1288 875 1288 q 1006 1255 972 1288 q 1040 1175 1040 1222 q 1006 1094 1040 1128 q 924 1061 972 1061 m 617 1061 q 533 1094 567 1061 q 499 1175 499 1128 q 533 1255 499 1222 q 617 1288 567 1288 q 698 1255 665 1288 q 731 1175 731 1222 q 698 1094 731 1128 q 617 1061 665 1061 z "},"Ŷ":{"ha":928,"x_min":7,"x_max":922,"o":"m 224 0 l 224 24 l 326 44 l 326 411 l 71 944 l 7 978 l 7 1001 l 447 1001 l 447 978 l 371 946 l 600 460 l 607 460 l 786 911 l 658 978 l 658 1001 l 922 1001 l 922 978 l 814 910 l 619 419 l 619 44 l 718 24 l 718 0 l 224 0 m 286 1050 l 269 1067 l 482 1333 l 521 1333 l 733 1067 l 717 1050 l 501 1150 l 286 1050 z "},"Ỳ":{"ha":928,"x_min":7,"x_max":922,"o":"m 224 0 l 224 24 l 326 44 l 326 411 l 71 944 l 7 978 l 7 1001 l 447 1001 l 447 978 l 371 946 l 600 460 l 607 460 l 786 911 l 658 978 l 658 1001 l 922 1001 l 922 978 l 814 910 l 619 419 l 619 44 l 718 24 l 718 0 l 224 0 m 654 1061 l 283 1179 l 414 1371 l 667 1081 l 654 1061 z "},"Ź":{"ha":871,"x_min":24,"x_max":846,"o":"m 24 0 l 24 24 l 535 975 l 274 975 l 79 653 l 56 653 l 72 1001 l 842 1001 l 842 978 l 331 26 l 621 26 l 822 371 l 846 371 l 826 0 l 24 0 m 382 1060 l 369 1079 l 621 1371 l 751 1179 l 382 1060 z "},"Ż":{"ha":871,"x_min":24,"x_max":846,"o":"m 24 0 l 24 24 l 535 975 l 274 975 l 79 653 l 56 653 l 72 1001 l 842 1001 l 842 978 l 331 26 l 621 26 l 822 371 l 846 371 l 826 0 l 24 0 m 475 1315 q 569 1278 529 1315 q 608 1185 608 1240 q 569 1092 608 1129 q 475 1056 529 1056 q 379 1092 418 1056 q 340 1185 340 1129 q 379 1278 340 1240 q 475 1315 418 1315 z "},"Ǽ":{"ha":1401,"x_min":0,"x_max":1361,"o":"m 524 0 l 524 24 l 617 42 l 617 375 l 310 375 l 165 97 l 299 24 l 299 0 l 0 0 l 0 24 l 138 107 l 581 956 l 482 978 l 482 1001 l 1335 1001 l 1343 679 l 1319 679 l 1142 975 l 915 975 l 915 526 l 1010 526 l 1135 706 l 1158 706 l 1158 314 l 1135 314 l 1010 499 l 915 499 l 915 26 l 1139 26 l 1338 339 l 1361 339 l 1353 0 l 524 0 m 608 949 l 326 407 l 617 407 l 617 949 l 608 949 m 736 1060 l 724 1079 l 975 1371 l 1106 1179 l 736 1060 z "},"Ǿ":{"ha":1025,"x_min":28,"x_max":997,"o":"m 85 -58 l 192 89 q 28 496 28 229 q 90 773 28 654 q 265 955 151 892 q 517 1018 378 1018 q 808 933 688 1018 l 879 1031 l 921 1031 l 835 913 q 997 507 997 774 q 935 229 997 347 q 760 47 874 111 q 510 -17 647 -17 q 218 68 339 -17 l 126 -58 l 85 -58 m 513 993 q 382 883 418 993 q 346 504 346 772 l 351 297 l 667 749 q 615 942 653 892 q 513 993 576 993 m 676 494 l 671 697 l 356 247 q 408 59 369 110 q 513 8 446 8 q 640 113 604 8 q 676 494 676 217 m 396 1089 l 383 1108 l 635 1400 l 765 1208 l 396 1089 z "},"Đ":{"ha":1029,"x_min":25,"x_max":1001,"o":"m 39 496 l 39 531 l 118 531 l 118 960 l 25 978 l 25 1001 l 483 1001 q 867 875 733 1001 q 1001 517 1001 749 q 865 139 1001 278 q 488 0 729 0 l 25 0 l 25 24 l 118 43 l 118 496 l 39 496 m 679 497 q 660 786 679 682 q 599 933 640 890 q 469 976 557 976 l 411 976 l 411 531 l 560 531 l 560 496 l 411 496 l 411 25 l 492 25 q 640 133 601 29 q 679 497 679 238 z "},"Ħ":{"ha":1092,"x_min":24,"x_max":1068,"o":"m 25 0 l 25 24 l 119 43 l 119 714 l 24 714 l 24 749 l 119 749 l 119 958 l 25 978 l 25 1001 l 493 1001 l 493 978 l 413 960 l 413 749 l 679 749 l 679 960 l 599 978 l 599 1001 l 1065 1001 l 1065 978 l 972 958 l 972 749 l 1068 749 l 1068 714 l 972 714 l 972 43 l 1067 24 l 1067 0 l 599 0 l 599 24 l 679 40 l 679 499 l 413 499 l 413 40 l 493 24 l 493 0 l 25 0 m 413 533 l 679 533 l 679 714 l 413 714 l 413 533 z "},"Ĳ":{"ha":1247,"x_min":25,"x_max":1232,"o":"m 25 0 l 25 24 l 119 43 l 119 958 l 25 978 l 25 1001 l 508 1001 l 508 978 l 413 958 l 413 43 l 508 24 l 508 0 l 25 0 m 797 -14 q 544 18 624 -14 l 536 306 l 560 306 l 722 10 q 849 194 846 10 l 849 958 l 753 978 l 753 1001 l 1232 1001 l 1232 978 l 1142 958 l 1142 282 q 797 -14 1135 -14 z "},"Ŀ":{"ha":846,"x_min":25,"x_max":822,"o":"m 25 0 l 25 24 l 118 44 l 118 957 l 25 978 l 25 1001 l 511 1001 l 511 978 l 411 958 l 411 26 l 569 26 l 797 383 l 821 383 l 803 0 l 25 0 m 688 682 q 782 644 742 682 q 822 551 822 607 q 782 459 822 496 q 688 422 742 422 q 592 459 631 422 q 554 551 554 496 q 592 644 554 607 q 688 682 631 682 z "},"Ŋ":{"ha":999,"x_min":25,"x_max":983,"o":"m 675 -233 q 565 -226 610 -233 l 556 15 l 579 15 l 728 -201 q 844 -18 833 -172 l 183 889 l 176 889 l 176 94 l 311 22 l 311 0 l 25 0 l 25 24 l 149 94 l 149 933 l 25 978 l 25 1001 l 442 1001 l 839 432 l 846 432 l 846 907 l 710 978 l 710 1001 l 983 1001 l 983 978 l 874 908 l 874 19 q 675 -233 872 -233 z "},"Ŧ":{"ha":915,"x_min":14,"x_max":899,"o":"m 208 0 l 208 24 l 311 44 l 311 538 l 160 538 l 160 572 l 311 572 l 311 975 l 232 975 l 38 654 l 14 654 l 26 1001 l 888 1001 l 899 654 l 875 654 l 686 975 l 604 975 l 604 572 l 754 572 l 754 538 l 604 538 l 604 44 l 707 24 l 707 0 l 208 0 z "},"µ":{"ha":900,"x_min":15,"x_max":878,"o":"m 99 674 l 15 707 l 15 731 l 321 775 l 353 772 l 353 124 q 450 89 388 89 q 544 111 493 89 l 544 761 l 796 761 l 796 88 l 878 54 l 878 31 l 578 -17 l 547 -14 l 547 83 l 539 83 q 382 1 468 1 q 336 8 360 1 l 353 -306 l 99 -306 l 99 674 z "},"ā":{"ha":774,"x_min":22,"x_max":758,"o":"m 429 447 l 429 549 q 402 708 429 664 q 311 753 375 753 l 283 750 l 96 496 l 72 496 l 78 732 q 360 779 231 779 q 599 729 513 779 q 685 550 685 679 l 685 56 l 758 36 l 758 17 q 607 -18 703 -18 q 435 71 471 -18 l 428 71 q 228 -21 360 -21 q 79 34 136 -21 q 22 188 22 89 q 235 410 22 361 l 429 447 m 365 79 q 429 106 408 79 l 429 411 l 378 407 q 293 360 318 401 q 268 235 268 319 q 365 79 268 79 m 169 894 l 169 978 l 582 978 l 582 894 l 169 894 z "},"ă":{"ha":774,"x_min":22,"x_max":758,"o":"m 429 447 l 429 549 q 402 708 429 664 q 311 753 375 753 l 283 750 l 96 496 l 72 496 l 78 732 q 360 779 231 779 q 599 729 513 779 q 685 550 685 679 l 685 56 l 758 36 l 758 17 q 607 -18 703 -18 q 435 71 471 -18 l 428 71 q 228 -21 360 -21 q 79 34 136 -21 q 22 188 22 89 q 235 410 22 361 l 429 447 m 365 79 q 429 106 408 79 l 429 411 l 378 407 q 293 360 318 401 q 268 235 268 319 q 365 79 268 79 m 378 831 q 163 1060 163 831 l 186 1060 q 378 978 199 978 q 565 1060 547 978 l 589 1060 q 378 831 589 831 z "},"ą":{"ha":774,"x_min":22,"x_max":776,"o":"m 429 447 l 429 549 q 402 708 429 664 q 311 753 375 753 l 283 750 l 96 496 l 72 496 l 78 732 q 360 779 231 779 q 599 729 513 779 q 685 550 685 679 l 685 56 l 758 36 l 758 17 q 651 -158 651 -107 q 724 -229 651 -229 q 776 -219 750 -229 l 776 -242 q 614 -304 717 -304 q 475 -203 475 -304 q 530 -108 475 -154 q 740 14 585 -62 l 740 17 q 601 -18 651 -18 q 435 71 471 -18 l 428 71 q 228 -21 360 -21 q 79 34 136 -21 q 22 188 22 89 q 235 410 22 361 l 429 447 m 365 79 q 429 106 408 79 l 429 411 l 378 407 q 293 360 318 401 q 268 235 268 319 q 365 79 268 79 z "},"ǻ":{"ha":774,"x_min":22,"x_max":758,"o":"m 429 447 l 429 549 q 402 708 429 664 q 311 753 375 753 l 283 750 l 96 496 l 72 496 l 78 732 q 360 779 231 779 q 599 729 513 779 q 685 550 685 679 l 685 56 l 758 36 l 758 17 q 607 -18 703 -18 q 435 71 471 -18 l 428 71 q 228 -21 360 -21 q 79 34 136 -21 q 22 188 22 89 q 235 410 22 361 l 429 447 m 365 79 q 429 106 408 79 l 429 411 l 378 407 q 293 360 318 401 q 268 235 268 319 q 365 79 268 79 m 378 824 q 345 824 378 824 q 271 861 313 824 q 229 961 229 899 q 271 1060 229 1021 q 378 1099 313 1099 q 485 1060 443 1099 q 526 961 526 1021 q 485 861 526 899 q 378 824 443 824 m 378 847 q 421 961 421 847 q 378 1075 421 1075 q 335 961 335 1075 q 344 872 335 897 q 378 847 354 847 m 258 1107 l 246 1126 l 497 1418 l 628 1226 l 258 1107 z "},"ć":{"ha":724,"x_min":28,"x_max":678,"o":"m 399 -18 q 124 90 221 -18 q 28 383 28 197 q 137 672 28 565 q 431 779 246 779 q 671 754 590 779 l 675 497 l 651 497 l 465 751 l 450 753 q 325 669 369 753 q 281 432 281 586 q 339 188 281 271 q 526 106 397 106 q 678 135 614 106 l 678 111 q 399 -18 583 -18 m 292 832 l 279 851 l 531 1143 l 661 951 l 292 832 z "},"ĉ":{"ha":724,"x_min":28,"x_max":678,"o":"m 399 -18 q 124 90 221 -18 q 28 383 28 197 q 137 672 28 565 q 431 779 246 779 q 671 754 590 779 l 675 497 l 651 497 l 465 751 l 450 753 q 325 669 369 753 q 281 432 281 586 q 339 188 281 271 q 526 106 397 106 q 678 135 614 106 l 678 111 q 399 -18 583 -18 m 186 821 l 169 838 l 382 1104 l 421 1104 l 633 838 l 617 821 l 401 921 l 186 821 z "},"ċ":{"ha":724,"x_min":28,"x_max":678,"o":"m 399 -18 q 124 90 221 -18 q 28 383 28 197 q 137 672 28 565 q 431 779 246 779 q 671 754 590 779 l 675 497 l 651 497 l 465 751 l 450 753 q 325 669 369 753 q 281 432 281 586 q 339 188 281 271 q 526 106 397 106 q 678 135 614 106 l 678 111 q 399 -18 583 -18 m 421 1093 q 515 1056 475 1093 q 554 963 554 1018 q 515 870 554 907 q 421 833 475 833 q 325 870 364 833 q 286 963 286 907 q 325 1056 286 1018 q 421 1093 364 1093 z "},"č":{"ha":724,"x_min":28,"x_max":678,"o":"m 399 -18 q 124 90 221 -18 q 28 383 28 197 q 137 672 28 565 q 431 779 246 779 q 671 754 590 779 l 675 497 l 651 497 l 465 751 l 450 753 q 325 669 369 753 q 281 432 281 586 q 339 188 281 271 q 526 106 397 106 q 678 135 614 106 l 678 111 q 399 -18 583 -18 m 204 1125 l 419 1025 l 635 1125 l 651 1108 l 439 842 l 400 842 l 188 1108 l 204 1125 z "},"ď":{"ha":858,"x_min":28,"x_max":1047,"o":"m 381 776 q 511 753 467 776 l 511 1000 l 428 1029 l 428 1053 l 735 1097 l 764 1093 l 764 68 l 849 42 l 849 18 l 539 -17 l 515 -14 l 515 72 l 508 72 q 314 -19 424 -19 q 109 76 190 -19 q 28 365 28 172 q 125 672 28 568 q 381 776 222 776 m 440 88 q 511 104 485 88 l 511 719 q 429 738 475 738 q 294 396 294 738 q 331 159 294 231 q 440 88 368 88 m 831 782 l 840 1088 l 1047 1088 l 854 782 l 831 782 z "},"ē":{"ha":771,"x_min":25,"x_max":736,"o":"m 736 407 l 281 407 q 344 185 288 267 q 544 104 400 104 q 714 135 643 104 l 714 113 q 604 22 682 64 q 414 -21 526 -21 q 124 88 222 -21 q 25 383 25 197 q 127 672 25 565 q 403 778 229 778 q 657 688 578 778 q 736 407 736 597 m 397 751 q 281 435 281 751 l 496 444 q 472 687 496 622 q 397 751 447 751 m 186 894 l 186 978 l 599 978 l 599 894 l 186 894 z "},"ĕ":{"ha":771,"x_min":25,"x_max":736,"o":"m 736 407 l 281 407 q 344 185 288 267 q 544 104 400 104 q 714 135 643 104 l 714 113 q 604 22 682 64 q 414 -21 526 -21 q 124 88 222 -21 q 25 383 25 197 q 127 672 25 565 q 403 778 229 778 q 657 688 578 778 q 736 407 736 597 m 397 751 q 281 435 281 751 l 496 444 q 472 687 496 622 q 397 751 447 751 m 394 831 q 179 1060 179 831 l 203 1060 q 394 978 215 978 q 582 1060 564 978 l 606 1060 q 394 831 606 831 z "},"ė":{"ha":771,"x_min":25,"x_max":736,"o":"m 736 407 l 281 407 q 344 185 288 267 q 544 104 400 104 q 714 135 643 104 l 714 113 q 604 22 682 64 q 414 -21 526 -21 q 124 88 222 -21 q 25 383 25 197 q 127 672 25 565 q 403 778 229 778 q 657 688 578 778 q 736 407 736 597 m 397 751 q 281 435 281 751 l 496 444 q 472 687 496 622 q 397 751 447 751 m 393 1093 q 487 1056 447 1093 q 526 963 526 1018 q 487 870 526 907 q 393 833 447 833 q 297 870 336 833 q 258 963 258 907 q 297 1056 258 1018 q 393 1093 336 1093 z "},"ę":{"ha":771,"x_min":25,"x_max":736,"o":"m 499 -304 q 360 -203 360 -304 q 417 -104 360 -154 q 599 18 475 -54 q 414 -21 518 -21 q 124 88 222 -21 q 25 383 25 197 q 127 672 25 565 q 403 778 229 778 q 657 688 578 778 q 736 407 736 597 l 281 407 q 344 185 288 267 q 544 104 400 104 q 714 135 643 104 l 714 113 q 647 32 688 71 q 536 -158 536 -75 q 608 -229 536 -229 q 661 -219 635 -229 l 661 -242 q 499 -304 601 -304 m 397 751 q 281 435 281 751 l 496 444 q 472 687 496 622 q 397 751 447 751 z "},"ě":{"ha":771,"x_min":25,"x_max":736,"o":"m 736 407 l 281 407 q 344 185 288 267 q 544 104 400 104 q 714 135 643 104 l 714 113 q 604 22 682 64 q 414 -21 526 -21 q 124 88 222 -21 q 25 383 25 197 q 127 672 25 565 q 403 778 229 778 q 657 688 578 778 q 736 407 736 597 m 397 751 q 281 435 281 751 l 496 444 q 472 687 496 622 q 397 751 447 751 m 176 1125 l 392 1025 l 607 1125 l 624 1108 l 411 842 l 372 842 l 160 1108 l 176 1125 z "},"ĝ":{"ha":797,"x_min":-1,"x_max":788,"o":"m 367 -311 q 92 -279 185 -311 q -1 -172 -1 -247 q 181 -61 -1 -93 l 181 -54 q 50 85 50 -19 q 95 192 50 146 q 215 261 140 239 l 215 268 q 93 363 140 299 q 46 510 46 428 q 137 709 46 639 q 374 779 228 779 q 524 753 440 779 l 768 783 l 768 658 l 592 714 l 592 706 q 701 503 701 629 q 610 308 701 375 q 374 242 518 242 q 246 257 322 242 q 222 204 222 233 q 283 154 222 154 l 536 154 q 725 113 663 154 q 788 -32 788 71 q 682 -232 788 -153 q 367 -311 576 -311 m 464 506 q 440 701 464 649 q 374 753 417 753 q 308 701 331 753 q 285 504 285 649 q 308 319 285 369 q 374 268 331 268 q 464 506 464 268 m 371 -285 q 545 -244 488 -285 q 603 -136 603 -203 q 524 -64 603 -67 l 213 -64 q 192 -150 192 -103 q 371 -285 192 -285 m 168 821 l 151 838 l 364 1104 l 403 1104 l 615 838 l 599 821 l 383 921 l 168 821 z "},"ğ":{"ha":797,"x_min":-1,"x_max":788,"o":"m 367 -311 q 92 -279 185 -311 q -1 -172 -1 -247 q 181 -61 -1 -93 l 181 -54 q 50 85 50 -19 q 95 192 50 146 q 215 261 140 239 l 215 268 q 93 363 140 299 q 46 510 46 428 q 137 709 46 639 q 374 779 228 779 q 524 753 440 779 l 768 783 l 768 658 l 592 714 l 592 706 q 701 503 701 629 q 610 308 701 375 q 374 242 518 242 q 246 257 322 242 q 222 204 222 233 q 283 154 222 154 l 536 154 q 725 113 663 154 q 788 -32 788 71 q 682 -232 788 -153 q 367 -311 576 -311 m 464 506 q 440 701 464 649 q 374 753 417 753 q 308 701 331 753 q 285 504 285 649 q 308 319 285 369 q 374 268 331 268 q 464 506 464 268 m 371 -285 q 545 -244 488 -285 q 603 -136 603 -203 q 524 -64 603 -67 l 213 -64 q 192 -150 192 -103 q 371 -285 192 -285 m 386 831 q 171 1060 171 831 l 194 1060 q 386 978 207 978 q 574 1060 556 978 l 597 1060 q 386 831 597 831 z "},"ġ":{"ha":797,"x_min":-1,"x_max":788,"o":"m 367 -311 q 92 -279 185 -311 q -1 -172 -1 -247 q 181 -61 -1 -93 l 181 -54 q 50 85 50 -19 q 95 192 50 146 q 215 261 140 239 l 215 268 q 93 363 140 299 q 46 510 46 428 q 137 709 46 639 q 374 779 228 779 q 524 753 440 779 l 768 783 l 768 658 l 592 714 l 592 706 q 701 503 701 629 q 610 308 701 375 q 374 242 518 242 q 246 257 322 242 q 222 204 222 233 q 283 154 222 154 l 536 154 q 725 113 663 154 q 788 -32 788 71 q 682 -232 788 -153 q 367 -311 576 -311 m 464 506 q 440 701 464 649 q 374 753 417 753 q 308 701 331 753 q 285 504 285 649 q 308 319 285 369 q 374 268 331 268 q 464 506 464 268 m 371 -285 q 545 -244 488 -285 q 603 -136 603 -203 q 524 -64 603 -67 l 213 -64 q 192 -150 192 -103 q 371 -285 192 -285 m 385 1093 q 478 1056 439 1093 q 518 963 518 1018 q 478 870 518 907 q 385 833 439 833 q 289 870 328 833 q 250 963 250 907 q 289 1056 250 1018 q 385 1093 328 1093 z "},"ģ":{"ha":797,"x_min":-1,"x_max":788,"o":"m 367 -311 q 92 -279 185 -311 q -1 -172 -1 -247 q 181 -61 -1 -93 l 181 -54 q 50 85 50 -19 q 95 192 50 146 q 215 261 140 239 l 215 268 q 93 363 140 299 q 46 510 46 428 q 137 709 46 639 q 374 779 228 779 q 524 753 440 779 l 768 783 l 768 658 l 592 714 l 592 706 q 701 503 701 629 q 610 308 701 375 q 374 242 518 242 q 246 257 322 242 q 222 204 222 233 q 283 154 222 154 l 536 154 q 725 113 663 154 q 788 -32 788 71 q 682 -232 788 -153 q 367 -311 576 -311 m 464 506 q 440 701 464 649 q 374 753 417 753 q 308 701 331 753 q 285 504 285 649 q 308 319 285 369 q 374 268 331 268 q 464 506 464 268 m 371 -285 q 545 -244 488 -285 q 603 -136 603 -203 q 524 -64 603 -67 l 213 -64 q 192 -150 192 -103 q 371 -285 192 -285 m 506 1125 q 468 1022 475 1099 q 478 849 461 944 l 274 849 q 328 1046 264 975 q 497 1140 393 1117 l 506 1125 z "},"ĥ":{"ha":900,"x_min":18,"x_max":888,"o":"m 22 24 l 101 46 l 101 996 l 18 1029 l 18 1053 l 319 1097 l 351 1093 l 351 675 l 360 675 q 478 752 408 725 q 618 779 547 779 q 763 731 717 779 q 808 578 808 682 l 808 46 l 888 24 l 888 0 l 485 0 l 485 24 l 556 42 l 556 564 q 457 672 556 672 q 356 647 406 672 l 356 42 l 425 24 l 425 0 l 22 0 l 22 24 m 225 1136 l 208 1153 l 421 1419 l 460 1419 l 672 1153 l 656 1136 l 440 1236 l 225 1136 z "},"ĩ":{"ha":454,"x_min":-22,"x_max":476,"o":"m 18 731 l 322 775 l 357 772 l 357 46 l 435 24 l 435 0 l 24 0 l 24 24 l 103 46 l 103 674 l 18 707 l 18 731 m 0 846 l -22 851 q 136 1067 25 1067 q 253 1040 181 1067 q 358 1014 332 1014 q 454 1075 411 1014 l 476 1069 q 319 850 425 850 q 203 876 278 850 q 89 903 129 903 q 0 846 40 903 z "},"ī":{"ha":454,"x_min":18,"x_max":435,"o":"m 18 731 l 322 775 l 357 772 l 357 46 l 435 24 l 435 0 l 24 0 l 24 24 l 103 46 l 103 674 l 18 707 l 18 731 m 22 894 l 22 978 l 435 978 l 435 894 l 22 894 z "},"ĭ":{"ha":454,"x_min":15,"x_max":442,"o":"m 18 731 l 322 775 l 357 772 l 357 46 l 435 24 l 435 0 l 24 0 l 24 24 l 103 46 l 103 674 l 18 707 l 18 731 m 231 831 q 15 1060 15 831 l 39 1060 q 231 978 51 978 q 418 1060 400 978 l 442 1060 q 231 831 442 831 z "},"į":{"ha":454,"x_min":18,"x_max":435,"o":"m 224 1086 q 318 1049 278 1086 q 358 956 358 1011 q 318 863 358 900 q 224 826 278 826 q 129 863 168 826 q 90 956 90 900 q 129 1049 90 1011 q 224 1086 168 1086 m 18 731 l 322 775 l 357 772 l 357 46 l 435 24 l 435 0 l 24 0 l 24 24 l 103 46 l 103 674 l 18 707 l 18 731 m 219 -304 q 81 -203 81 -304 q 140 -105 81 -149 q 328 0 199 -61 l 351 0 q 257 -158 257 -99 q 329 -229 257 -229 q 382 -219 356 -229 l 382 -240 q 219 -304 311 -304 z "},"ĵ":{"ha":429,"x_min":-112,"x_max":460,"o":"m 103 674 l 18 707 l 18 731 l 322 775 l 357 772 l 357 8 q 280 -220 357 -137 q 44 -303 203 -303 q -108 -283 -47 -303 l -112 -86 l -89 -86 l 24 -279 q 103 -140 101 -276 l 103 674 m 13 821 l -4 838 l 208 1104 l 247 1104 l 460 838 l 443 821 l 228 921 l 13 821 z "},"ķ":{"ha":888,"x_min":18,"x_max":894,"o":"m 356 1093 l 356 392 l 664 675 l 546 738 l 546 761 l 836 761 l 836 738 l 706 678 l 540 521 l 828 49 l 894 24 l 894 0 l 563 0 l 356 364 l 356 47 l 431 25 l 431 0 l 22 0 l 22 24 l 101 46 l 101 997 l 18 1029 l 18 1053 l 319 1097 l 356 1093 m 311 -346 q 349 -243 342 -319 q 339 -69 356 -165 l 543 -69 q 488 -267 553 -196 q 319 -361 424 -337 l 311 -346 z "},"ĺ":{"ha":450,"x_min":18,"x_max":482,"o":"m 18 1053 l 326 1097 l 357 1093 l 357 46 l 436 24 l 436 0 l 24 0 l 24 24 l 103 46 l 103 997 l 18 1029 l 18 1053 m 113 1146 l 100 1165 l 351 1457 l 482 1265 l 113 1146 z "},"ļ":{"ha":450,"x_min":18,"x_max":436,"o":"m 18 1053 l 326 1097 l 357 1093 l 357 46 l 436 24 l 436 0 l 24 0 l 24 24 l 103 46 l 103 997 l 18 1029 l 18 1053 m 101 -346 q 139 -243 132 -319 q 129 -69 146 -165 l 333 -69 q 278 -267 343 -196 q 110 -361 214 -337 l 101 -346 z "},"ľ":{"ha":450,"x_min":18,"x_max":643,"o":"m 18 1053 l 326 1097 l 357 1093 l 357 46 l 436 24 l 436 0 l 24 0 l 24 24 l 103 46 l 103 997 l 18 1029 l 18 1053 m 426 782 l 436 1088 l 643 1088 l 450 782 l 426 782 z "},"ń":{"ha":901,"x_min":18,"x_max":888,"o":"m 22 24 l 101 46 l 101 674 l 18 707 l 18 731 l 321 775 l 351 772 l 351 675 l 360 675 q 478 752 408 725 q 618 779 547 779 q 763 731 717 779 q 808 578 808 682 l 808 46 l 888 24 l 888 0 l 485 0 l 485 24 l 556 42 l 556 564 q 457 672 556 672 q 356 647 406 672 l 356 42 l 425 24 l 425 0 l 22 0 l 22 24 m 343 832 l 331 851 l 582 1143 l 713 951 l 343 832 z "},"ņ":{"ha":901,"x_min":18,"x_max":888,"o":"m 22 24 l 101 46 l 101 674 l 18 707 l 18 731 l 321 775 l 351 772 l 351 675 l 360 675 q 478 752 408 725 q 618 779 547 779 q 763 731 717 779 q 808 578 808 682 l 808 46 l 888 24 l 888 0 l 485 0 l 485 24 l 556 42 l 556 564 q 457 672 556 672 q 356 647 406 672 l 356 42 l 425 24 l 425 0 l 22 0 l 22 24 m 325 -346 q 363 -243 356 -319 q 353 -69 369 -165 l 557 -69 q 502 -267 567 -196 q 333 -361 438 -337 l 325 -346 z "},"ň":{"ha":901,"x_min":18,"x_max":888,"o":"m 22 24 l 101 46 l 101 674 l 18 707 l 18 731 l 321 775 l 351 772 l 351 675 l 360 675 q 478 752 408 725 q 618 779 547 779 q 763 731 717 779 q 808 578 808 682 l 808 46 l 888 24 l 888 0 l 485 0 l 485 24 l 556 42 l 556 564 q 457 672 556 672 q 356 647 406 672 l 356 42 l 425 24 l 425 0 l 22 0 l 22 24 m 238 1125 l 453 1025 l 668 1125 l 685 1108 l 472 842 l 433 842 l 221 1108 l 238 1125 z "},"ō":{"ha":822,"x_min":21,"x_max":801,"o":"m 411 -21 q 324 -21 411 -21 q 128 89 236 -21 q 21 383 21 199 q 128 674 21 568 q 410 779 236 779 q 694 672 586 779 q 801 382 801 565 q 694 88 801 196 q 411 -21 586 -21 m 411 754 q 332 700 357 754 q 294 382 294 619 q 320 93 294 182 q 413 4 346 4 q 503 94 478 4 q 528 383 528 185 q 496 690 528 611 q 411 754 471 754 m 206 894 l 206 978 l 618 978 l 618 894 l 206 894 z "},"ŏ":{"ha":822,"x_min":21,"x_max":801,"o":"m 411 -21 q 324 -21 411 -21 q 128 89 236 -21 q 21 383 21 199 q 128 674 21 568 q 410 779 236 779 q 694 672 586 779 q 801 382 801 565 q 694 88 801 196 q 411 -21 586 -21 m 411 754 q 332 700 357 754 q 294 382 294 619 q 320 93 294 182 q 413 4 346 4 q 503 94 478 4 q 528 383 528 185 q 496 690 528 611 q 411 754 471 754 m 414 831 q 199 1060 199 831 l 222 1060 q 414 978 235 978 q 601 1060 583 978 l 625 1060 q 414 831 625 831 z "},"ő":{"ha":822,"x_min":21,"x_max":801,"o":"m 411 -21 q 324 -21 411 -21 q 128 89 236 -21 q 21 383 21 199 q 128 674 21 568 q 410 779 236 779 q 694 672 586 779 q 801 382 801 565 q 694 88 801 196 q 411 -21 586 -21 m 411 754 q 332 700 357 754 q 294 382 294 619 q 320 93 294 182 q 413 4 346 4 q 503 94 478 4 q 528 383 528 185 q 496 690 528 611 q 411 754 471 754 m 249 836 l 231 849 l 349 1121 l 492 1000 l 249 836 m 489 838 l 471 850 l 601 1117 l 739 993 l 489 838 z "},"ŕ":{"ha":596,"x_min":18,"x_max":583,"o":"m 18 731 l 325 775 l 350 772 l 350 556 l 357 556 q 546 783 411 783 q 583 778 572 783 l 583 549 q 521 554 564 554 q 356 529 415 554 l 356 44 l 458 24 l 458 0 l 22 0 l 22 24 l 101 44 l 101 674 l 18 707 l 18 731 m 204 832 l 192 851 l 443 1143 l 574 951 l 204 832 z "},"ŗ":{"ha":596,"x_min":18,"x_max":583,"o":"m 18 731 l 325 775 l 350 772 l 350 556 l 357 556 q 546 783 411 783 q 583 778 572 783 l 583 549 q 521 554 564 554 q 356 529 415 554 l 356 44 l 458 24 l 458 0 l 22 0 l 22 24 l 101 44 l 101 674 l 18 707 l 18 731 m 100 -346 q 138 -243 131 -319 q 128 -69 144 -165 l 332 -69 q 277 -267 342 -196 q 108 -361 213 -337 l 100 -346 z "},"ř":{"ha":596,"x_min":18,"x_max":583,"o":"m 18 731 l 325 775 l 350 772 l 350 556 l 357 556 q 546 783 411 783 q 583 778 572 783 l 583 549 q 521 554 564 554 q 356 529 415 554 l 356 44 l 458 24 l 458 0 l 22 0 l 22 24 l 101 44 l 101 674 l 18 707 l 18 731 m 114 1125 l 329 1025 l 544 1125 l 561 1108 l 349 842 l 310 842 l 97 1108 l 114 1125 z "},"ś":{"ha":644,"x_min":35,"x_max":615,"o":"m 615 233 q 535 49 615 117 q 303 -18 454 -18 q 43 21 147 -18 l 35 246 l 58 246 l 257 14 l 299 7 q 422 124 422 7 q 392 199 422 172 q 258 272 361 225 q 95 378 154 318 q 36 533 36 438 q 114 715 36 650 q 331 781 192 781 q 554 756 469 781 l 561 546 l 538 546 l 386 749 q 338 757 361 757 q 229 651 229 757 q 259 573 229 599 q 394 500 289 547 q 557 396 499 453 q 615 233 615 339 m 188 832 l 175 851 l 426 1143 l 557 951 l 188 832 z "},"ŝ":{"ha":644,"x_min":35,"x_max":615,"o":"m 615 233 q 535 49 615 117 q 303 -18 454 -18 q 43 21 147 -18 l 35 246 l 58 246 l 257 14 l 299 7 q 422 124 422 7 q 392 199 422 172 q 258 272 361 225 q 95 378 154 318 q 36 533 36 438 q 114 715 36 650 q 331 781 192 781 q 554 756 469 781 l 561 546 l 538 546 l 386 749 q 338 757 361 757 q 229 651 229 757 q 259 573 229 599 q 394 500 289 547 q 557 396 499 453 q 615 233 615 339 m 106 821 l 89 838 l 301 1104 l 340 1104 l 553 838 l 536 821 l 321 921 l 106 821 z "},"ş":{"ha":644,"x_min":35,"x_max":615,"o":"m 615 233 q 535 49 615 117 q 303 -18 454 -18 q 43 21 147 -18 l 35 246 l 58 246 l 257 14 l 299 7 q 422 124 422 7 q 392 199 422 172 q 258 272 361 225 q 95 378 154 318 q 36 533 36 438 q 114 715 36 650 q 331 781 192 781 q 554 756 469 781 l 561 546 l 538 546 l 386 749 q 338 757 361 757 q 229 651 229 757 q 259 573 229 599 q 394 500 289 547 q 557 396 499 453 q 615 233 615 339 m 153 -290 l 153 -267 q 229 -283 186 -283 q 319 -203 319 -283 q 247 -133 319 -133 l 236 -135 l 251 0 l 285 0 l 274 -96 q 346 -85 310 -85 q 436 -115 404 -85 q 468 -196 468 -144 q 424 -295 468 -258 q 297 -332 379 -332 q 153 -290 207 -332 z "},"ș":{"ha":644,"x_min":35,"x_max":615,"o":"m 615 233 q 535 49 615 117 q 303 -18 454 -18 q 43 21 147 -18 l 35 246 l 58 246 l 257 14 l 299 7 q 422 124 422 7 q 392 199 422 172 q 258 272 361 225 q 95 378 154 318 q 36 533 36 438 q 114 715 36 650 q 331 781 192 781 q 554 756 469 781 l 561 546 l 538 546 l 386 749 q 338 757 361 757 q 229 651 229 757 q 259 573 229 599 q 394 500 289 547 q 557 396 499 453 q 615 233 615 339 m 185 -346 q 222 -243 215 -319 q 213 -69 229 -165 l 417 -69 q 362 -267 426 -196 q 193 -361 297 -337 l 185 -346 z "},"ť":{"ha":575,"x_min":10,"x_max":642,"o":"m 433 817 l 442 1088 l 642 1088 l 461 817 l 433 817 m 118 708 l 10 708 l 10 733 l 118 761 l 118 911 l 371 951 l 371 761 l 539 761 l 539 708 l 371 708 l 371 203 q 393 119 371 144 q 478 93 415 93 q 547 100 517 93 l 547 76 q 336 -15 460 -15 q 118 197 125 -15 l 118 708 z "},"ț":{"ha":575,"x_min":10,"x_max":547,"o":"m 118 708 l 10 708 l 10 733 l 118 761 l 118 911 l 371 951 l 371 761 l 539 761 l 539 708 l 371 708 l 371 203 q 393 119 371 144 q 478 93 415 93 q 547 100 517 93 l 547 76 q 336 -15 460 -15 q 118 197 125 -15 l 118 708 m 172 -361 q 210 -258 203 -335 q 200 -85 217 -181 l 404 -85 q 349 -282 414 -211 q 181 -376 285 -353 l 172 -361 z "},"ũ":{"ha":893,"x_min":8,"x_max":871,"o":"m 92 674 l 8 707 l 8 731 l 313 775 l 346 772 l 346 183 q 443 89 350 89 q 538 111 486 89 l 538 674 l 454 707 l 454 731 l 758 775 l 789 772 l 789 88 l 871 54 l 871 31 l 571 -17 l 540 -14 l 540 83 l 532 83 q 304 -19 429 -19 q 92 211 92 -19 l 92 674 m 235 846 l 213 851 q 371 1067 260 1067 q 488 1040 415 1067 q 593 1014 567 1014 q 689 1075 646 1014 l 711 1069 q 554 850 660 850 q 438 876 513 850 q 324 903 364 903 q 235 846 275 903 z "},"ū":{"ha":893,"x_min":8,"x_max":871,"o":"m 92 674 l 8 707 l 8 731 l 313 775 l 346 772 l 346 183 q 443 89 350 89 q 538 111 486 89 l 538 674 l 454 707 l 454 731 l 758 775 l 789 772 l 789 88 l 871 54 l 871 31 l 571 -17 l 540 -14 l 540 83 l 532 83 q 304 -19 429 -19 q 92 211 92 -19 l 92 674 m 235 894 l 235 978 l 647 978 l 647 894 l 235 894 z "},"ŭ":{"ha":893,"x_min":8,"x_max":871,"o":"m 92 674 l 8 707 l 8 731 l 313 775 l 346 772 l 346 183 q 443 89 350 89 q 538 111 486 89 l 538 674 l 454 707 l 454 731 l 758 775 l 789 772 l 789 88 l 871 54 l 871 31 l 571 -17 l 540 -14 l 540 83 l 532 83 q 304 -19 429 -19 q 92 211 92 -19 l 92 674 m 443 831 q 228 1060 228 831 l 251 1060 q 443 978 264 978 q 631 1060 613 978 l 654 1060 q 443 831 654 831 z "},"ů":{"ha":893,"x_min":8,"x_max":871,"o":"m 92 674 l 8 707 l 8 731 l 313 775 l 346 772 l 346 183 q 443 89 350 89 q 538 111 486 89 l 538 674 l 454 707 l 454 731 l 758 775 l 789 772 l 789 88 l 871 54 l 871 31 l 571 -17 l 540 -14 l 540 83 l 532 83 q 304 -19 429 -19 q 92 211 92 -19 l 92 674 m 443 824 q 410 824 443 824 q 336 861 378 824 q 294 961 294 899 q 336 1060 294 1021 q 443 1099 378 1099 q 550 1060 508 1099 q 592 961 592 1021 q 550 861 592 899 q 443 824 508 824 m 443 847 q 486 961 486 847 q 443 1075 486 1075 q 400 961 400 1075 q 410 872 400 897 q 443 847 419 847 z "},"ű":{"ha":893,"x_min":8,"x_max":871,"o":"m 92 674 l 8 707 l 8 731 l 313 775 l 346 772 l 346 183 q 443 89 350 89 q 538 111 486 89 l 538 674 l 454 707 l 454 731 l 758 775 l 789 772 l 789 88 l 871 54 l 871 31 l 571 -17 l 540 -14 l 540 83 l 532 83 q 304 -19 429 -19 q 92 211 92 -19 l 92 674 m 278 836 l 260 849 l 378 1121 l 521 1000 l 278 836 m 518 838 l 500 850 l 631 1117 l 768 993 l 518 838 z "},"ų":{"ha":893,"x_min":8,"x_max":871,"o":"m 456 -304 q 317 -203 317 -304 q 371 -108 317 -150 q 540 -10 425 -65 l 540 83 l 532 83 q 304 -19 429 -19 q 92 211 92 -19 l 92 674 l 8 707 l 8 731 l 313 775 l 346 772 l 346 183 q 443 89 350 89 q 538 111 486 89 l 538 674 l 454 707 l 454 731 l 758 775 l 789 772 l 789 88 l 871 54 l 871 31 l 572 -17 q 493 -158 493 -103 q 565 -229 493 -229 q 618 -219 592 -229 l 618 -242 q 456 -304 558 -304 z "},"ŵ":{"ha":1157,"x_min":6,"x_max":1150,"o":"m 740 761 l 910 238 l 919 238 l 1035 681 l 928 738 l 928 761 l 1150 761 l 1150 738 l 1061 679 l 885 0 l 731 0 l 574 515 l 568 515 l 435 0 l 282 0 l 78 699 l 6 738 l 6 761 l 413 761 l 413 738 l 346 711 l 463 249 l 472 249 l 601 761 l 740 761 m 450 821 l 433 838 l 646 1104 l 685 1104 l 897 838 l 881 821 l 665 921 l 450 821 z "},"ẁ":{"ha":1157,"x_min":6,"x_max":1150,"o":"m 740 761 l 910 238 l 919 238 l 1035 681 l 928 738 l 928 761 l 1150 761 l 1150 738 l 1061 679 l 885 0 l 731 0 l 574 515 l 568 515 l 435 0 l 282 0 l 78 699 l 6 738 l 6 761 l 413 761 l 413 738 l 346 711 l 463 249 l 472 249 l 601 761 l 740 761 m 803 833 l 432 951 l 563 1143 l 815 853 l 803 833 z "},"ẃ":{"ha":1157,"x_min":6,"x_max":1150,"o":"m 740 761 l 910 238 l 919 238 l 1035 681 l 928 738 l 928 761 l 1150 761 l 1150 738 l 1061 679 l 885 0 l 731 0 l 574 515 l 568 515 l 435 0 l 282 0 l 78 699 l 6 738 l 6 761 l 413 761 l 413 738 l 346 711 l 463 249 l 472 249 l 601 761 l 740 761 m 518 832 l 506 851 l 757 1143 l 888 951 l 518 832 z "},"ẅ":{"ha":1157,"x_min":6,"x_max":1150,"o":"m 740 761 l 910 238 l 919 238 l 1035 681 l 928 738 l 928 761 l 1150 761 l 1150 738 l 1061 679 l 885 0 l 731 0 l 574 515 l 568 515 l 435 0 l 282 0 l 78 699 l 6 738 l 6 761 l 413 761 l 413 738 l 346 711 l 463 249 l 472 249 l 601 761 l 740 761 m 800 843 q 776 843 800 843 q 718 876 751 843 q 685 957 685 910 q 718 1037 685 1004 q 800 1069 751 1069 q 883 1037 849 1069 q 917 957 917 1004 q 883 876 917 910 q 800 843 849 843 m 493 843 q 409 876 443 843 q 375 957 375 910 q 409 1037 375 1004 q 493 1069 443 1069 q 574 1037 542 1069 q 607 957 607 1004 q 574 876 607 910 q 493 843 542 843 z "},"ŷ":{"ha":810,"x_min":6,"x_max":804,"o":"m 203 -315 l 121 -165 l 121 -144 l 415 -144 l 72 706 l 6 738 l 6 761 l 433 761 l 433 738 l 347 701 l 532 194 l 692 678 l 583 738 l 583 761 l 804 761 l 804 738 l 721 682 l 468 -71 q 203 -315 397 -274 m 257 821 l 240 838 l 453 1104 l 492 1104 l 704 838 l 688 821 l 472 921 l 257 821 z "},"ỳ":{"ha":810,"x_min":6,"x_max":804,"o":"m 203 -315 l 121 -165 l 121 -144 l 415 -144 l 72 706 l 6 738 l 6 761 l 433 761 l 433 738 l 347 701 l 532 194 l 692 678 l 583 738 l 583 761 l 804 761 l 804 738 l 721 682 l 468 -71 q 203 -315 397 -274 m 624 833 l 253 951 l 383 1143 l 636 853 l 624 833 z "},"ź":{"ha":701,"x_min":19,"x_max":674,"o":"m 19 0 l 19 26 l 396 735 l 238 735 l 88 485 l 64 485 l 72 761 l 674 761 l 674 735 l 299 26 l 485 26 l 647 290 l 671 290 l 660 0 l 19 0 m 268 832 l 256 851 l 507 1143 l 638 951 l 268 832 z "},"ż":{"ha":701,"x_min":19,"x_max":674,"o":"m 19 0 l 19 26 l 396 735 l 238 735 l 88 485 l 64 485 l 72 761 l 674 761 l 674 735 l 299 26 l 485 26 l 647 290 l 671 290 l 660 0 l 19 0 m 379 1096 q 473 1058 433 1096 q 513 965 513 1021 q 473 873 513 910 q 379 836 433 836 q 283 873 322 836 q 244 965 244 910 q 283 1058 244 1021 q 379 1096 322 1096 z "},"ǽ":{"ha":1175,"x_min":22,"x_max":1140,"o":"m 819 -21 q 623 16 697 -21 q 514 96 549 53 q 372 -1 435 21 q 228 -22 308 -22 q 77 33 132 -22 q 22 188 22 89 q 235 410 22 361 l 429 447 l 429 549 q 402 708 429 664 q 311 753 375 753 l 283 750 l 96 496 l 72 496 l 78 732 q 360 779 231 779 q 599 717 533 779 q 807 778 686 778 q 1061 688 982 778 q 1140 407 1140 597 l 685 407 q 748 185 692 267 q 949 104 804 104 q 1118 135 1047 104 l 1118 113 q 1008 22 1086 64 q 819 -21 929 -21 m 685 435 l 900 444 q 876 687 900 622 q 801 751 851 751 q 685 435 685 751 m 268 228 q 386 79 268 79 q 499 118 447 79 q 429 411 429 229 l 378 407 q 293 360 318 401 q 268 228 268 318 m 521 832 l 508 851 l 760 1143 l 890 951 l 521 832 z "},"ǿ":{"ha":822,"x_min":21,"x_max":801,"o":"m 44 -54 l 146 72 q 21 383 21 183 q 128 674 21 568 q 410 779 236 779 q 649 710 550 779 l 722 803 l 765 803 l 675 689 q 801 382 801 581 q 694 88 801 196 q 411 -21 586 -21 q 172 51 271 -21 l 88 -54 l 44 -54 m 411 754 q 332 700 357 754 q 294 382 294 619 l 297 250 l 521 565 q 483 715 511 676 q 411 754 456 754 m 528 383 l 525 511 l 301 199 q 341 45 313 86 q 413 4 369 4 q 503 94 478 4 q 528 383 528 185 m 300 832 l 288 851 l 539 1143 l 669 951 l 300 832 z "},"đ":{"ha":858,"x_min":28,"x_max":863,"o":"m 381 776 q 511 753 467 776 l 511 871 l 321 871 l 321 906 l 511 906 l 511 1000 l 428 1029 l 428 1053 l 735 1097 l 764 1093 l 764 906 l 863 906 l 863 871 l 764 871 l 764 68 l 849 42 l 849 18 l 539 -17 l 515 -14 l 515 72 l 508 72 q 314 -19 424 -19 q 109 76 190 -19 q 28 365 28 172 q 125 672 28 568 q 381 776 222 776 m 440 88 q 511 104 485 88 l 511 719 q 429 738 475 738 q 294 396 294 738 q 331 159 294 231 q 440 88 368 88 z "},"ħ":{"ha":900,"x_min":17,"x_max":888,"o":"m 22 24 l 101 46 l 101 871 l 17 871 l 17 906 l 101 906 l 101 996 l 18 1029 l 18 1053 l 319 1097 l 351 1093 l 351 906 l 540 906 l 540 871 l 351 871 l 351 675 l 360 675 q 478 752 408 725 q 618 779 547 779 q 763 731 717 779 q 808 578 808 682 l 808 46 l 888 24 l 888 0 l 485 0 l 485 24 l 556 42 l 556 564 q 457 672 556 672 q 356 647 406 672 l 356 42 l 425 24 l 425 0 l 22 0 l 22 24 z "},"ĳ":{"ha":883,"x_min":18,"x_max":813,"o":"m 224 1086 q 318 1049 278 1086 q 358 956 358 1011 q 318 863 358 900 q 224 826 278 826 q 129 863 168 826 q 90 956 90 900 q 129 1049 90 1011 q 224 1086 168 1086 m 18 731 l 322 775 l 357 772 l 357 46 l 435 24 l 435 0 l 24 0 l 24 24 l 103 46 l 103 674 l 18 707 l 18 731 m 678 1086 q 772 1049 732 1086 q 813 956 813 1011 q 772 863 813 900 q 678 826 732 826 q 583 863 622 826 q 544 956 544 900 q 583 1049 544 1011 q 678 1086 622 1086 m 557 674 l 472 707 l 472 731 l 776 775 l 811 772 l 811 8 q 734 -220 811 -137 q 499 -303 657 -303 q 346 -283 407 -303 l 342 -86 l 365 -86 l 478 -279 q 557 -140 556 -276 l 557 674 z "},"ŀ":{"ha":535,"x_min":18,"x_max":590,"o":"m 18 1053 l 326 1097 l 357 1093 l 357 46 l 436 24 l 436 0 l 24 0 l 24 24 l 103 46 l 103 997 l 18 1029 l 18 1053 m 493 613 q 563 586 535 613 q 590 514 590 560 q 563 441 590 468 q 493 414 535 414 q 426 441 453 414 q 399 514 399 468 q 426 586 399 560 q 493 613 453 613 z "},"ŉ":{"ha":1108,"x_min":-11,"x_max":1094,"o":"m -11 676 q 38 797 26 707 q 32 1001 49 888 l 250 1001 q 197 776 263 865 q -1 657 131 688 l -11 676 m 229 24 l 308 46 l 308 674 l 225 707 l 225 731 l 528 775 l 558 772 l 558 675 l 567 675 q 685 752 615 725 q 825 779 754 779 q 969 731 924 779 q 1015 578 1015 682 l 1015 46 l 1094 24 l 1094 0 l 692 0 l 692 24 l 763 42 l 763 564 q 664 672 763 672 q 563 647 613 672 l 563 42 l 632 24 l 632 0 l 229 0 l 229 24 z "},"ŋ":{"ha":881,"x_min":18,"x_max":808,"o":"m 22 24 l 101 46 l 101 674 l 18 707 l 18 731 l 321 775 l 351 772 l 351 675 l 360 675 q 478 752 408 725 q 618 779 547 779 q 763 731 717 779 q 808 578 808 682 l 808 8 q 732 -220 808 -137 q 497 -303 656 -303 q 344 -283 406 -303 l 340 -86 l 364 -86 l 476 -279 q 556 -140 554 -276 l 556 564 q 457 672 556 672 q 356 647 406 672 l 356 42 l 425 24 l 425 0 l 22 0 l 22 24 z "},"ŧ":{"ha":575,"x_min":10,"x_max":547,"o":"m 25 488 l 25 522 l 118 522 l 118 708 l 10 708 l 10 733 l 118 761 l 118 911 l 371 951 l 371 761 l 539 761 l 539 708 l 371 708 l 371 522 l 518 522 l 518 488 l 371 488 l 371 203 q 393 119 371 144 q 478 93 415 93 q 547 100 517 93 l 547 76 q 336 -15 460 -15 q 118 197 125 -15 l 118 488 l 25 488 z "},"ȷ":{"ha":429,"x_min":-112,"x_max":357,"o":"m 103 674 l 18 707 l 18 731 l 322 775 l 357 772 l 357 8 q 280 -220 357 -137 q 44 -303 203 -303 q -108 -283 -47 -303 l -112 -86 l -89 -86 l 24 -279 q 103 -140 101 -276 l 103 674 z "},"ﬀ":{"ha":975,"x_min":18,"x_max":1049,"o":"m 357 46 l 435 24 l 435 0 l 22 0 l 22 24 l 103 46 l 103 708 l 18 708 l 18 733 l 103 761 l 103 796 q 440 1081 103 1081 q 654 1043 564 1081 q 861 1099 733 1099 q 1044 1085 954 1099 l 1049 858 l 1025 858 l 890 1072 q 832 1035 850 1072 q 814 899 814 999 l 814 761 l 954 761 l 954 708 l 814 708 l 814 46 l 913 24 l 913 0 l 489 0 l 489 24 l 560 46 l 560 708 l 357 708 l 357 46 m 357 761 l 560 761 l 560 844 q 599 985 561 926 q 469 1050 556 1050 q 358 933 368 1050 l 357 761 z "},"ﬃ":{"ha":1378,"x_min":18,"x_max":1357,"o":"m 357 46 l 435 24 l 435 0 l 22 0 l 22 24 l 103 46 l 103 708 l 18 708 l 18 733 l 103 761 l 103 796 q 440 1081 103 1081 q 663 1038 567 1081 q 939 1099 756 1099 q 1164 1079 1069 1099 l 1164 858 l 1140 858 l 1011 1060 q 943 1071 983 1071 q 844 1033 874 1071 q 814 874 814 994 l 814 761 l 1279 761 l 1279 44 l 1357 24 l 1357 0 l 954 0 l 954 24 l 1025 44 l 1025 708 l 814 708 l 814 46 l 906 24 l 906 0 l 479 0 l 479 24 l 560 46 l 560 708 l 357 708 l 357 46 m 357 761 l 560 761 l 560 831 q 601 981 560 922 q 469 1050 557 1050 q 358 933 368 1050 l 357 761 z "},"ﬄ":{"ha":1368,"x_min":18,"x_max":1354,"o":"m 357 46 l 435 24 l 435 0 l 22 0 l 22 24 l 103 46 l 103 708 l 18 708 l 18 733 l 103 761 l 103 796 q 440 1081 103 1081 q 658 1039 563 1081 q 903 1099 743 1099 q 1096 1075 992 1099 l 1244 1097 l 1275 1093 l 1275 47 l 1354 25 l 1354 0 l 947 0 l 947 25 l 1021 47 l 1021 1040 q 924 1069 983 1069 q 840 1034 865 1069 q 814 911 814 999 l 814 761 l 949 761 l 949 708 l 814 708 l 814 46 l 900 25 l 900 0 l 479 0 l 479 24 l 560 46 l 560 708 l 357 708 l 357 46 m 357 761 l 560 761 l 560 839 q 600 982 561 921 q 469 1050 556 1050 q 358 933 368 1050 l 357 761 z "},"̀":{"ha":0,"x_min":-603,"x_max":-219,"o":"m -232 833 l -603 951 l -472 1143 l -219 853 l -232 833 z "},"́":{"ha":0,"x_min":-603,"x_max":-221,"o":"m -590 832 l -603 851 l -351 1143 l -221 951 l -590 832 z "},"̂":{"ha":0,"x_min":-643,"x_max":-179,"o":"m -626 821 l -643 838 l -431 1104 l -392 1104 l -179 838 l -196 821 l -411 921 l -626 821 z "},"̃":{"ha":0,"x_min":-661,"x_max":-162,"o":"m -639 846 l -661 851 q -503 1067 -614 1067 q -386 1040 -458 1067 q -281 1014 -307 1014 q -185 1075 -228 1014 l -162 1069 q -319 850 -214 850 q -435 876 -361 850 q -550 903 -510 903 q -639 846 -599 903 z "},"̄":{"ha":0,"x_min":-618,"x_max":-206,"o":"m -618 894 l -618 978 l -206 978 l -206 894 l -618 894 z "},"̆":{"ha":0,"x_min":-625,"x_max":-199,"o":"m -410 831 q -625 1060 -625 831 l -601 1060 q -410 978 -589 978 q -222 1060 -240 978 l -199 1060 q -410 831 -199 831 z "},"̇":{"ha":0,"x_min":-546,"x_max":-278,"o":"m -411 1086 q -317 1049 -357 1086 q -278 956 -278 1011 q -317 863 -278 900 q -411 826 -357 826 q -507 863 -468 826 q -546 956 -546 900 q -507 1049 -546 1011 q -411 1086 -468 1086 z "},"̈":{"ha":0,"x_min":-682,"x_max":-140,"o":"m -257 843 q -281 843 -257 843 q -339 876 -306 843 q -372 957 -372 910 q -339 1037 -372 1004 q -257 1069 -306 1069 q -174 1037 -208 1069 q -140 957 -140 1004 q -174 876 -140 910 q -257 843 -208 843 m -564 843 q -648 876 -614 843 q -682 957 -682 910 q -648 1037 -682 1004 q -564 1069 -614 1069 q -483 1037 -515 1069 q -450 957 -450 1004 q -483 876 -450 910 q -564 843 -515 843 z "},"̊":{"ha":0,"x_min":-560,"x_max":-262,"o":"m -411 824 q -444 824 -411 824 q -518 861 -476 824 q -560 961 -560 899 q -518 1060 -560 1021 q -411 1099 -476 1099 q -304 1060 -346 1099 q -262 961 -262 1021 q -304 861 -262 899 q -411 824 -346 824 m -411 847 q -368 961 -368 847 q -411 1075 -368 1075 q -454 961 -454 1075 q -444 872 -454 897 q -411 847 -435 847 z "},"̋":{"ha":0,"x_min":-665,"x_max":-157,"o":"m -647 836 l -665 849 l -547 1121 l -404 1000 l -647 836 m -407 838 l -425 850 l -294 1117 l -157 993 l -407 838 z "},"̌":{"ha":0,"x_min":-643,"x_max":-179,"o":"m -626 1125 l -411 1025 l -196 1125 l -179 1108 l -392 842 l -431 842 l -643 1108 l -626 1125 z "},"̦":{"ha":0,"x_min":-528,"x_max":-286,"o":"m -528 -346 q -490 -243 -497 -319 q -500 -69 -483 -165 l -296 -69 q -351 -267 -286 -196 q -519 -361 -415 -337 l -528 -346 z "},"̧":{"ha":0,"x_min":-569,"x_max":-254,"o":"m -569 -290 l -569 -267 q -493 -283 -536 -283 q -403 -203 -403 -283 q -476 -133 -403 -133 l -486 -135 l -471 0 l -437 0 l -449 -96 q -376 -85 -412 -85 q -286 -115 -318 -85 q -254 -196 -254 -144 q -299 -295 -254 -258 q -425 -332 -343 -332 q -569 -290 -515 -332 z "},"̨":{"ha":0,"x_min":-562,"x_max":-261,"o":"m -424 -304 q -562 -203 -562 -304 q -503 -105 -562 -149 q -315 0 -444 -61 l -292 0 q -386 -158 -386 -99 q -314 -229 -386 -229 q -261 -219 -287 -229 l -261 -240 q -424 -304 -332 -304 z "},"⅓":{"ha":1317,"x_min":26,"x_max":1276,"o":"m 33 371 l 33 394 l 139 421 l 139 906 l 26 896 l 26 919 l 263 1007 l 347 1007 l 347 421 l 454 394 l 454 371 l 33 371 m 285 -29 l 924 1001 l 965 1001 l 328 -29 l 285 -29 m 997 -14 q 793 19 851 -14 l 790 199 l 814 199 l 935 14 q 1051 171 1051 22 q 928 311 1051 310 l 883 311 l 883 339 l 935 339 q 1042 469 1042 344 q 949 611 1042 611 l 940 611 l 822 440 l 799 440 l 806 610 q 1006 636 892 636 q 1183 600 1114 636 q 1253 485 1253 564 q 1035 332 1253 353 l 1035 328 q 1208 286 1140 321 q 1276 169 1276 251 q 1200 32 1276 78 q 997 -14 1124 -14 z "},"⅔":{"ha":1372,"x_min":28,"x_max":1332,"o":"m 28 371 l 28 453 l 188 600 q 293 846 293 708 q 197 986 293 986 l 65 789 l 42 789 l 47 976 q 264 1011 138 1011 q 446 963 381 1011 q 511 828 511 915 q 296 592 511 694 l 146 526 l 146 521 l 518 521 l 508 371 l 28 371 m 340 -29 l 979 1001 l 1021 1001 l 383 -29 l 340 -29 m 1053 -14 q 849 19 907 -14 l 846 199 l 869 199 l 990 14 q 1107 171 1107 22 q 983 311 1107 310 l 939 311 l 939 339 l 990 339 q 1097 469 1097 344 q 1004 611 1097 611 l 996 611 l 878 440 l 854 440 l 861 610 q 1061 636 947 636 q 1239 600 1169 636 q 1308 485 1308 564 q 1090 332 1308 353 l 1090 328 q 1264 286 1196 321 q 1332 169 1332 251 q 1256 32 1332 78 q 1053 -14 1179 -14 z "},"⅛":{"ha":1325,"x_min":26,"x_max":1288,"o":"m 33 371 l 33 394 l 139 421 l 139 906 l 26 896 l 26 919 l 263 1007 l 347 1007 l 347 421 l 454 394 l 454 371 l 33 371 m 285 -29 l 924 1001 l 965 1001 l 328 -29 l 285 -29 m 1015 -12 q 813 31 879 -12 q 746 143 746 75 q 914 293 746 258 q 805 381 835 339 q 775 474 775 422 q 840 592 775 544 q 1025 640 904 640 q 1205 599 1146 640 q 1264 499 1264 558 q 1104 364 1264 396 q 1244 272 1201 317 q 1288 164 1288 228 q 1218 37 1288 86 q 1015 -12 1149 -12 m 932 526 q 1078 376 932 440 q 1121 501 1121 422 q 1095 585 1121 553 q 1021 618 1069 618 q 932 526 932 618 m 900 153 q 928 51 900 93 q 1015 10 956 10 q 1096 38 1067 10 q 1125 113 1125 65 q 1094 186 1125 154 q 935 282 1063 218 q 900 153 900 232 z "},"⅜":{"ha":1338,"x_min":28,"x_max":1300,"o":"m 235 357 q 31 390 89 357 l 28 569 l 51 569 l 172 385 q 289 542 289 393 q 165 682 289 681 l 121 682 l 121 710 l 172 710 q 279 840 279 715 q 186 982 279 982 l 178 982 l 60 811 l 36 811 l 43 981 q 243 1007 129 1007 q 421 971 351 1007 q 490 856 490 935 q 272 703 490 724 l 272 699 q 446 657 378 692 q 514 540 514 622 q 438 403 514 449 q 235 357 361 357 m 297 -29 l 936 1001 l 978 1001 l 340 -29 l 297 -29 m 1028 -12 q 825 31 892 -12 q 758 143 758 75 q 926 293 758 258 q 817 381 847 339 q 788 474 788 422 q 852 592 788 544 q 1038 640 917 640 q 1217 599 1158 640 q 1276 499 1276 558 q 1117 364 1276 396 q 1257 272 1214 317 q 1300 164 1300 228 q 1231 37 1300 86 q 1028 -12 1161 -12 m 944 526 q 1090 376 944 440 q 1133 501 1133 422 q 1108 585 1133 553 q 1033 618 1082 618 q 944 526 944 618 m 913 153 q 940 51 913 93 q 1028 10 968 10 q 1108 38 1079 10 q 1138 113 1138 65 q 1106 186 1138 154 q 947 282 1075 218 q 913 153 913 232 z "},"⅝":{"ha":1315,"x_min":31,"x_max":1278,"o":"m 224 358 q 33 388 106 358 l 31 557 l 54 557 l 163 386 q 247 434 218 392 q 276 543 276 476 q 156 683 276 683 q 61 651 113 683 l 85 999 l 464 999 l 451 851 l 101 851 l 89 689 q 269 763 138 763 q 427 713 365 763 q 489 567 489 663 q 419 417 489 475 q 224 358 350 358 m 275 -29 l 914 1001 l 956 1001 l 318 -29 l 275 -29 m 1006 -12 q 803 31 869 -12 q 736 143 736 75 q 904 293 736 258 q 795 381 825 339 q 765 474 765 422 q 830 592 765 544 q 1015 640 894 640 q 1195 599 1136 640 q 1254 499 1254 558 q 1094 364 1254 396 q 1235 272 1192 317 q 1278 164 1278 228 q 1208 37 1278 86 q 1006 -12 1139 -12 m 922 526 q 1068 376 922 440 q 1111 501 1111 422 q 1085 585 1111 553 q 1011 618 1060 618 q 922 526 922 618 m 890 153 q 918 51 890 93 q 1006 10 946 10 q 1086 38 1057 10 q 1115 113 1115 65 q 1084 186 1115 154 q 925 282 1053 218 q 890 153 890 232 z "},"⅞":{"ha":1238,"x_min":25,"x_max":1200,"o":"m 61 371 l 450 846 l 450 850 l 108 850 l 49 753 l 25 753 l 36 1001 l 500 1001 l 500 908 l 297 371 l 61 371 m 197 -29 l 836 1001 l 878 1001 l 240 -29 l 197 -29 m 928 -12 q 725 31 792 -12 q 658 143 658 75 q 826 293 658 258 q 717 381 747 339 q 688 474 688 422 q 752 592 688 544 q 938 640 817 640 q 1117 599 1058 640 q 1176 499 1176 558 q 1017 364 1176 396 q 1157 272 1114 317 q 1200 164 1200 228 q 1131 37 1200 86 q 928 -12 1061 -12 m 844 526 q 990 376 844 440 q 1033 501 1033 422 q 1008 585 1033 553 q 933 618 982 618 q 844 526 844 618 m 813 153 q 840 51 813 93 q 928 10 868 10 q 1008 38 979 10 q 1038 113 1038 65 q 1006 186 1038 154 q 847 282 975 218 q 813 153 813 232 z "},"‑":{"ha":475,"x_min":36,"x_max":439,"o":"m 36 394 l 36 436 l 439 436 l 439 394 l 36 394 z "},"′":{"ha":336,"x_min":40,"x_max":301,"o":"m 40 658 l 78 1001 l 301 1001 l 64 658 l 40 658 z "},"″":{"ha":597,"x_min":40,"x_max":572,"o":"m 40 658 l 78 1001 l 301 1001 l 64 658 l 40 658 m 311 658 l 349 1001 l 572 1001 l 335 658 l 311 658 z "},"€":{"ha":900,"x_min":36,"x_max":846,"o":"m 36 406 l 36 440 l 124 440 l 122 496 l 126 585 l 36 585 l 36 619 l 131 619 q 274 917 158 817 q 588 1018 389 1018 q 838 989 747 1018 l 846 693 l 822 693 l 631 988 q 590 993 611 993 q 408 619 424 993 l 625 619 l 625 585 l 407 585 l 407 535 l 410 440 l 625 440 l 625 406 l 413 406 q 485 179 426 249 q 661 110 544 110 q 846 144 774 110 l 846 117 q 721 22 800 61 q 533 -17 642 -17 q 247 92 350 -17 q 126 406 144 201 l 36 406 z "},"№":{"ha":1614,"x_min":25,"x_max":1592,"o":"m 1293 396 q 1077 481 1160 396 q 994 710 994 565 q 1076 935 994 853 q 1292 1018 1158 1018 q 1509 935 1426 1018 q 1592 708 1592 853 q 1510 481 1592 565 q 1293 396 1428 396 m 25 0 l 25 24 l 149 94 l 149 933 l 25 978 l 25 1001 l 442 1001 l 839 332 l 846 332 l 846 907 l 710 978 l 710 1001 l 983 1001 l 983 978 l 874 908 l 874 0 l 714 0 l 183 889 l 176 889 l 176 94 l 311 22 l 311 0 l 25 0 m 1293 993 q 1224 924 1243 993 q 1204 710 1204 856 q 1224 491 1204 561 q 1294 421 1243 421 q 1364 486 1344 421 q 1383 711 1383 551 q 1350 960 1383 900 q 1293 993 1332 993 m 1049 239 l 1049 267 l 1539 267 l 1539 239 l 1049 239 z "},"Ⓟ":{"ha":1096,"x_min":31,"x_max":1065,"o":"m 549 -17 q 288 51 408 -17 q 99 240 167 118 q 31 501 31 361 q 99 763 31 643 q 288 951 168 883 q 549 1018 408 1018 q 810 950 690 1018 q 997 763 929 882 q 1065 501 1065 643 q 998 241 1065 361 q 810 52 931 121 q 549 -17 690 -17 m 549 18 q 615 18 549 18 q 792 81 682 18 q 963 256 901 144 q 1024 501 1024 368 q 963 745 1024 633 q 792 920 903 857 q 549 983 682 983 q 304 920 415 983 q 133 745 193 857 q 72 501 72 633 q 134 256 72 368 q 306 81 196 143 q 549 18 415 18 m 318 236 l 318 257 l 365 264 l 365 750 l 318 757 l 318 778 l 578 778 q 799 611 799 778 q 744 485 799 536 q 576 435 689 435 l 525 438 l 525 263 l 568 257 l 568 236 l 318 236 m 525 461 l 557 460 q 628 608 628 460 q 571 753 628 747 l 525 753 l 525 461 z "}," ":{"ha":236,"x_min":0,"x_max":0,"o":""}," ":{"ha":121,"x_min":0,"x_max":0,"o":""},"":{"ha":722,"x_min":243,"x_max":485,"o":"m 243 -346 q 281 -243 274 -319 q 271 -69 288 -165 l 475 -69 q 420 -267 485 -196 q 251 -361 356 -337 l 243 -346 z "}}}
